<?xml version="1.0" standalone="no"?>
<!DOCTYPE svg PUBLIC "-//W3C//DTD SVG 1.1//EN" "http://www.w3.org/Graphics/SVG/1.1/DTD/svg11.dtd" >
<svg xmlns="http://www.w3.org/2000/svg" xmlns:xlink="http://www.w3.org/1999/xlink" version="1.1">
<metadata>
Created by FontForge 20150102 at Mon Feb  9 17:41:15 2015
 By uniteet7
(c) 2012 Klim Type Foundry. All Rights Reserved. wf-rip
</metadata>
<defs>
<font id="PitchRegular" horiz-adv-x="614" >
  <font-face 
    font-family="PitchRegular"
    font-weight="400"
    font-stretch="normal"
    units-per-em="1000"
    panose-1="2 6 5 9 3 2 6 6 2 3"
    ascent="762"
    descent="-238"
    x-height="424"
    cap-height="570"
    bbox="0 -286 690 992"
    underline-thickness="50"
    underline-position="-55"
    unicode-range="U+0020-2265"
  />
<missing-glyph 
 />
    <glyph glyph-name=".notdef" 
 />
    <glyph glyph-name=".null" horiz-adv-x="0" 
 />
    <glyph glyph-name="nonmarkingreturn" 
 />
    <glyph glyph-name="space" unicode=" " 
 />
    <glyph glyph-name="exclam" unicode="!" 
d="M307 -11q-26 0 -44.5 18.5t-18.5 45.5q0 26 18.5 44.5t44.5 18.5t44.5 -18.5t18.5 -44.5q0 -27 -18.5 -45.5t-44.5 -18.5zM321 193h-29l-32 337q-2 22 11.5 38t35.5 16t35.5 -15.5t11.5 -38.5z" />
    <glyph glyph-name="quotedbl" unicode="&#x22;" 
d="M416 341h-22l-29 162q-10 58 -10 67q0 26 13 41.5t37 15.5q50 0 50 -57q0 -26 -9 -67zM220 341h-22l-29 162q-10 58 -10 67q0 26 13 41.5t37 15.5q50 0 50 -57q0 -26 -9 -67z" />
    <glyph glyph-name="numbersign" unicode="#" 
d="M368 224l31 122h-153l-31 -122h153zM204 183l-47 -183h-45l47 183h-115l11 41h114l32 122h-117l9 41h118l47 183h46l-47 -183h153l47 183h45l-47 -183h115l-11 -41h-114l-32 -122h117l-9 -41h-118l-47 -183h-46l47 183h-153z" />
    <glyph glyph-name="dollar" unicode="$" 
d="M286 328v210q-64 -4 -105 -32.5t-41 -73.5q0 -39 28 -61t83 -35zM331 32h2q68 5 111.5 37.5t43.5 84.5q0 73 -94 97l-63 15v-234zM331 -162h-45v149q-91 4 -154 40.5t-63 98.5q0 25 15.5 42t38.5 17q22 0 36.5 -13.5t14.5 -34.5q0 -18 -11 -30t-27 -11q5 -24 49 -42.5
t101 -21.5v244l-42 10q-79 19 -117 52t-38 94q0 66 55.5 107t141.5 45v133h45v-134q83 -7 136 -45.5t53 -92.5q0 -24 -14.5 -40t-35.5 -16t-34.5 13t-13.5 32q0 17 10.5 28.5t25.5 10.5q-6 23 -40 41.5t-87 22.5v-220l75 -17q133 -31 133 -146q0 -71 -58 -116.5t-150 -50.5
v-149z" />
    <glyph glyph-name="percent" unicode="%" 
d="M462 32q32 0 54.5 22t22.5 54q0 31 -22.5 53.5t-54.5 22.5t-54 -22t-22 -54t22 -54t54 -22zM462 229q50 0 85.5 -35.5t35.5 -85.5t-35.5 -85t-85.5 -35t-85 35t-35 85t35 85.5t85 35.5zM151 540q-32 0 -54 -22.5t-22 -54.5t22 -53.5t54 -21.5t54.5 22t22.5 53t-23 54
t-54 23zM537 582l30 -26l-489 -566l-30 26zM151 584q50 0 85.5 -35.5t35.5 -85.5t-35.5 -85t-85.5 -35q-49 0 -84.5 35.5t-35.5 84.5q0 50 35 85.5t85 35.5z" />
    <glyph glyph-name="ampersand" unicode="&#x26;" 
d="M228 340l4 2q51 26 76.5 52t25.5 59q0 35 -23 60.5t-66 25.5q-37 0 -61 -24t-24 -60q0 -18 8 -36t17 -28.5t31 -36.5zM193 35q41 0 73 19t71 59l15 15l-139 156q-70 -35 -100 -66t-30 -78q0 -46 33 -75.5t77 -29.5zM369 80q-48 -48 -87 -70.5t-89 -22.5q-66 0 -114 42.5
t-48 110.5q0 62 37 100.5t115 77.5l-8 9q-21 23 -31 35.5t-22.5 39.5t-12.5 53q0 55 38.5 92t97.5 37q66 0 102.5 -37t36.5 -94q0 -47 -34.5 -81.5t-90.5 -64.5l127 -143l140 144l34 -34l-143 -145l75 -83h104v-46h-160v34l-53 60z" />
    <glyph glyph-name="quotesingle" unicode="'" 
d="M318 341h-22l-29 162q-10 58 -10 67q0 26 13 41.5t37 15.5q50 0 50 -57q0 -26 -9 -67z" />
    <glyph glyph-name="parenleft" unicode="(" 
d="M220 256q0 -117 62 -209.5t165 -154.5l-27 -40q-251 152 -251 404t251 404l28 -39q-103 -62 -165.5 -155t-62.5 -210z" />
    <glyph glyph-name="parenright" unicode=")" 
d="M394 256q0 117 -62.5 210t-165.5 155l28 39q251 -152 251 -404t-251 -404l-27 40q103 62 165 154.5t62 209.5z" />
    <glyph glyph-name="asterisk" unicode="*" 
d="M267 449l-142 81l21 35l141 -81v161h40v-161l141 81l21 -35l-141 -81l141 -82l-21 -35l-141 82v-162h-40v162l-141 -82l-21 35z" />
    <glyph glyph-name="plus" unicode="+" 
d="M330 268v-203h-46v203h-203v46h203v203h46v-203h203v-46h-203z" />
    <glyph glyph-name="comma" unicode="," 
d="M238 59q0 28 20 48t49 20q28 0 48 -20.5t20 -49.5q0 -24 -20 -52l-126 -180l-31 20l91 152q-22 5 -36.5 21.5t-14.5 40.5z" />
    <glyph glyph-name="hyphen" unicode="-" 
d="M185 245v58h244v-58h-244z" />
    <glyph glyph-name="period" unicode="." 
d="M239 58q0 29 20 49t48 20q29 0 49 -20.5t20 -48.5t-20 -48.5t-49 -20.5q-28 0 -48 20t-20 49z" />
    <glyph glyph-name="slash" unicode="/" 
d="M71 -111l428 745l44 -23l-428 -745z" />
    <glyph glyph-name="zero" unicode="0" 
d="M69 285q0 129 65.5 214t172.5 85t172.5 -85t65.5 -214t-65.5 -214t-172.5 -85t-172.5 85t-65.5 214zM491 285q0 107 -49 178t-135 71t-135 -71t-49 -178t49 -178t135 -71t135 71t49 178z" />
    <glyph glyph-name="one" unicode="1" 
d="M96 441l188 129h68v-502l22 -22h180v-46h-465v46h189l22 22v452l-176 -120z" />
    <glyph glyph-name="two" unicode="2" 
d="M118 417l-39 30q39 61 97 99t128 38q84 0 132 -45t48 -118q0 -40 -24.5 -80.5t-49.5 -64t-73 -62.5l-201 -168h303l24 22v100h47v-168h-433v58l225 191q47 40 68 60t40 51t19 62q0 52 -34 82.5t-91 30.5q-107 0 -186 -118z" />
    <glyph glyph-name="three" unicode="3" 
d="M175 305l248 216h-324v49h377v-61l-207 -177q23 11 57 11q82 0 127 -46.5t45 -115.5q0 -63 -32.5 -113.5t-89.5 -84t-124 -54t-145 -31.5l-10 48q350 55 350 235q0 51 -34.5 85.5t-96.5 34.5q-63 0 -115 -31z" />
    <glyph glyph-name="four" unicode="4" 
d="M576 140h-129l-22 -22v-118h-52v118l-22 22h-291v58q71 83 149 206.5t120 224.5l51 -16q-81 -192 -264 -427h257v147h52v-147h151v-46z" />
    <glyph glyph-name="five" unicode="5" 
d="M119 -103l-10 48q164 27 255.5 81.5t91.5 152.5q0 46 -33.5 81.5t-95.5 35.5q-82 0 -140 -61h-66l14 335h348v-49h-302l-11 -240q26 28 68.5 45t89.5 17q88 0 133.5 -49t45.5 -115q0 -63 -32.5 -113.5t-89 -83.5t-122.5 -53.5t-144 -31.5z" />
    <glyph glyph-name="six" unicode="6" 
d="M314 389q88 0 148 -57.5t60 -144.5q0 -84 -61.5 -142.5t-149.5 -58.5q-55 0 -103.5 24t-76.5 69q-36 58 -36 138q0 143 99 253.5t274 158.5l15 -48q-257 -65 -322 -278q57 86 153 86zM470 187q0 65 -46 110t-113 45t-113 -45t-46 -110t46 -109.5t113 -44.5t113 44.5
t46 109.5z" />
    <glyph glyph-name="seven" unicode="7" 
d="M151 522l-22 -22v-106h-47v176h464v-55l-300 -620l-45 20l292 607h-342z" />
    <glyph glyph-name="eight" unicode="8" 
d="M307 334q64 0 103.5 31.5t39.5 87.5q0 58 -39 89.5t-104 31.5t-104 -31.5t-39 -89.5q0 -56 39.5 -87.5t103.5 -31.5zM307 35q70 0 115.5 32t45.5 91q0 62 -44 93.5t-117 31.5t-117 -31.5t-44 -93.5q0 -59 45.5 -91t115.5 -32zM307 -13q-91 0 -152.5 46.5t-61.5 124.5
q0 58 36 98t94 50v6q-47 11 -79 48t-32 93q0 76 54.5 122.5t140.5 46.5t140.5 -46.5t54.5 -122.5q0 -56 -32 -93t-79 -48v-6q58 -10 94 -50t36 -98q0 -78 -61.5 -124.5t-152.5 -46.5z" />
    <glyph glyph-name="nine" unicode="9" 
d="M299 181q-88 0 -148 57.5t-60 144.5q0 84 61.5 142.5t149.5 58.5q55 0 103.5 -24t76.5 -68q35 -58 35 -139q0 -155 -104.5 -281t-282.5 -175l-16 47q144 37 228 126.5t112 198.5q-56 -88 -155 -88zM143 383q0 -65 46 -110t113 -45t113 45t46 110t-46 109.5t-113 44.5
t-113 -44.5t-46 -109.5z" />
    <glyph glyph-name="colon" unicode=":" 
d="M239 58q0 29 20 49t48 20q29 0 49 -20.5t20 -48.5t-20 -48.5t-49 -20.5q-28 0 -48 20t-20 49zM239 346q0 29 20 49t48 20q29 0 49 -20.5t20 -48.5t-20 -48.5t-49 -20.5q-28 0 -48 20t-20 49z" />
    <glyph glyph-name="semicolon" unicode=";" 
d="M238 59q0 28 20 48t49 20q28 0 48 -20.5t20 -49.5q0 -24 -20 -52l-126 -180l-31 20l91 152q-22 5 -36.5 21.5t-14.5 40.5zM239 346q0 29 20 49t48 20q29 0 49 -20.5t20 -48.5t-20 -48.5t-49 -20.5q-28 0 -48 20t-20 49z" />
    <glyph glyph-name="less" unicode="&#x3c;" 
d="M110 242v52l380 180v-52l-329 -154l329 -153v-53z" />
    <glyph glyph-name="equal" unicode="=" 
d="M87 175v45h440v-45h-440zM87 322v46h440v-46h-440z" />
    <glyph glyph-name="greater" unicode="&#x3e;" 
d="M504 239l-380 -180v53l329 153l-329 154v52l380 -180v-52z" />
    <glyph glyph-name="question" unicode="?" 
d="M314 183h-56v101q100 24 147.5 54t47.5 88q0 54 -44.5 83.5t-110.5 29.5q-60 0 -101.5 -24.5t-45.5 -55.5q46 -11 46 -46q0 -19 -14.5 -32.5t-36.5 -13.5q-23 0 -40 17.5t-17 45.5q0 66 60 110t149 44t148.5 -42.5t59.5 -115.5q0 -72 -50.5 -111.5t-141.5 -62.5v-69z
M223 53q0 26 18 44.5t45 18.5q26 0 44.5 -18.5t18.5 -44.5q0 -27 -18.5 -45.5t-44.5 -18.5q-27 0 -45 18.5t-18 45.5z" />
    <glyph glyph-name="at" unicode="@" 
d="M457 189q-36 -51 -109 -51q-60 0 -100 37t-40 91q0 55 40 91t100 36q74 0 107 -49v14q0 102 -39.5 158.5t-119.5 56.5q-83 0 -130 -60.5t-47 -168.5v-141q0 -107 49.5 -167t130.5 -60q86 0 157 57l23 -39q-33 -30 -81.5 -47.5t-98.5 -17.5q-106 0 -167 73t-61 201v141
q0 129 59.5 202t165.5 73q103 0 154.5 -69t51.5 -195v-134q0 -40 34 -40q15 0 40 23l19 -34q-32 -34 -68 -34q-25 0 -43.5 14.5t-26.5 38.5zM454 242v47q-32 61 -100 61q-42 0 -68.5 -23.5t-26.5 -60.5t26.5 -61t68.5 -24q66 0 100 61z" />
    <glyph glyph-name="A" unicode="A" 
d="M411 244l-106 275l-106 -275h212zM229 46v-46h-219v46h62l204 524h62l204 -524h62v-46h-223v46h82l18 18l-52 134h-247l-52 -134l17 -18h82z" />
    <glyph glyph-name="B" unicode="B" 
d="M200 274v-228h127q175 0 175 114t-175 114h-127zM315 319q160 0 160 103q0 102 -160 102h-115v-205h115zM421 299q56 -6 94 -45t38 -94q0 -160 -224 -160h-288v46h87l22 22v434l-22 22h-87v46h277q103 0 155.5 -38t52.5 -110q0 -48 -28 -79.5t-77 -43.5z" />
    <glyph glyph-name="C" unicode="C" 
d="M510 124l32 -36q-85 -102 -218 -102q-118 0 -190 85t-72 214t71 214t188 85q51 0 92.5 -22t65.5 -59l11 5v62h46v-188h-37q-24 75 -70.5 113.5t-107.5 38.5q-97 0 -151 -70.5t-54 -178.5q0 -107 55.5 -178t152.5 -71q114 0 186 88z" />
    <glyph glyph-name="D" unicode="D" 
d="M175 46h77q121 0 186 66.5t65 172.5t-65 172.5t-186 66.5h-77v-478zM252 0h-213v46h64l22 23v433l-22 22h-64v46h213q146 0 225.5 -79t79.5 -206t-79.5 -206t-225.5 -79z" />
    <glyph glyph-name="E" unicode="E" 
d="M200 46h275l22 22v112h47v-180h-503v46h87l22 22v434l-22 22h-87v46h495v-176h-47v108l-22 22h-267v-208h139l22 22v65h42v-218h-42v65l-22 22h-139v-226z" />
    <glyph glyph-name="F" unicode="F" 
d="M368 0h-317v46h93l22 22v434l-22 22h-93v46h505v-176h-47v108l-22 22h-271v-208h146l22 22v62h42v-212h-42v62l-22 22h-146v-204l22 -22h130v-46z" />
    <glyph glyph-name="G" unicode="G" 
d="M308 534q-96 0 -150.5 -70.5t-54.5 -178.5t53.5 -178.5t148.5 -70.5q93 0 166 102v69l-19 20h-78v46h207v-46h-42l-20 -21v-206h-48v64l-11 4q-28 -40 -72 -61t-88 -21q-113 0 -182 85t-69 214t71 214t187 85q101 0 153 -81l11 5v62h47v-182h-39q-50 146 -171 146z" />
    <glyph glyph-name="H" unicode="H" 
d="M443 502l-22 22h-60v46h214v-46h-60l-22 -22v-434l22 -22h60v-46h-214v46h60l22 22v206h-272v-206l22 -22h60v-46h-214v46h60l22 22v434l-22 22h-60v46h214v-46h-60l-22 -22v-182h272v182z" />
    <glyph glyph-name="I" unicode="I" 
d="M281 502l-22 22h-155v46h406v-46h-155l-22 -22v-434l22 -22h155v-46h-406v46h155l22 22v434z" />
    <glyph glyph-name="J" unicode="J" 
d="M409 221v281l-22 22h-168v46h340v-46h-76l-22 -22v-286q0 -111 -58 -170.5t-147 -59.5q-83 0 -138.5 50.5t-55.5 118.5q0 29 17.5 48.5t41.5 19.5t39 -14.5t15 -35.5t-16.5 -35.5t-39.5 -12.5q10 -40 46 -66t91 -26q70 0 111.5 45.5t41.5 142.5z" />
    <glyph glyph-name="K" unicode="K" 
d="M253 46v-46h-214v46h60l22 22v434l-22 22h-60v46h214v-46h-60l-22 -22v-266l265 270l-18 18h-54v46h204v-46h-56l-196 -199l205 -279h69v-46h-219v46h59l17 18l-165 226l-111 -112v-110l22 -22h60z" />
    <glyph glyph-name="L" unicode="L" 
d="M48 570h266v-46h-89l-22 -22v-456h275l22 22v138h47v-206h-499v46h83l22 22v434l-22 22h-83v46z" />
    <glyph glyph-name="M" unicode="M" 
d="M334 181h-54l-111 340h-27v-453l22 -22h60v-46h-205v46h53l22 22v434l-22 22h-53v46h184l105 -335l106 335h181v-46h-53l-22 -22v-434l22 -22h53v-46h-205v46h60l22 22v453h-27z" />
    <glyph glyph-name="N" unicode="N" 
d="M500 0h-54l-277 508v-440l22 -22h60v-46h-212v46h60l22 22v434l-22 22h-60v46h154l259 -483v415l-22 22h-60v46h212v-46h-60l-22 -22v-502z" />
    <glyph glyph-name="O" unicode="O" 
d="M562 285q0 -129 -70 -214t-185 -85t-185 85t-70 214t70 214t185 85t185 -85t70 -214zM508 285q0 107 -53.5 178t-147.5 71t-147.5 -71t-53.5 -178t53.5 -178t147.5 -71t147.5 71t53.5 178z" />
    <glyph glyph-name="P" unicode="P" 
d="M206 524v-216h139q171 0 171 108t-171 108h-139zM347 262h-141v-194l22 -22h139v-46h-326v46h93l22 22v434l-22 22h-93v46h306q223 0 223 -154t-223 -154z" />
    <glyph glyph-name="Q" unicode="Q" 
d="M506 -64l-68 87q-57 -37 -131 -37q-115 0 -185 85t-70 214t70 214t185 85t185 -85t70 -214q0 -145 -85 -230l69 -88zM106 285q0 -107 53.5 -178t147.5 -71q55 0 99 27l-75 96l40 31l74 -94q63 71 63 189q0 107 -53.5 178t-147.5 71t-147.5 -71t-53.5 -178z" />
    <glyph glyph-name="R" unicode="R" 
d="M170 524v-216h131q171 0 171 108t-171 108h-131zM260 0h-221v46h59l22 22v434l-22 22h-59v46h264q223 0 223 -154q0 -142 -192 -153l162 -216h97v-47h-162v46l-157 216h-104v-194l22 -22h68v-46z" />
    <glyph glyph-name="S" unicode="S" 
d="M334 33q66 0 108 32.5t42 87.5q0 75 -95 99l-145 36q-77 20 -114.5 51.5t-37.5 93.5q0 68 53 109.5t136 41.5q107 0 167 -85l12 7v64h49v-184h-41q-55 151 -187 151q-60 0 -99 -28t-39 -75q0 -40 27.5 -61t82.5 -34l147 -37q135 -35 135 -147q0 -75 -55.5 -122
t-145.5 -47q-57 0 -109.5 27.5t-78.5 69.5l-12 -7v-76h-48v199h41q28 -82 85 -124t122 -42z" />
    <glyph glyph-name="T" unicode="T" 
d="M52 570h510v-206h-47v138l-22 22h-160v-456l22 -22h117v-46h-330v46h117l22 22v456h-160l-22 -22v-138h-47v206z" />
    <glyph glyph-name="U" unicode="U" 
d="M307 -14q-85 0 -140.5 55.5t-55.5 140.5v320l-22 22h-60v46h214v-46h-60l-22 -22v-317q0 -67 41.5 -109t104.5 -42t104.5 42t41.5 109v317l-22 22h-60v46h214v-46h-60l-22 -22v-320q0 -85 -55.5 -140.5t-140.5 -55.5z" />
    <glyph glyph-name="V" unicode="V" 
d="M338 0h-62l-204 524h-62v46h224v-46h-82l-17 -18l174 -452l174 452l-18 18h-81v46h220v-46h-62z" />
    <glyph glyph-name="W" unicode="W" 
d="M342 430l81 -381h24l54 457l-14 18h-95v46h213v-46h-51l-66 -524h-99l-81 382l-81 -382h-101l-65 524h-52v46h216v-46h-95l-15 -18l55 -457h24l80 381h68z" />
    <glyph glyph-name="X" unicode="X" 
d="M537 46h67v-46h-228v46h72l14 14l-157 200l-159 -200l15 -14h72v-46h-223v46h67l199 249l-180 229h-60v46h224v-46h-75l-14 -14l138 -176l139 176l-14 14h-75v46h219v-46h-60l-181 -225z" />
    <glyph glyph-name="Y" unicode="Y" 
d="M333 214v-146l22 -22h117v-46h-330v46h117l22 22v146l-209 310h-62v46h234v-46h-82l-18 -18l166 -249l164 249l-18 18h-82v46h230v-46h-62z" />
    <glyph glyph-name="Z" unicode="Z" 
d="M124 46h351l22 22v116h49v-184h-479v55l413 469h-327l-22 -22v-112h-48v180h451v-60z" />
    <glyph glyph-name="bracketleft" unicode="[" 
d="M239 604v-697h218v-46h-265v789h265v-46h-218z" />
    <glyph glyph-name="backslash" unicode="\" 
d="M543 -111l-44 -23l-428 745l44 23z" />
    <glyph glyph-name="bracketright" unicode="]" 
d="M375 604h-218v46h265v-789h-265v46h218v697z" />
    <glyph glyph-name="asciicircum" unicode="^" 
d="M292 584h44l170 -242h-58l-134 193l-134 -193h-58z" />
    <glyph glyph-name="underscore" unicode="_" 
d="M145 -125v49h324v-49h-324z" />
    <glyph glyph-name="grave" unicode="`" 
d="M383 523l-16 -12l-115 109q-23 20 -23 41q0 18 11 29.5t28 11.5q30 0 46 -34z" />
    <glyph glyph-name="a" unicode="a" 
d="M96 338q0 47 57.5 73.5t133.5 26.5q79 0 121.5 -40t42.5 -115v-180q0 -70 46 -70q27 0 60 37l26 -33q-42 -51 -92 -51q-37 0 -61.5 25t-27.5 70q-35 -42 -85.5 -68.5t-106.5 -26.5q-60 0 -97.5 30t-37.5 83q0 54 42 84.5t129 46.5l155 36v18q0 111 -119 111
q-72 0 -116 -25q26 -9 26 -38q0 -18 -13.5 -30.5t-34.5 -12.5t-34.5 13.5t-13.5 35.5zM401 129v96l-146 -35q-127 -23 -127 -89q0 -33 25 -51.5t61 -18.5q94 0 187 98z" />
    <glyph glyph-name="b" unicode="b" 
d="M170 269v-114q53 -122 170 -122q72 0 117.5 51.5t45.5 127.5t-45.5 127.5t-117.5 51.5q-117 0 -170 -122zM170 0h-126v46h62l16 16v489l-16 16h-70v46h134v-277q25 46 70 74t103 28q91 0 151.5 -65t60.5 -161t-60.5 -161t-151.5 -65q-58 0 -103 28t-70 74v-88z" />
    <glyph glyph-name="c" unicode="c" 
d="M411 290q0 17 11.5 28.5t27.5 11.5q-7 26 -42 44t-87 18q-77 0 -132.5 -51.5t-55.5 -128.5q0 -75 51 -127t134 -52q99 0 171 69l29 -37q-81 -79 -200 -79q-103 0 -170.5 64.5t-67.5 161.5q0 96 70.5 161t171.5 65q85 0 139 -39.5t54 -98.5q0 -25 -15.5 -41.5t-37.5 -16.5
t-36.5 14t-14.5 34z" />
    <glyph glyph-name="d" unicode="d" 
d="M444 154v115q-54 121 -170 121q-72 0 -117.5 -51t-45.5 -128q0 -76 45.5 -127.5t117.5 -51.5q116 0 170 122zM312 613h180v-551l16 -16h62v-46h-126v88q-25 -47 -70.5 -75t-102.5 -28q-91 0 -151.5 65t-60.5 161t60.5 161t151.5 65q58 0 103 -28t70 -74v216l-16 16h-116
v46z" />
    <glyph glyph-name="e" unicode="e" 
d="M472 243l-1 5q-11 64 -53 104t-108 40q-68 0 -117 -41.5t-60 -107.5h339zM509 65q-79 -79 -196 -79q-101 0 -167 64.5t-66 161.5q0 96 65.5 161t164.5 65q102 0 160.5 -68t58.5 -168h-398q4 -73 54 -121.5t128 -48.5q98 0 169 68z" />
    <glyph glyph-name="f" unicode="f" 
d="M245 406h195v-46h-173l-22 -22v-270l22 -22h174v-46h-377v46h111l22 22v270l-22 22h-111v46h133q0 106 60 163.5t155 57.5q75 0 123 -35.5t48 -89.5q0 -27 -15 -43t-38 -16t-37 12t-14 32q0 18 12.5 30t32.5 12q-23 56 -111 56q-74 0 -121 -45t-47 -134z" />
    <glyph glyph-name="g" unicode="g" 
d="M406 291q0 43 -34 72t-88 29t-88 -29t-34 -72t34 -72.5t88 -29.5t88 29.5t34 72.5zM551 -53q0 -63 -70 -106t-181 -43q-112 0 -181 37.5t-69 102.5q0 58 68 102q-34 25 -34 69q0 28 18 51t47 35q-38 41 -38 96q0 63 48 105t125 42q59 0 101 -25q39 82 116 82
q38 0 65.5 -22t27.5 -56q0 -22 -13.5 -36.5t-33.5 -14.5q-19 0 -32 13t-13 31q0 23 21 34q-11 9 -28 9q-49 0 -78 -65q41 -39 41 -97q0 -63 -48.5 -105t-125.5 -42q-58 0 -103 26q-49 -22 -49 -56q0 -21 14.5 -35t42.5 -14h210q71 0 111.5 -30t40.5 -88zM401 16h-247
q-54 -32 -54 -75q0 -45 55.5 -71t144.5 -26q90 0 145.5 29t55.5 73q0 70 -100 70z" />
    <glyph glyph-name="h" unicode="h" 
d="M184 283v-215l22 -22h68v-46h-229v46h69l22 22v477l-22 22h-69v46h139v-270q22 40 65 67.5t94 27.5q70 0 112.5 -40.5t42.5 -119.5v-210l22 -22h68v-46h-229v46h69l22 22v197q0 126 -109 126q-100 0 -157 -108z" />
    <glyph glyph-name="i" unicode="i" 
d="M349 68l22 -22h163v-46h-427v46h172l22 22v288l-22 22h-172v46h242v-356zM252 591q0 25 16.5 41.5t39.5 16.5q25 0 42 -16.5t17 -41.5q0 -24 -17 -40.5t-42 -16.5q-23 0 -39.5 16.5t-16.5 40.5z" />
    <glyph glyph-name="j" unicode="j" 
d="M73 -47q0 28 16 46.5t39 18.5t37.5 -13.5t14.5 -34.5q0 -18 -14 -31t-35 -13q11 -35 45.5 -57.5t82.5 -22.5q68 0 109.5 45.5t41.5 138.5v326l-22 22h-230v46h300v-399q0 -110 -55.5 -166.5t-143.5 -56.5q-76 0 -131 45.5t-55 105.5zM360 591q0 25 16.5 41.5t39.5 16.5
q25 0 42 -16.5t17 -41.5q0 -24 -17 -40.5t-42 -16.5q-23 0 -39.5 16.5t-16.5 40.5z" />
    <glyph glyph-name="k" unicode="k" 
d="M279 46v-46h-237v46h73l22 22v477l-22 22h-76v46h146v-427l236 178l-7 14h-74v46h222v-46h-52l-194 -142l165 -190h107v-46h-171v46l-140 161l-92 -67v-72l22 -22h72z" />
    <glyph glyph-name="l" unicode="l" 
d="M349 68l22 -22h163v-46h-427v46h172l22 22v477l-22 22h-172v46h242v-545z" />
    <glyph glyph-name="m" unicode="m" 
d="M596 0h-116v316q0 32 -14.5 53t-44.5 21q-57 0 -90 -89v-239l16 -16h46v-46h-109v316q0 32 -14.5 53t-44.5 21q-56 0 -89 -89v-239l16 -16h45v-46h-175v46h51l16 16v300l-16 16h-51v46h114v-69q12 37 37.5 60t60.5 23q38 0 62.5 -21.5t31.5 -60.5q12 36 39.5 59t62.5 23
q45 0 70.5 -28.5t25.5 -83.5v-264l16 -16h54v-46z" />
    <glyph glyph-name="n" unicode="n" 
d="M184 283v-215l22 -22h68v-46h-229v46h69l22 22v288l-22 22h-69v46h139v-81q22 40 65 67.5t94 27.5q70 0 112.5 -40.5t42.5 -119.5v-210l22 -22h68v-46h-229v46h69l22 22v197q0 126 -109 126q-100 0 -157 -108z" />
    <glyph glyph-name="o" unicode="o" 
d="M77 212q0 96 65.5 161t164.5 65t164.5 -65t65.5 -161t-65.5 -161t-164.5 -65t-164.5 65t-65.5 161zM484 212q0 76 -50 127.5t-127 51.5t-127 -51.5t-50 -127.5t50 -127.5t127 -51.5t127 51.5t50 127.5z" />
    <glyph glyph-name="p" unicode="p" 
d="M170 269v-114q53 -122 170 -122q72 0 117.5 51.5t45.5 127.5t-45.5 127.5t-117.5 51.5q-117 0 -170 -122zM170 88v-214l16 -16h116v-46h-258v46h62l16 16v488l-16 16h-62v46h126v-88q25 46 70 74t103 28q91 0 151.5 -65t60.5 -161t-60.5 -161t-151.5 -65q-58 0 -103 28
t-70 74z" />
    <glyph glyph-name="q" unicode="q" 
d="M444 269q-53 122 -170 122q-72 0 -117.5 -51.5t-45.5 -127.5t45.5 -127.5t117.5 -51.5q117 0 170 122v114zM444 88q-25 -46 -70 -74t-103 -28q-91 0 -151.5 65t-60.5 161t60.5 161t151.5 65q58 0 103 -28t70 -74v88h126v-46h-62l-16 -16v-488l16 -16h62v-46h-258v46h116
l16 16v214z" />
    <glyph glyph-name="r" unicode="r" 
d="M441 308q0 19 12 31t30 12q10 0 18 -6q1 7 -2 12q-2 17 -17.5 26.5t-40.5 9.5q-85 0 -205 -150v-175l22 -22h186v-46h-391v46h113l22 22v288l-22 22h-113v46h183v-122q107 136 204 136q56 0 85 -28.5t29 -70.5q0 -34 -18.5 -55t-45.5 -21q-22 0 -35.5 12t-13.5 33z" />
    <glyph glyph-name="s" unicode="s" 
d="M378 180l-141 28q-69 14 -101 40t-32 73q0 52 45 84.5t114 32.5q110 0 166 -71l11 4v53h45v-141h-38q-23 50 -73 81t-106 31q-50 0 -81.5 -20t-31.5 -53q0 -29 22.5 -43t70.5 -24l146 -30q56 -12 84.5 -37.5t28.5 -73.5q0 -58 -44 -93t-122 -35q-60 0 -109 22.5t-77 57.5
l-13 -8v-58h-45v150h42q72 -120 200 -120q55 0 86.5 21.5t31.5 61.5q0 30 -20.5 44.5t-58.5 22.5z" />
    <glyph glyph-name="t" unicode="t" 
d="M169 356l-22 22h-103v46h125v154h50v-154h263v-46h-242l-22 -22v-154q0 -168 144 -168q93 0 156 90l32 -30q-72 -108 -188 -108q-88 0 -140.5 50.5t-52.5 158.5v161z" />
    <glyph glyph-name="u" unicode="u" 
d="M339 424h139v-356l22 -22h68v-46h-138v81q-22 -40 -65 -67.5t-94 -27.5q-71 0 -113.5 40.5t-42.5 119.5v210l-22 22h-68v46h138v-265q0 -126 109 -126q101 0 158 108v215l-22 22h-69v46z" />
    <glyph glyph-name="v" unicode="v" 
d="M373 378v46h210v-46h-56l-195 -378h-50l-195 378h-56v46h214v-46h-78l-14 -17l156 -310l156 310l-14 17h-78z" />
    <glyph glyph-name="w" unicode="w" 
d="M341 316l68 -274h21l59 321l-12 15h-82v46h194v-46h-49l-75 -378h-88l-70 272l-70 -272h-88l-75 378h-49v46h196v-46h-82l-12 -15l59 -321h21l68 274h66z" />
    <glyph glyph-name="x" unicode="x" 
d="M504 378l-167 -160l180 -172h65v-46h-233v46h78l11 14l-132 132l-133 -132l12 -14h77v-46h-230v46h65l178 171l-167 161h-66v46h230v-46h-74l-11 -14l120 -120l120 120l-11 14h-74v46h227v-46h-65z" />
    <glyph glyph-name="y" unicode="y" 
d="M42 -108q0 26 16 43.5t39 17.5q21 0 36 -13t15 -34q0 -17 -12 -29t-31 -13q9 -23 46 -23q35 0 60.5 33.5t73.5 127.5l-195 376h-56v46h214v-46h-78l-14 -17l156 -310l156 310l-14 17h-78v46h210v-46h-56l-205 -397q-51 -99 -87.5 -141t-86.5 -42q-45 0 -77 26t-32 68z
" />
    <glyph glyph-name="z" unicode="z" 
d="M141 45h315l22 22v102h46v-169h-442v53l366 327h-285l-22 -22v-98h-46v164h414v-53z" />
    <glyph glyph-name="braceleft" unicode="{" 
d="M85 229v49h55q95 0 95 70q0 7 -14 78.5t-14 95.5q0 59 38.5 95t101.5 36q59 0 105 -23l-13 -45q-44 21 -89 21q-44 0 -68 -22.5t-24 -63.5q0 -20 14 -90t14 -82q0 -38 -23.5 -61.5t-55.5 -32.5q32 -9 55.5 -33t23.5 -61q0 -12 -14 -82.5t-14 -90.5q0 -41 24 -63.5
t68 -22.5q46 0 89 22l13 -46q-49 -23 -105 -23q-63 0 -101.5 36t-38.5 95q0 24 14 96t14 79q0 69 -95 69h-55z" />
    <glyph glyph-name="bar" unicode="|" 
d="M333 634v-769h-52v769h52z" />
    <glyph glyph-name="braceright" unicode="}" 
d="M529 229h-55q-95 0 -95 -69q0 -7 14 -79t14 -96q0 -59 -38.5 -95t-101.5 -36q-56 0 -105 23l13 46q43 -22 89 -22q44 0 68 22.5t24 63.5q0 20 -14 90.5t-14 82.5q0 37 23.5 61t55.5 33q-32 9 -55.5 32.5t-23.5 61.5q0 12 14 82t14 90q0 41 -24 63.5t-68 22.5
q-46 0 -89 -21l-13 45q46 23 105 23q63 0 101.5 -36t38.5 -95q0 -24 -14 -95.5t-14 -78.5q0 -70 95 -70h55v-49z" />
    <glyph glyph-name="asciitilde" unicode="~" 
d="M443 341h49q0 -54 -27.5 -87t-71.5 -33q-35 0 -90 37t-76 37q-25 0 -40.5 -19.5t-15.5 -50.5h-49q0 54 27.5 86.5t72.5 32.5q34 0 89 -37t77 -37q24 0 39.5 19.5t15.5 51.5z" />
    <glyph glyph-name="uni00A0" unicode="&#xa0;" 
 />
    <glyph glyph-name="exclamdown" unicode="&#xa1;" 
d="M307 484q26 0 44.5 -18.5t18.5 -45.5q0 -26 -18.5 -44.5t-44.5 -18.5t-44.5 18.5t-18.5 44.5q0 27 18.5 45.5t44.5 18.5zM321 280l33 -337q2 -23 -11.5 -38.5t-35.5 -15.5t-35.5 16t-11.5 38l32 337h29z" />
    <glyph glyph-name="cent" unicode="&#xa2;" 
d="M489 102l29 -37q-77 -76 -190 -79v-140h-46v142q-89 12 -145.5 74t-56.5 150q0 85 57.5 147.5t144.5 75.5v149h46v-146q83 -1 135 -41t52 -99q0 -24 -15 -40t-37 -16q-20 0 -34 13.5t-14 33.5q0 17 10.5 28.5t26.5 10.5q-6 26 -40.5 45t-83.5 19v-359q93 4 161 69z
M282 36v352q-65 -13 -107 -61t-42 -115q0 -66 40.5 -115.5t108.5 -60.5z" />
    <glyph glyph-name="sterling" unicode="&#xa3;" 
d="M567 102q0 -60 -32.5 -95.5t-87.5 -35.5q-46 0 -139.5 54t-131.5 54q-34 0 -52.5 -22t-18.5 -57h-50q0 52 25.5 85.5t68.5 41.5v131h-86v46h86v43q0 109 60 173t155 64q74 0 122.5 -44.5t48.5 -101.5q0 -27 -15 -43.5t-38 -16.5t-37 12.5t-14 32.5q0 18 12.5 30t32.5 12
q-11 31 -40 51t-71 20q-73 0 -118.5 -49t-45.5 -140v-43h169v-46h-169v-132q40 -8 123 -56.5t119 -48.5t55.5 22.5t19.5 58.5h49z" />
    <glyph glyph-name="yen" unicode="&#xa5;" 
d="M472 46v-46h-330v46h119l22 22v100h-203v39h203v7l-48 71h-155v40h127l-135 199h-62v46h234v-46h-85l-18 -18l169 -249l167 249l-18 18h-85v46h230v-46h-62l-135 -199h128v-40h-155l-48 -71v-7h203v-39h-203v-100l22 -22h118z" />
    <glyph glyph-name="brokenbar" unicode="&#xa6;" 
d="M281 203h52v-338h-52v338zM333 634v-351h-52v351h52z" />
    <glyph glyph-name="section" unicode="&#xa7;" 
d="M220 188l149 -107q49 -36 68 -58q32 34 32 71q0 22 -12 42t-25 31t-37 29l-150 107q-46 32 -68 58q-31 -33 -31 -71q0 -32 19 -54t55 -48zM301 -200q-91 0 -142.5 49.5t-51.5 114.5q0 24 14.5 40t35.5 16q20 0 34 -13t14 -32q0 -16 -11.5 -28t-26.5 -11q6 -33 39.5 -61.5
t94.5 -28.5q51 0 84 25t33 66q0 33 -16 52.5t-53 46.5l-143 102q-56 40 -82 71t-26 79q0 62 56 113q-7 20 -7 48q0 58 46.5 96.5t120.5 38.5q90 0 142 -49.5t52 -114.5q0 -24 -15 -40t-36 -16q-20 0 -34 13t-14 32q0 16 11.5 28t26.5 11q-6 33 -39 61.5t-94 28.5
q-52 0 -85 -25t-33 -66q0 -23 10.5 -41.5t22 -28.5t37.5 -29l142 -101q57 -40 82.5 -71.5t25.5 -79.5q0 -62 -56 -113q7 -20 7 -48q0 -58 -46.5 -96.5t-119.5 -38.5z" />
    <glyph glyph-name="dieresis" unicode="&#xa8;" 
d="M411 536q-24 0 -40.5 16.5t-16.5 39.5q0 24 16.5 40.5t40.5 16.5t40.5 -16.5t16.5 -40.5q0 -23 -16.5 -39.5t-40.5 -16.5zM203 537q-23 0 -40 16.5t-17 39.5t17 39.5t40 16.5q24 0 40.5 -16.5t16.5 -39.5t-16.5 -39.5t-40.5 -16.5z" />
    <glyph glyph-name="copyright" unicode="&#xa9;" 
d="M407 207l25 -26q-50 -56 -124 -56q-67 0 -106.5 44.5t-39.5 112.5t39.5 112t105.5 44q53 0 82 -36l7 2v27h32v-103h-28q-26 75 -92 75q-50 0 -77.5 -34.5t-27.5 -86.5t28 -86t78 -34q59 0 98 45zM27 284q0 115 82 196.5t198 81.5t198 -81.5t82 -196.5t-82 -196.5
t-198 -81.5t-198 81.5t-82 196.5zM61 284q0 -100 72.5 -172t173.5 -72t174 72t73 172t-73 173t-174 73t-173.5 -73t-72.5 -173z" />
    <glyph glyph-name="ordfeminine" unicode="&#xaa;" 
d="M149 551q0 35 42.5 55t98.5 20q59 0 91 -29t32 -81v-126q0 -42 29 -42q17 0 41 25l22 -30q-34 -38 -71 -38q-26 0 -44 17t-21 48q-59 -65 -137 -65q-44 0 -70.5 21t-26.5 60q0 36 27.5 56t83.5 32l122 31v12q0 72 -85 72q-49 0 -79 -15q19 -5 19 -28q0 -14 -10 -23
t-26 -9t-27 10t-11 27zM368 410v62l-112 -31q-74 -14 -74 -54q0 -21 15.5 -32t39.5 -11q63 0 131 66zM237 59q0 29 20.5 50t49.5 21t49.5 -21t20.5 -50t-20.5 -49.5t-49.5 -20.5t-49.5 20.5t-20.5 49.5z" />
    <glyph glyph-name="guillemotleft" unicode="&#xab;" 
d="M487 81l-40 -32l-140 173l140 173l40 -32l-114 -141zM278 81l-40 -32l-140 173l140 173l40 -32l-114 -141z" />
    <glyph glyph-name="registered" unicode="&#xae;" 
d="M27 284q0 115 82 196.5t198 81.5t198 -81.5t82 -196.5t-82 -196.5t-198 -81.5t-198 81.5t-82 196.5zM61 284q0 -100 72.5 -172t173.5 -72t174 72t73 172t-73 173t-174 73t-173.5 -73t-72.5 -173zM243 401v-102h63q83 0 83 50q0 52 -83 52h-63zM289 130h-122v32h28l14 14
v212l-14 14h-28v31h140q120 0 120 -84q0 -73 -95 -82l81 -104h38v-33h-82v32l-78 104h-48v-90l14 -14h32v-32z" />
    <glyph glyph-name="macron" unicode="&#xaf;" 
d="M157 586h300v-48h-300v48z" />
    <glyph glyph-name="degree" unicode="&#xb0;" 
d="M447 486q0 -59 -40.5 -100t-99.5 -41q-58 0 -99 41t-41 100t41 100.5t99 41.5q59 0 99.5 -41.5t40.5 -100.5zM401 486q0 40 -27.5 68.5t-66.5 28.5t-66.5 -28.5t-27.5 -68.5t27 -68t67 -28t67 28t27 68z" />
    <glyph glyph-name="plusminus" unicode="&#xb1;" 
d="M329 317v-165h-45v165h-195v46h195v164h45v-164h196v-46h-196zM89 43v46h436v-46h-436z" />
    <glyph glyph-name="twosuperior" unicode="&#xb2;" 
d="M184 500l-35 26q27 43 69.5 70t91.5 27q59 0 92 -31.5t33 -81.5q0 -28 -18 -56.5t-34.5 -43t-51.5 -41.5l-131 -106h192l20 17v61h41v-118h-304v52l152 125q34 28 47 39.5t26 32t13 40.5q0 30 -21 48.5t-56 18.5q-72 0 -126 -79z" />
    <glyph glyph-name="threesuperior" unicode="&#xb3;" 
d="M219 431l166 141h-214v41h260v-53l-128 -104l28 2q54 0 84.5 -31t30.5 -78q0 -56 -40.5 -99t-98 -65t-130.5 -32l-9 42q233 38 233 154q0 33 -22 54.5t-60 21.5q-41 0 -78 -24z" />
    <glyph glyph-name="acute" unicode="&#xb4;" 
d="M230 523l70 145q14 34 45 34q17 0 28.5 -11.5t11.5 -29.5q0 -21 -24 -41l-115 -109z" />
    <glyph glyph-name="paragraph" unicode="&#xb6;" 
d="M381 16v240q-97 0 -167 40t-70 117t70.5 117t167.5 40h151v-46h-82l-22 -22v-491q0 -102 -47.5 -155.5t-131.5 -53.5q-75 0 -121 44.5t-46 106.5q0 28 16 46.5t39 18.5t37.5 -13.5t14.5 -34.5q0 -18 -13.5 -31t-34.5 -13q7 -34 34.5 -57t73.5 -23q131 0 131 170z" />
    <glyph glyph-name="periodcentered" unicode="&#xb7;" 
d="M239 288q0 29 20 49t48 20q29 0 49 -20.5t20 -48.5t-20 -48.5t-49 -20.5q-28 0 -48 20t-20 49z" />
    <glyph glyph-name="cedilla" unicode="&#xb8;" 
d="M371 -139q0 -42 -32 -65t-76 -23q-46 0 -84 20t-54 60l37 23q27 -65 101 -65q65 0 65 50q0 24 -23 38t-68 12l-34 23l31 70h39l-24 -56q57 0 89.5 -22t32.5 -65z" />
    <glyph glyph-name="onesuperior" unicode="&#xb9;" 
d="M148 526l127 87h58v-333l18 -17h119v-40h-325v40h125l18 17v289l-116 -79z" />
    <glyph glyph-name="ordmasculine" unicode="&#xba;" 
d="M188 466q0 -51 33.5 -84.5t85.5 -33.5t85.5 33.5t33.5 84.5t-33.5 84.5t-85.5 33.5t-85.5 -33.5t-33.5 -84.5zM237 59q0 29 20.5 50t49.5 21t49.5 -21t20.5 -50t-20.5 -49.5t-49.5 -20.5t-49.5 20.5t-20.5 49.5zM141 466q0 68 47.5 114t118.5 46t118.5 -46t47.5 -114
t-47.5 -114.5t-118.5 -46.5t-118.5 46.5t-47.5 114.5z" />
    <glyph glyph-name="guillemotright" unicode="&#xbb;" 
d="M127 81l114 141l-114 141l40 32l140 -173l-140 -173zM336 81l114 141l-114 141l40 32l140 -173l-140 -173z" />
    <glyph glyph-name="onequarter" unicode="&#xbc;" 
d="M596 -34h-69v-66h-40v66h-153v49q81 87 131 203l41 -13q-41 -94 -131 -203h112v68h40v-68h69v-36zM344 258l-14 15l186 204l37 -38zM268 212l14 -15l-186 -204l-37 38zM43 555l91 62h52v-250h89v-36h-223v36h93v210l-81 -55z" />
    <glyph glyph-name="onehalf" unicode="&#xbd;" 
d="M43 555l91 62h52v-250h89v-36h-223v36h93v210l-81 -55zM379 96l-30 24q51 73 124 73q44 0 68 -23t24 -60q0 -30 -20.5 -53.5t-57.5 -50.5l-93 -70h191v-36h-235v46l108 86q24 18 35 27.5t19.5 23t8.5 27.5q0 20 -13 32t-35 12q-52 0 -94 -58zM268 212l14 -15l-186 -204
l-37 38zM344 258l-14 15l186 204l37 -38z" />
    <glyph glyph-name="threequarters" unicode="&#xbe;" 
d="M92 475l119 100h-153v37h193v-48l-78 -66q44 -1 66.5 -23t22.5 -58q0 -60 -57 -95.5t-141 -46.5l-7 36q165 29 165 106q0 23 -14.5 37t-39.5 14q-29 0 -58 -19zM268 212l14 -15l-186 -204l-37 38zM344 258l-14 15l186 204l37 -38zM596 -34h-69v-66h-40v66h-153v49
q81 87 131 203l41 -13q-41 -94 -131 -203h112v68h40v-68h69v-36z" />
    <glyph glyph-name="questiondown" unicode="&#xbf;" 
d="M300 287h56v-101q-100 -24 -147.5 -54t-47.5 -88q0 -54 44.5 -83.5t110.5 -29.5q60 0 101.5 24.5t45.5 55.5q-46 11 -46 46q0 19 14.5 32.5t36.5 13.5q23 0 40 -17.5t17 -45.5q0 -66 -60 -110t-149 -44t-148.5 42.5t-59.5 115.5q0 72 50.5 111.5t141.5 62.5v69zM391 417
q0 -26 -18 -44.5t-45 -18.5q-26 0 -44.5 18.5t-18.5 44.5q0 27 18.5 45.5t44.5 18.5q27 0 45 -18.5t18 -45.5z" />
    <glyph glyph-name="Agrave" unicode="&#xc0;" 
d="M411 244l-106 275l-106 -275h212zM229 46v-46h-219v46h62l204 524h62l204 -524h62v-46h-223v46h82l18 18l-52 134h-247l-52 -134l17 -18h82zM338 660l-16 -12l-115 109q-23 20 -23 41q0 18 11 29.5t28 11.5q30 0 46 -34z" />
    <glyph glyph-name="Aacute" unicode="&#xc1;" 
d="M411 244l-106 275l-106 -275h212zM229 46v-46h-219v46h62l204 524h62l204 -524h62v-46h-223v46h82l18 18l-52 134h-247l-52 -134l17 -18h82zM276 660l70 145q14 34 45 34q17 0 28.5 -11.5t11.5 -29.5q0 -22 -24 -41l-115 -109z" />
    <glyph glyph-name="Acircumflex" unicode="&#xc2;" 
d="M411 244l-106 275l-106 -275h212zM229 46v-46h-219v46h62l204 524h62l204 -524h62v-46h-223v46h82l18 18l-52 134h-247l-52 -134l17 -18h82zM307 830q24 0 43 -27l99 -143l-20 -15l-122 113l-121 -113l-21 15l99 143q19 27 43 27z" />
    <glyph glyph-name="Atilde" unicode="&#xc3;" 
d="M411 244l-106 275l-106 -275h212zM229 46v-46h-219v46h62l204 524h62l204 -524h62v-46h-223v46h82l18 18l-52 134h-247l-52 -134l17 -18h82zM435 772h46q0 -53 -27 -86.5t-70 -33.5q-28 0 -55 19t-50.5 37.5t-42.5 18.5q-24 0 -41 -20t-17 -52h-45q0 53 27 86t71 33
q34 0 79.5 -37.5t68.5 -37.5q24 0 40 20t16 53z" />
    <glyph glyph-name="Adieresis" unicode="&#xc4;" 
d="M411 244l-106 275l-106 -275h212zM229 46v-46h-219v46h62l204 524h62l204 -524h62v-46h-223v46h82l18 18l-52 134h-247l-52 -134l17 -18h82zM411 659q-24 0 -40.5 16.5t-16.5 39.5q0 24 16.5 40.5t40.5 16.5t40.5 -16.5t16.5 -40.5q0 -23 -16.5 -39.5t-40.5 -16.5z
M203 660q-23 0 -40 16.5t-17 39.5t17 39.5t40 16.5q24 0 40.5 -16.5t16.5 -39.5t-16.5 -39.5t-40.5 -16.5z" />
    <glyph glyph-name="Aring" unicode="&#xc5;" 
d="M411 244l-106 275l-106 -275h212zM229 46v-46h-219v46h62l204 524h62l204 -524h62v-46h-223v46h82l18 18l-52 134h-247l-52 -134l17 -18h82zM370 746q0 29 -17.5 47t-45.5 18t-45.5 -18t-17.5 -47t17.5 -47t45.5 -18t45.5 18t17.5 47zM415 746q0 -46 -31 -77t-77 -31
t-77 31t-31 77t31 77t77 31t77 -31t31 -77z" />
    <glyph glyph-name="AE" unicode="&#xc6;" 
d="M311 244v280h-26l-133 -280h159zM162 46v-46h-151v48l217 458l-16 18h-68v46h437v-176h-47v108l-22 22h-152v-208h141v-44h-141v-226h159l22 22v112h48v-180h-346v46h46l22 22v130h-181l-64 -134l18 -18h78z" />
    <glyph glyph-name="Ccedilla" unicode="&#xc7;" 
d="M320 -227q-46 0 -84 20t-54 60l37 23q27 -65 101 -65q65 0 65 50q0 24 -23 38t-68 12l-34 23l24 55q-101 15 -161.5 97t-60.5 199q0 129 71 214t188 85q51 0 92.5 -22t65.5 -59l11 5v62h46v-188h-37q-24 75 -70.5 113.5t-107.5 38.5q-97 0 -151 -70.5t-54 -178.5
q0 -107 55.5 -178t152.5 -71q114 0 186 88l32 -36q-85 -102 -218 -102h-2l-16 -38q57 0 89.5 -22t32.5 -65q0 -42 -32 -65t-76 -23z" />
    <glyph glyph-name="Egrave" unicode="&#xc8;" 
d="M350 660l-16 -12l-115 109q-23 20 -23 41q0 18 11 29.5t28 11.5q30 0 46 -34zM200 46h275l22 22v112h47v-180h-503v46h87l22 22v434l-22 22h-87v46h495v-176h-47v108l-22 22h-267v-208h139l22 22v65h42v-218h-42v65l-22 22h-139v-226z" />
    <glyph glyph-name="Eacute" unicode="&#xc9;" 
d="M280 660l70 145q14 34 45 34q17 0 28.5 -11.5t11.5 -29.5q0 -22 -24 -41l-115 -109zM200 46h275l22 22v112h47v-180h-503v46h87l22 22v434l-22 22h-87v46h495v-176h-47v108l-22 22h-267v-208h139l22 22v65h42v-218h-42v65l-22 22h-139v-226z" />
    <glyph glyph-name="Ecircumflex" unicode="&#xca;" 
d="M200 46h275l22 22v112h47v-180h-503v46h87l22 22v434l-22 22h-87v46h495v-176h-47v108l-22 22h-267v-208h139l22 22v65h42v-218h-42v65l-22 22h-139v-226zM319 830q24 0 43 -27l99 -143l-20 -15l-122 113l-121 -113l-21 15l99 143q19 27 43 27z" />
    <glyph glyph-name="Edieresis" unicode="&#xcb;" 
d="M423 659q-24 0 -40.5 16.5t-16.5 39.5q0 24 16.5 40.5t40.5 16.5t40.5 -16.5t16.5 -40.5q0 -23 -16.5 -39.5t-40.5 -16.5zM215 660q-23 0 -40 16.5t-17 39.5t17 39.5t40 16.5q24 0 40.5 -16.5t16.5 -39.5t-16.5 -39.5t-40.5 -16.5zM200 46h275l22 22v112h47v-180h-503v46
h87l22 22v434l-22 22h-87v46h495v-176h-47v108l-22 22h-267v-208h139l22 22v65h42v-218h-42v65l-22 22h-139v-226z" />
    <glyph glyph-name="Igrave" unicode="&#xcc;" 
d="M281 502l-22 22h-155v46h406v-46h-155l-22 -22v-434l22 -22h155v-46h-406v46h155l22 22v434zM338 660l-16 -12l-115 109q-23 20 -23 41q0 18 11 29.5t28 11.5q30 0 46 -34z" />
    <glyph glyph-name="Iacute" unicode="&#xcd;" 
d="M281 502l-22 22h-155v46h406v-46h-155l-22 -22v-434l22 -22h155v-46h-406v46h155l22 22v434zM275 660l70 145q14 34 45 34q17 0 28.5 -11.5t11.5 -29.5q0 -22 -24 -41l-115 -109z" />
    <glyph glyph-name="Icircumflex" unicode="&#xce;" 
d="M281 502l-22 22h-155v46h406v-46h-155l-22 -22v-434l22 -22h155v-46h-406v46h155l22 22v434zM307 830q24 0 43 -27l99 -143l-20 -15l-122 113l-121 -113l-21 15l99 143q19 27 43 27z" />
    <glyph glyph-name="Idieresis" unicode="&#xcf;" 
d="M281 502l-22 22h-155v46h406v-46h-155l-22 -22v-434l22 -22h155v-46h-406v46h155l22 22v434zM411 659q-24 0 -40.5 16.5t-16.5 39.5q0 24 16.5 40.5t40.5 16.5t40.5 -16.5t16.5 -40.5q0 -23 -16.5 -39.5t-40.5 -16.5zM203 660q-23 0 -40 16.5t-17 39.5t17 39.5t40 16.5
q24 0 40.5 -16.5t16.5 -39.5t-16.5 -39.5t-40.5 -16.5z" />
    <glyph glyph-name="Eth" unicode="&#xd0;" 
d="M252 0h-213v46h64l22 23v208h-87v46h87v179l-22 22h-64v46h213q146 0 225.5 -79t79.5 -206t-79.5 -206t-225.5 -79zM175 46h77q121 0 186 66.5t65 172.5t-65 172.5t-186 66.5h-77v-201h142v-46h-142v-231z" />
    <glyph glyph-name="Ntilde" unicode="&#xd1;" 
d="M439 772h46q0 -53 -27 -86.5t-70 -33.5q-28 0 -55 19t-50.5 37.5t-42.5 18.5q-24 0 -41 -20t-17 -52h-45q0 53 27 86t71 33q34 0 79.5 -37.5t68.5 -37.5q24 0 40 20t16 53zM500 0h-54l-277 508v-440l22 -22h60v-46h-212v46h60l22 22v434l-22 22h-60v46h154l259 -483v415
l-22 22h-60v46h212v-46h-60l-22 -22v-502z" />
    <glyph glyph-name="Ograve" unicode="&#xd2;" 
d="M338 660l-16 -12l-115 109q-23 20 -23 41q0 18 11 29.5t28 11.5q30 0 46 -34zM562 285q0 -129 -70 -214t-185 -85t-185 85t-70 214t70 214t185 85t185 -85t70 -214zM508 285q0 107 -53.5 178t-147.5 71t-147.5 -71t-53.5 -178t53.5 -178t147.5 -71t147.5 71t53.5 178z
" />
    <glyph glyph-name="Oacute" unicode="&#xd3;" 
d="M276 660l70 145q14 34 45 34q17 0 28.5 -11.5t11.5 -29.5q0 -22 -24 -41l-115 -109zM562 285q0 -129 -70 -214t-185 -85t-185 85t-70 214t70 214t185 85t185 -85t70 -214zM508 285q0 107 -53.5 178t-147.5 71t-147.5 -71t-53.5 -178t53.5 -178t147.5 -71t147.5 71
t53.5 178z" />
    <glyph glyph-name="Ocircumflex" unicode="&#xd4;" 
d="M562 285q0 -129 -70 -214t-185 -85t-185 85t-70 214t70 214t185 85t185 -85t70 -214zM508 285q0 107 -53.5 178t-147.5 71t-147.5 -71t-53.5 -178t53.5 -178t147.5 -71t147.5 71t53.5 178zM307 830q24 0 43 -27l99 -143l-20 -15l-122 113l-121 -113l-21 15l99 143
q19 27 43 27z" />
    <glyph glyph-name="Otilde" unicode="&#xd5;" 
d="M435 772h46q0 -53 -27 -86.5t-70 -33.5q-28 0 -55 19t-50.5 37.5t-42.5 18.5q-24 0 -41 -20t-17 -52h-45q0 53 27 86t71 33q34 0 79.5 -37.5t68.5 -37.5q24 0 40 20t16 53zM562 285q0 -129 -70 -214t-185 -85t-185 85t-70 214t70 214t185 85t185 -85t70 -214zM508 285
q0 107 -53.5 178t-147.5 71t-147.5 -71t-53.5 -178t53.5 -178t147.5 -71t147.5 71t53.5 178z" />
    <glyph glyph-name="Odieresis" unicode="&#xd6;" 
d="M411 659q-24 0 -40.5 16.5t-16.5 39.5q0 24 16.5 40.5t40.5 16.5t40.5 -16.5t16.5 -40.5q0 -23 -16.5 -39.5t-40.5 -16.5zM203 660q-23 0 -40 16.5t-17 39.5t17 39.5t40 16.5q24 0 40.5 -16.5t16.5 -39.5t-16.5 -39.5t-40.5 -16.5zM562 285q0 -129 -70 -214t-185 -85
t-185 85t-70 214t70 214t185 85t185 -85t70 -214zM508 285q0 107 -53.5 178t-147.5 71t-147.5 -71t-53.5 -178t53.5 -178t147.5 -71t147.5 71t53.5 178z" />
    <glyph glyph-name="multiply" unicode="&#xd7;" 
d="M276 271l-156 156l33 32l154 -156l154 156l33 -32l-156 -156l156 -156l-33 -32l-154 156l-154 -156l-33 32z" />
    <glyph glyph-name="Oslash" unicode="&#xd8;" 
d="M307 534q-94 0 -147.5 -71t-53.5 -178q0 -111 56 -181l273 381q-52 49 -128 49zM307 36q94 0 147.5 71t53.5 178q0 98 -44 165l-271 -377q50 -37 114 -37zM562 285q0 -129 -70 -214t-185 -85q-81 0 -143 46l-62 -86l-36 25l65 90q-79 85 -79 224q0 129 70 214t185 85
q91 0 158 -57l55 77l36 -25l-61 -84q67 -84 67 -210z" />
    <glyph glyph-name="Ugrave" unicode="&#xd9;" 
d="M338 660l-16 -12l-115 109q-23 20 -23 41q0 18 11 29.5t28 11.5q30 0 46 -34zM307 -14q-85 0 -140.5 55.5t-55.5 140.5v320l-22 22h-60v46h214v-46h-60l-22 -22v-317q0 -67 41.5 -109t104.5 -42t104.5 42t41.5 109v317l-22 22h-60v46h214v-46h-60l-22 -22v-320
q0 -85 -55.5 -140.5t-140.5 -55.5z" />
    <glyph glyph-name="Uacute" unicode="&#xda;" 
d="M276 660l70 145q14 34 45 34q17 0 28.5 -11.5t11.5 -29.5q0 -22 -24 -41l-115 -109zM307 -14q-85 0 -140.5 55.5t-55.5 140.5v320l-22 22h-60v46h214v-46h-60l-22 -22v-317q0 -67 41.5 -109t104.5 -42t104.5 42t41.5 109v317l-22 22h-60v46h214v-46h-60l-22 -22v-320
q0 -85 -55.5 -140.5t-140.5 -55.5z" />
    <glyph glyph-name="Ucircumflex" unicode="&#xdb;" 
d="M307 -14q-85 0 -140.5 55.5t-55.5 140.5v320l-22 22h-60v46h214v-46h-60l-22 -22v-317q0 -67 41.5 -109t104.5 -42t104.5 42t41.5 109v317l-22 22h-60v46h214v-46h-60l-22 -22v-320q0 -85 -55.5 -140.5t-140.5 -55.5zM307 830q24 0 43 -27l99 -143l-20 -15l-122 113
l-121 -113l-21 15l99 143q19 27 43 27z" />
    <glyph glyph-name="Udieresis" unicode="&#xdc;" 
d="M411 659q-24 0 -40.5 16.5t-16.5 39.5q0 24 16.5 40.5t40.5 16.5t40.5 -16.5t16.5 -40.5q0 -23 -16.5 -39.5t-40.5 -16.5zM203 660q-23 0 -40 16.5t-17 39.5t17 39.5t40 16.5q24 0 40.5 -16.5t16.5 -39.5t-16.5 -39.5t-40.5 -16.5zM307 -14q-85 0 -140.5 55.5
t-55.5 140.5v320l-22 22h-60v46h214v-46h-60l-22 -22v-317q0 -67 41.5 -109t104.5 -42t104.5 42t41.5 109v317l-22 22h-60v46h214v-46h-60l-22 -22v-320q0 -85 -55.5 -140.5t-140.5 -55.5z" />
    <glyph glyph-name="Yacute" unicode="&#xdd;" 
d="M333 214v-146l22 -22h117v-46h-330v46h117l22 22v146l-209 310h-62v46h234v-46h-82l-18 -18l166 -249l164 249l-18 18h-82v46h230v-46h-62zM276 660l70 145q14 34 45 34q17 0 28.5 -11.5t11.5 -29.5q0 -22 -24 -41l-115 -109z" />
    <glyph glyph-name="Thorn" unicode="&#xde;" 
d="M206 393v-205h138q89 0 130.5 25t41.5 77q0 53 -41.5 78t-130.5 25h-138zM205 508v-69h141q224 0 224 -149q0 -148 -224 -148h-140v-80l16 -16h145v-46h-326v46h93l22 22v434l-22 22h-93v46h280v-46h-100z" />
    <glyph glyph-name="germandbls" unicode="&#xdf;" 
d="M125 406q2 96 51 158.5t139 62.5q71 0 114 -36t43 -98q0 -43 -24.5 -76t-66.5 -40q83 -11 136.5 -65t53.5 -138q0 -83 -49.5 -135.5t-131.5 -52.5q-63 0 -102 34t-39 86q0 34 18 55t45 21q20 0 33.5 -11.5t13.5 -28.5q0 -40 -43 -40q-6 0 -20 2q1 -35 27 -55.5t65 -20.5
q64 0 98.5 41t34.5 105q0 84 -63 129t-162 45v47q124 0 124 97q0 40 -28.5 65t-76.5 25q-69 0 -105.5 -51t-36.5 -128v-403h-145v46h78l19 19v276l-19 19h-78v46h97z" />
    <glyph glyph-name="agrave" unicode="&#xe0;" 
d="M96 338q0 47 57.5 73.5t133.5 26.5q79 0 121.5 -40t42.5 -115v-180q0 -70 46 -70q27 0 60 37l26 -33q-42 -51 -92 -51q-37 0 -61.5 25t-27.5 70q-35 -42 -85.5 -68.5t-106.5 -26.5q-60 0 -97.5 30t-37.5 83q0 54 42 84.5t129 46.5l155 36v18q0 111 -119 111
q-72 0 -116 -25q26 -9 26 -38q0 -18 -13.5 -30.5t-34.5 -12.5t-34.5 13.5t-13.5 35.5zM401 129v96l-146 -35q-127 -23 -127 -89q0 -33 25 -51.5t61 -18.5q94 0 187 98zM319 523l-16 -12l-115 109q-23 20 -23 41q0 18 11 29.5t28 11.5q30 0 46 -34z" />
    <glyph glyph-name="aacute" unicode="&#xe1;" 
d="M96 338q0 47 57.5 73.5t133.5 26.5q79 0 121.5 -40t42.5 -115v-180q0 -70 46 -70q27 0 60 37l26 -33q-42 -51 -92 -51q-37 0 -61.5 25t-27.5 70q-35 -42 -85.5 -68.5t-106.5 -26.5q-60 0 -97.5 30t-37.5 83q0 54 42 84.5t129 46.5l155 36v18q0 111 -119 111
q-72 0 -116 -25q26 -9 26 -38q0 -18 -13.5 -30.5t-34.5 -12.5t-34.5 13.5t-13.5 35.5zM401 129v96l-146 -35q-127 -23 -127 -89q0 -33 25 -51.5t61 -18.5q94 0 187 98zM249 523l70 145q14 34 45 34q17 0 28.5 -11.5t11.5 -29.5q0 -21 -24 -41l-115 -109z" />
    <glyph glyph-name="acircumflex" unicode="&#xe2;" 
d="M96 338q0 47 57.5 73.5t133.5 26.5q79 0 121.5 -40t42.5 -115v-180q0 -70 46 -70q27 0 60 37l26 -33q-42 -51 -92 -51q-37 0 -61.5 25t-27.5 70q-35 -42 -85.5 -68.5t-106.5 -26.5q-60 0 -97.5 30t-37.5 83q0 54 42 84.5t129 46.5l155 36v18q0 111 -119 111
q-72 0 -116 -25q26 -9 26 -38q0 -18 -13.5 -30.5t-34.5 -12.5t-34.5 13.5t-13.5 35.5zM401 129v96l-146 -35q-127 -23 -127 -89q0 -33 25 -51.5t61 -18.5q94 0 187 98zM283 696q24 0 43 -27l99 -142l-20 -16l-122 113l-121 -113l-21 16l99 142q19 27 43 27z" />
    <glyph glyph-name="atilde" unicode="&#xe3;" 
d="M96 338q0 47 57.5 73.5t133.5 26.5q79 0 121.5 -40t42.5 -115v-180q0 -70 46 -70q27 0 60 37l26 -33q-42 -51 -92 -51q-37 0 -61.5 25t-27.5 70q-35 -42 -85.5 -68.5t-106.5 -26.5q-60 0 -97.5 30t-37.5 83q0 54 42 84.5t129 46.5l155 36v18q0 111 -119 111
q-72 0 -116 -25q26 -9 26 -38q0 -18 -13.5 -30.5t-34.5 -12.5t-34.5 13.5t-13.5 35.5zM401 129v96l-146 -35q-127 -23 -127 -89q0 -33 25 -51.5t61 -18.5q94 0 187 98zM412 642h46q0 -53 -27 -86.5t-70 -33.5q-28 0 -55 19t-50.5 37.5t-42.5 18.5q-24 0 -41 -20t-17 -52h-45
q0 53 27 86t71 33q34 0 79.5 -37.5t68.5 -37.5q24 0 40 20t16 53z" />
    <glyph glyph-name="adieresis" unicode="&#xe4;" 
d="M96 338q0 47 57.5 73.5t133.5 26.5q79 0 121.5 -40t42.5 -115v-180q0 -70 46 -70q27 0 60 37l26 -33q-42 -51 -92 -51q-37 0 -61.5 25t-27.5 70q-35 -42 -85.5 -68.5t-106.5 -26.5q-60 0 -97.5 30t-37.5 83q0 54 42 84.5t129 46.5l155 36v18q0 111 -119 111
q-72 0 -116 -25q26 -9 26 -38q0 -18 -13.5 -30.5t-34.5 -12.5t-34.5 13.5t-13.5 35.5zM401 129v96l-146 -35q-127 -23 -127 -89q0 -33 25 -51.5t61 -18.5q94 0 187 98zM387 536q-24 0 -40.5 16.5t-16.5 39.5q0 24 16.5 40.5t40.5 16.5t40.5 -16.5t16.5 -40.5
q0 -23 -16.5 -39.5t-40.5 -16.5zM179 537q-23 0 -40 16.5t-17 39.5t17 39.5t40 16.5q24 0 40.5 -16.5t16.5 -39.5t-16.5 -39.5t-40.5 -16.5z" />
    <glyph glyph-name="aring" unicode="&#xe5;" 
d="M96 338q0 47 57.5 73.5t133.5 26.5q79 0 121.5 -40t42.5 -115v-180q0 -70 46 -70q27 0 60 37l26 -33q-42 -51 -92 -51q-37 0 -61.5 25t-27.5 70q-35 -42 -85.5 -68.5t-106.5 -26.5q-60 0 -97.5 30t-37.5 83q0 54 42 84.5t129 46.5l155 36v18q0 111 -119 111
q-72 0 -116 -25q26 -9 26 -38q0 -18 -13.5 -30.5t-34.5 -12.5t-34.5 13.5t-13.5 35.5zM401 129v96l-146 -35q-127 -23 -127 -89q0 -33 25 -51.5t61 -18.5q94 0 187 98zM348 609q0 30 -18 48.5t-47 18.5t-47 -18.5t-18 -48.5q0 -29 18 -48t47 -19t47 19t18 48zM391 609
q0 -46 -31 -77t-77 -31t-77 31t-31 77t31 77t77 31t77 -31t31 -77z" />
    <glyph glyph-name="ae" unicode="&#xe6;" 
d="M583 65q-60 -79 -144 -79q-75 0 -123 65q-72 -65 -154 -65q-59 0 -97 32.5t-38 91.5q0 126 223 128h17q4 54 27 101q-25 56 -92 56q-46 0 -87 -24q11 -3 19 -13.5t8 -23.5q0 -18 -13 -30t-33 -12q-21 0 -33.5 13t-12.5 35q0 41 46.5 69.5t105.5 28.5q80 0 118 -58
q48 58 113 58q72 0 113 -68t41 -169l-274 -5q4 -70 38.5 -116.5t87.5 -46.5q63 0 115 64zM535 242v6q-6 63 -31.5 103t-70.5 40q-48 0 -80.5 -42.5t-38.5 -109.5zM266 195h-22q-164 -2 -164 -84q0 -38 25 -59t61 -21q66 0 129 52q-26 52 -29 112z" />
    <glyph glyph-name="ccedilla" unicode="&#xe7;" 
d="M315 -227q-46 0 -84 20t-54 60l37 23q27 -65 101 -65q65 0 65 50q0 24 -23 38t-68 12l-34 23l24 55q-88 12 -143.5 74t-55.5 149q0 96 70.5 161t171.5 65q85 0 139 -39.5t54 -98.5q0 -25 -15.5 -41.5t-37.5 -16.5t-36.5 14t-14.5 34q0 17 11.5 28.5t27.5 11.5
q-7 26 -42 44t-87 18q-77 0 -132.5 -51.5t-55.5 -128.5q0 -75 51 -127t134 -52q99 0 171 69l29 -37q-81 -79 -200 -79h-1l-16 -38q57 0 89.5 -22t32.5 -65q0 -42 -32 -65t-76 -23z" />
    <glyph glyph-name="egrave" unicode="&#xe8;" 
d="M472 243l-1 5q-11 64 -53 104t-108 40q-68 0 -117 -41.5t-60 -107.5h339zM509 65q-79 -79 -196 -79q-101 0 -167 64.5t-66 161.5q0 96 65.5 161t164.5 65q102 0 160.5 -68t58.5 -168h-398q4 -73 54 -121.5t128 -48.5q98 0 169 68zM347 523l-16 -12l-115 109
q-23 20 -23 41q0 18 11 29.5t28 11.5q30 0 46 -34z" />
    <glyph glyph-name="eacute" unicode="&#xe9;" 
d="M278 523l70 145q14 34 45 34q17 0 28.5 -11.5t11.5 -29.5q0 -21 -24 -41l-115 -109zM472 243l-1 5q-11 64 -53 104t-108 40q-68 0 -117 -41.5t-60 -107.5h339zM509 65q-79 -79 -196 -79q-101 0 -167 64.5t-66 161.5q0 96 65.5 161t164.5 65q102 0 160.5 -68t58.5 -168
h-398q4 -73 54 -121.5t128 -48.5q98 0 169 68z" />
    <glyph glyph-name="ecircumflex" unicode="&#xea;" 
d="M312 696q24 0 43 -27l99 -142l-20 -16l-122 113l-121 -113l-21 16l99 142q19 27 43 27zM472 243l-1 5q-11 64 -53 104t-108 40q-68 0 -117 -41.5t-60 -107.5h339zM509 65q-79 -79 -196 -79q-101 0 -167 64.5t-66 161.5q0 96 65.5 161t164.5 65q102 0 160.5 -68t58.5 -168
h-398q4 -73 54 -121.5t128 -48.5q98 0 169 68z" />
    <glyph glyph-name="edieresis" unicode="&#xeb;" 
d="M416 536q-24 0 -40.5 16.5t-16.5 39.5q0 24 16.5 40.5t40.5 16.5t40.5 -16.5t16.5 -40.5q0 -23 -16.5 -39.5t-40.5 -16.5zM208 537q-23 0 -40 16.5t-17 39.5t17 39.5t40 16.5q24 0 40.5 -16.5t16.5 -39.5t-16.5 -39.5t-40.5 -16.5zM472 243l-1 5q-11 64 -53 104t-108 40
q-68 0 -117 -41.5t-60 -107.5h339zM509 65q-79 -79 -196 -79q-101 0 -167 64.5t-66 161.5q0 96 65.5 161t164.5 65q102 0 160.5 -68t58.5 -168h-398q4 -73 54 -121.5t128 -48.5q98 0 169 68z" />
    <glyph glyph-name="igrave" unicode="&#xec;" 
d="M349 68l22 -22h163v-46h-427v46h172l22 22v288l-22 22h-172v46h242v-356zM350 523l-16 -12l-115 109q-23 20 -23 41q0 18 11 29.5t28 11.5q30 0 46 -34z" />
    <glyph glyph-name="iacute" unicode="&#xed;" 
d="M280 523l70 145q14 34 45 34q17 0 28.5 -11.5t11.5 -29.5q0 -21 -24 -41l-115 -109zM349 68l22 -22h163v-46h-427v46h172l22 22v288l-22 22h-172v46h242v-356z" />
    <glyph glyph-name="icircumflex" unicode="&#xee;" 
d="M314 696q24 0 43 -27l99 -142l-20 -16l-122 113l-121 -113l-21 16l99 142q19 27 43 27zM349 68l22 -22h163v-46h-427v46h172l22 22v288l-22 22h-172v46h242v-356z" />
    <glyph glyph-name="idieresis" unicode="&#xef;" 
d="M418 536q-24 0 -40.5 16.5t-16.5 39.5q0 24 16.5 40.5t40.5 16.5t40.5 -16.5t16.5 -40.5q0 -23 -16.5 -39.5t-40.5 -16.5zM210 537q-23 0 -40 16.5t-17 39.5t17 39.5t40 16.5q24 0 40.5 -16.5t16.5 -39.5t-16.5 -39.5t-40.5 -16.5zM349 68l22 -22h163v-46h-427v46h172
l22 22v288l-22 22h-172v46h242v-356z" />
    <glyph glyph-name="eth" unicode="&#xf0;" 
d="M307 -14q-99 0 -165 61.5t-66 152.5t66 152.5t165 61.5q100 0 160 -71q-41 107 -135 171l-113 -54l-17 32l93 44q-59 32 -140 48l11 41q101 -16 180 -64l118 57l17 -33l-100 -48q76 -57 116 -141.5t40 -185.5q0 -98 -65 -161t-165 -63zM484 200q0 71 -50 118.5t-127 47.5
t-127 -47.5t-50 -118.5t50 -118.5t127 -47.5t127 47.5t50 118.5z" />
    <glyph glyph-name="ntilde" unicode="&#xf1;" 
d="M184 283v-215l22 -22h68v-46h-229v46h69l22 22v288l-22 22h-69v46h139v-81q22 40 65 67.5t94 27.5q70 0 112.5 -40.5t42.5 -119.5v-210l22 -22h68v-46h-229v46h69l22 22v197q0 126 -109 126q-100 0 -157 -108zM444 642h46q0 -53 -27 -86.5t-70 -33.5q-28 0 -55 19
t-50.5 37.5t-42.5 18.5q-24 0 -41 -20t-17 -52h-45q0 53 27 86t71 33q34 0 79.5 -37.5t68.5 -37.5q24 0 40 20t16 53z" />
    <glyph glyph-name="ograve" unicode="&#xf2;" 
d="M77 212q0 96 65.5 161t164.5 65t164.5 -65t65.5 -161t-65.5 -161t-164.5 -65t-164.5 65t-65.5 161zM484 212q0 76 -50 127.5t-127 51.5t-127 -51.5t-50 -127.5t50 -127.5t127 -51.5t127 51.5t50 127.5zM342 523l-16 -12l-115 109q-23 20 -23 41q0 18 11 29.5t28 11.5
q30 0 46 -34z" />
    <glyph glyph-name="oacute" unicode="&#xf3;" 
d="M273 523l70 145q14 34 45 34q17 0 28.5 -11.5t11.5 -29.5q0 -21 -24 -41l-115 -109zM77 212q0 96 65.5 161t164.5 65t164.5 -65t65.5 -161t-65.5 -161t-164.5 -65t-164.5 65t-65.5 161zM484 212q0 76 -50 127.5t-127 51.5t-127 -51.5t-50 -127.5t50 -127.5t127 -51.5
t127 51.5t50 127.5z" />
    <glyph glyph-name="ocircumflex" unicode="&#xf4;" 
d="M307 696q24 0 43 -27l99 -142l-20 -16l-122 113l-121 -113l-21 16l99 142q19 27 43 27zM77 212q0 96 65.5 161t164.5 65t164.5 -65t65.5 -161t-65.5 -161t-164.5 -65t-164.5 65t-65.5 161zM484 212q0 76 -50 127.5t-127 51.5t-127 -51.5t-50 -127.5t50 -127.5t127 -51.5
t127 51.5t50 127.5z" />
    <glyph glyph-name="otilde" unicode="&#xf5;" 
d="M77 212q0 96 65.5 161t164.5 65t164.5 -65t65.5 -161t-65.5 -161t-164.5 -65t-164.5 65t-65.5 161zM484 212q0 76 -50 127.5t-127 51.5t-127 -51.5t-50 -127.5t50 -127.5t127 -51.5t127 51.5t50 127.5zM443 642h46q0 -53 -27 -86.5t-70 -33.5q-28 0 -55 19t-50.5 37.5
t-42.5 18.5q-24 0 -41 -20t-17 -52h-45q0 53 27 86t71 33q34 0 79.5 -37.5t68.5 -37.5q24 0 40 20t16 53z" />
    <glyph glyph-name="odieresis" unicode="&#xf6;" 
d="M411 536q-24 0 -40.5 16.5t-16.5 39.5q0 24 16.5 40.5t40.5 16.5t40.5 -16.5t16.5 -40.5q0 -23 -16.5 -39.5t-40.5 -16.5zM203 537q-23 0 -40 16.5t-17 39.5t17 39.5t40 16.5q24 0 40.5 -16.5t16.5 -39.5t-16.5 -39.5t-40.5 -16.5zM77 212q0 96 65.5 161t164.5 65
t164.5 -65t65.5 -161t-65.5 -161t-164.5 -65t-164.5 65t-65.5 161zM484 212q0 76 -50 127.5t-127 51.5t-127 -51.5t-50 -127.5t50 -127.5t127 -51.5t127 51.5t50 127.5z" />
    <glyph glyph-name="divide" unicode="&#xf7;" 
d="M88 247v46h439v-46h-439zM262 453q0 19 13 32.5t32 13.5t32.5 -13.5t13.5 -32.5q0 -20 -13.5 -33.5t-32.5 -13.5t-32 13.5t-13 33.5zM262 87q0 20 13 33.5t32 13.5q20 0 33 -13.5t13 -33.5q0 -18 -13.5 -31.5t-32.5 -13.5t-32 13.5t-13 31.5z" />
    <glyph glyph-name="oslash" unicode="&#xf8;" 
d="M307 392q-77 0 -127.5 -52t-50.5 -128q0 -78 53 -131l222 284q-43 27 -97 27zM307 32q77 0 127.5 52t50.5 128q0 74 -48 125l-221 -282q40 -23 91 -23zM537 212q0 -96 -65.5 -161t-164.5 -65q-67 0 -120 31l-61 -77l-34 26l60 76q-75 65 -75 170q0 96 65.5 161t164.5 65
q70 0 127 -35l60 77l34 -27l-60 -77q69 -64 69 -164z" />
    <glyph glyph-name="ugrave" unicode="&#xf9;" 
d="M339 424h139v-356l22 -22h68v-46h-138v81q-22 -40 -65 -67.5t-94 -27.5q-71 0 -113.5 40.5t-42.5 119.5v210l-22 22h-68v46h138v-265q0 -126 109 -126q101 0 158 108v215l-22 22h-69v46zM327 523l-16 -12l-115 109q-23 20 -23 41q0 18 11 29.5t28 11.5q30 0 46 -34z" />
    <glyph glyph-name="uacute" unicode="&#xfa;" 
d="M257 523l70 145q14 34 45 34q17 0 28.5 -11.5t11.5 -29.5q0 -21 -24 -41l-115 -109zM339 424h139v-356l22 -22h68v-46h-138v81q-22 -40 -65 -67.5t-94 -27.5q-71 0 -113.5 40.5t-42.5 119.5v210l-22 22h-68v46h138v-265q0 -126 109 -126q101 0 158 108v215l-22 22h-69v46
z" />
    <glyph glyph-name="ucircumflex" unicode="&#xfb;" 
d="M291 696q24 0 43 -27l99 -142l-20 -16l-122 113l-121 -113l-21 16l99 142q19 27 43 27zM339 424h139v-356l22 -22h68v-46h-138v81q-22 -40 -65 -67.5t-94 -27.5q-71 0 -113.5 40.5t-42.5 119.5v210l-22 22h-68v46h138v-265q0 -126 109 -126q101 0 158 108v215l-22 22h-69
v46z" />
    <glyph glyph-name="udieresis" unicode="&#xfc;" 
d="M395 536q-24 0 -40.5 16.5t-16.5 39.5q0 24 16.5 40.5t40.5 16.5t40.5 -16.5t16.5 -40.5q0 -23 -16.5 -39.5t-40.5 -16.5zM187 537q-23 0 -40 16.5t-17 39.5t17 39.5t40 16.5q24 0 40.5 -16.5t16.5 -39.5t-16.5 -39.5t-40.5 -16.5zM339 424h139v-356l22 -22h68v-46h-138
v81q-22 -40 -65 -67.5t-94 -27.5q-71 0 -113.5 40.5t-42.5 119.5v210l-22 22h-68v46h138v-265q0 -126 109 -126q101 0 158 108v215l-22 22h-69v46z" />
    <glyph glyph-name="yacute" unicode="&#xfd;" 
d="M42 -108q0 26 16 43.5t39 17.5q21 0 36 -13t15 -34q0 -17 -12 -29t-31 -13q9 -23 46 -23q35 0 60.5 33.5t73.5 127.5l-195 376h-56v46h214v-46h-78l-14 -17l156 -310l156 310l-14 17h-78v46h210v-46h-56l-205 -397q-51 -99 -87.5 -141t-86.5 -42q-45 0 -77 26t-32 68z
M284 523l70 145q14 34 45 34q17 0 28.5 -11.5t11.5 -29.5q0 -21 -24 -41l-115 -109z" />
    <glyph glyph-name="thorn" unicode="&#xfe;" 
d="M170 269v-114q53 -122 170 -122q72 0 117.5 51.5t45.5 127.5t-45.5 127.5t-117.5 51.5q-117 0 -170 -122zM170 88v-214l16 -16h116v-46h-258v46h62l16 16v677l-16 16h-69v46h133v-277q25 46 70 74t103 28q91 0 151.5 -65t60.5 -161t-60.5 -161t-151.5 -65q-58 0 -103 28
t-70 74z" />
    <glyph glyph-name="ydieresis" unicode="&#xff;" 
d="M42 -108q0 26 16 43.5t39 17.5q21 0 36 -13t15 -34q0 -17 -12 -29t-31 -13q9 -23 46 -23q35 0 60.5 33.5t73.5 127.5l-195 376h-56v46h214v-46h-78l-14 -17l156 -310l156 310l-14 17h-78v46h210v-46h-56l-205 -397q-51 -99 -87.5 -141t-86.5 -42q-45 0 -77 26t-32 68z
M422 536q-24 0 -40.5 16.5t-16.5 39.5q0 24 16.5 40.5t40.5 16.5t40.5 -16.5t16.5 -40.5q0 -23 -16.5 -39.5t-40.5 -16.5zM214 537q-23 0 -40 16.5t-17 39.5t17 39.5t40 16.5q24 0 40.5 -16.5t16.5 -39.5t-16.5 -39.5t-40.5 -16.5z" />
    <glyph glyph-name="Amacron" unicode="&#x100;" 
d="M411 244l-106 275l-106 -275h212zM229 46v-46h-219v46h62l204 524h62l204 -524h62v-46h-223v46h82l18 18l-52 134h-247l-52 -134l17 -18h82zM157 723h300v-48h-300v48z" />
    <glyph glyph-name="amacron" unicode="&#x101;" 
d="M96 338q0 47 57.5 73.5t133.5 26.5q79 0 121.5 -40t42.5 -115v-180q0 -70 46 -70q27 0 60 37l26 -33q-42 -51 -92 -51q-37 0 -61.5 25t-27.5 70q-35 -42 -85.5 -68.5t-106.5 -26.5q-60 0 -97.5 30t-37.5 83q0 54 42 84.5t129 46.5l155 36v18q0 111 -119 111
q-72 0 -116 -25q26 -9 26 -38q0 -18 -13.5 -30.5t-34.5 -12.5t-34.5 13.5t-13.5 35.5zM401 129v96l-146 -35q-127 -23 -127 -89q0 -33 25 -51.5t61 -18.5q94 0 187 98zM133 586h300v-48h-300v48z" />
    <glyph glyph-name="Abreve" unicode="&#x102;" 
d="M411 244l-106 275l-106 -275h212zM229 46v-46h-219v46h62l204 524h62l204 -524h62v-46h-223v46h82l18 18l-52 134h-247l-52 -134l17 -18h82zM307 699q44 0 77.5 29t42.5 78l36 -9q-12 -73 -52.5 -114t-103.5 -41t-103.5 41t-52.5 114l36 9q9 -49 42.5 -78t77.5 -29z" />
    <glyph glyph-name="abreve" unicode="&#x103;" 
d="M96 338q0 47 57.5 73.5t133.5 26.5q79 0 121.5 -40t42.5 -115v-180q0 -70 46 -70q27 0 60 37l26 -33q-42 -51 -92 -51q-37 0 -61.5 25t-27.5 70q-35 -42 -85.5 -68.5t-106.5 -26.5q-60 0 -97.5 30t-37.5 83q0 54 42 84.5t129 46.5l155 36v18q0 111 -119 111
q-72 0 -116 -25q26 -9 26 -38q0 -18 -13.5 -30.5t-34.5 -12.5t-34.5 13.5t-13.5 35.5zM401 129v96l-146 -35q-127 -23 -127 -89q0 -33 25 -51.5t61 -18.5q94 0 187 98zM283 566q44 0 77.5 29t42.5 78l36 -9q-12 -73 -52.5 -114t-103.5 -41t-103.5 41t-52.5 114l36 9
q9 -49 42.5 -78t77.5 -29z" />
    <glyph glyph-name="Aogonek" unicode="&#x104;" 
d="M411 244l-106 275l-106 -275h212zM476 -173q-55 -57 -115 -57q-39 0 -60 21.5t-21 55.5q0 32 23.5 66t78.5 87h-1v46h82l18 18l-52 134h-247l-52 -134l17 -18h82v-46h-219v46h62l204 524h62l204 -524h62v-46h-165q-65 -64 -89 -93.5t-24 -54.5q0 -19 10.5 -29.5
t27.5 -10.5q42 0 88 49z" />
    <glyph glyph-name="aogonek" unicode="&#x105;" 
d="M469 -230q-39 0 -60 21.5t-21 55.5q0 30 21.5 62.5t69.5 80.5q-34 2 -54.5 25.5t-22.5 65.5q-35 -42 -85.5 -68.5t-106.5 -26.5q-60 0 -97.5 30t-37.5 83q0 54 42 84.5t129 46.5l155 36v18q0 111 -119 111q-72 0 -116 -25q26 -9 26 -38q0 -18 -13.5 -30.5t-34.5 -12.5
t-34.5 13.5t-13.5 35.5q0 47 57.5 73.5t133.5 26.5q79 0 121.5 -40t42.5 -115v-180q0 -70 46 -70q27 0 60 37l26 -33q-15 -16 -47 -47t-50.5 -50t-34.5 -44t-16 -44q0 -40 38 -40q41 0 87 49l24 -34q-53 -57 -115 -57zM401 129v96l-146 -35q-127 -23 -127 -89
q0 -33 25 -51.5t61 -18.5q94 0 187 98z" />
    <glyph glyph-name="Cacute" unicode="&#x106;" 
d="M510 124l32 -36q-85 -102 -218 -102q-118 0 -190 85t-72 214t71 214t188 85q51 0 92.5 -22t65.5 -59l11 5v62h46v-188h-37q-24 75 -70.5 113.5t-107.5 38.5q-97 0 -151 -70.5t-54 -178.5q0 -107 55.5 -178t152.5 -71q114 0 186 88zM296 660l70 145q14 34 45 34
q17 0 28.5 -11.5t11.5 -29.5q0 -22 -24 -41l-115 -109z" />
    <glyph glyph-name="cacute" unicode="&#x107;" 
d="M291 523l70 145q14 34 45 34q17 0 28.5 -11.5t11.5 -29.5q0 -21 -24 -41l-115 -109zM411 290q0 17 11.5 28.5t27.5 11.5q-7 26 -42 44t-87 18q-77 0 -132.5 -51.5t-55.5 -128.5q0 -75 51 -127t134 -52q99 0 171 69l29 -37q-81 -79 -200 -79q-103 0 -170.5 64.5
t-67.5 161.5q0 96 70.5 161t171.5 65q85 0 139 -39.5t54 -98.5q0 -25 -15.5 -41.5t-37.5 -16.5t-36.5 14t-14.5 34z" />
    <glyph glyph-name="Ccircumflex" unicode="&#x108;" 
d="M510 124l32 -36q-85 -102 -218 -102q-118 0 -190 85t-72 214t71 214t188 85q51 0 92.5 -22t65.5 -59l11 5v62h46v-188h-37q-24 75 -70.5 113.5t-107.5 38.5q-97 0 -151 -70.5t-54 -178.5q0 -107 55.5 -178t152.5 -71q114 0 186 88zM327 830q24 0 43 -27l99 -143l-20 -15
l-122 113l-121 -113l-21 15l99 143q19 27 43 27z" />
    <glyph glyph-name="ccircumflex" unicode="&#x109;" 
d="M325 696q24 0 43 -27l99 -142l-20 -16l-122 113l-121 -113l-21 16l99 142q19 27 43 27zM411 290q0 17 11.5 28.5t27.5 11.5q-7 26 -42 44t-87 18q-77 0 -132.5 -51.5t-55.5 -128.5q0 -75 51 -127t134 -52q99 0 171 69l29 -37q-81 -79 -200 -79q-103 0 -170.5 64.5
t-67.5 161.5q0 96 70.5 161t171.5 65q85 0 139 -39.5t54 -98.5q0 -25 -15.5 -41.5t-37.5 -16.5t-36.5 14t-14.5 34z" />
    <glyph glyph-name="Cdotaccent" unicode="&#x10a;" 
d="M327 657q-24 0 -40.5 16.5t-16.5 40.5q0 25 16.5 41.5t40.5 16.5q25 0 41.5 -16.5t16.5 -41.5q0 -24 -16.5 -40.5t-41.5 -16.5zM510 124l32 -36q-85 -102 -218 -102q-118 0 -190 85t-72 214t71 214t188 85q51 0 92.5 -22t65.5 -59l11 5v62h46v-188h-37
q-24 75 -70.5 113.5t-107.5 38.5q-97 0 -151 -70.5t-54 -178.5q0 -107 55.5 -178t152.5 -71q114 0 186 88z" />
    <glyph glyph-name="cdotaccent" unicode="&#x10b;" 
d="M411 290q0 17 11.5 28.5t27.5 11.5q-7 26 -42 44t-87 18q-77 0 -132.5 -51.5t-55.5 -128.5q0 -75 51 -127t134 -52q99 0 171 69l29 -37q-81 -79 -200 -79q-103 0 -170.5 64.5t-67.5 161.5q0 96 70.5 161t171.5 65q85 0 139 -39.5t54 -98.5q0 -25 -15.5 -41.5t-37.5 -16.5
t-36.5 14t-14.5 34zM325 534q-24 0 -40.5 16.5t-16.5 40.5q0 25 16.5 41.5t40.5 16.5q25 0 41.5 -16.5t16.5 -41.5q0 -24 -16.5 -40.5t-41.5 -16.5z" />
    <glyph glyph-name="Ccaron" unicode="&#x10c;" 
d="M510 124l32 -36q-85 -102 -218 -102q-118 0 -190 85t-72 214t71 214t188 85q51 0 92.5 -22t65.5 -59l11 5v62h46v-188h-37q-24 75 -70.5 113.5t-107.5 38.5q-97 0 -151 -70.5t-54 -178.5q0 -107 55.5 -178t152.5 -71q114 0 186 88zM327 648q-26 0 -43 27l-99 142l21 16
l121 -114l122 114l20 -16l-99 -142q-17 -27 -43 -27z" />
    <glyph glyph-name="ccaron" unicode="&#x10d;" 
d="M325 511q-26 0 -43 27l-99 142l21 16l121 -114l122 114l20 -16l-99 -142q-17 -27 -43 -27zM411 290q0 17 11.5 28.5t27.5 11.5q-7 26 -42 44t-87 18q-77 0 -132.5 -51.5t-55.5 -128.5q0 -75 51 -127t134 -52q99 0 171 69l29 -37q-81 -79 -200 -79q-103 0 -170.5 64.5
t-67.5 161.5q0 96 70.5 161t171.5 65q85 0 139 -39.5t54 -98.5q0 -25 -15.5 -41.5t-37.5 -16.5t-36.5 14t-14.5 34z" />
    <glyph glyph-name="Dcaron" unicode="&#x10e;" 
d="M284 648q-26 0 -43 27l-99 142l21 16l121 -114l122 114l20 -16l-99 -142q-17 -27 -43 -27zM175 46h77q121 0 186 66.5t65 172.5t-65 172.5t-186 66.5h-77v-478zM252 0h-213v46h64l22 23v433l-22 22h-64v46h213q146 0 225.5 -79t79.5 -206t-79.5 -206t-225.5 -79z" />
    <glyph glyph-name="dcaron" unicode="&#x10f;" 
d="M543 522l62 154q13 39 46 39q16 0 27.5 -11t11.5 -28q0 -19 -18 -40l-111 -124zM444 154v115q-54 121 -170 121q-72 0 -117.5 -51t-45.5 -128q0 -76 45.5 -127.5t117.5 -51.5q116 0 170 122zM312 613h180v-551l16 -16h62v-46h-126v88q-25 -47 -70.5 -75t-102.5 -28
q-91 0 -151.5 65t-60.5 161t60.5 161t151.5 65q58 0 103 -28t70 -74v216l-16 16h-116v46z" />
    <glyph glyph-name="Dcroat" unicode="&#x110;" 
d="M252 0h-213v46h64l22 23v208h-87v46h87v179l-22 22h-64v46h213q146 0 225.5 -79t79.5 -206t-79.5 -206t-225.5 -79zM175 46h77q121 0 186 66.5t65 172.5t-65 172.5t-186 66.5h-77v-201h142v-46h-142v-231z" />
    <glyph glyph-name="dcroat" unicode="&#x111;" 
d="M444 144v103q-53 112 -170 112q-73 0 -118 -46.5t-45 -117.5q0 -70 45.5 -116.5t117.5 -46.5q117 0 170 112zM444 80q-25 -43 -70.5 -69t-102.5 -26q-91 0 -151 60.5t-60 149.5q0 90 60 150t151 60q58 0 103 -26t70 -69v157h-191v40h191v54l-13 13h-119v39h180v-106h79
v-40h-79v-405l16 -16h62v-46h-126v80z" />
    <glyph glyph-name="Emacron" unicode="&#x112;" 
d="M169 723h300v-48h-300v48zM200 46h275l22 22v112h47v-180h-503v46h87l22 22v434l-22 22h-87v46h495v-176h-47v108l-22 22h-267v-208h139l22 22v65h42v-218h-42v65l-22 22h-139v-226z" />
    <glyph glyph-name="emacron" unicode="&#x113;" 
d="M472 243l-1 5q-11 64 -53 104t-108 40q-68 0 -117 -41.5t-60 -107.5h339zM509 65q-79 -79 -196 -79q-101 0 -167 64.5t-66 161.5q0 96 65.5 161t164.5 65q102 0 160.5 -68t58.5 -168h-398q4 -73 54 -121.5t128 -48.5q98 0 169 68zM162 586h300v-48h-300v48z" />
    <glyph glyph-name="Ebreve" unicode="&#x114;" 
d="M319 699q44 0 77.5 29t42.5 78l36 -9q-12 -73 -52.5 -114t-103.5 -41t-103.5 41t-52.5 114l36 9q9 -49 42.5 -78t77.5 -29zM200 46h275l22 22v112h47v-180h-503v46h87l22 22v434l-22 22h-87v46h495v-176h-47v108l-22 22h-267v-208h139l22 22v65h42v-218h-42v65l-22 22
h-139v-226z" />
    <glyph glyph-name="ebreve" unicode="&#x115;" 
d="M472 243l-1 5q-11 64 -53 104t-108 40q-68 0 -117 -41.5t-60 -107.5h339zM509 65q-79 -79 -196 -79q-101 0 -167 64.5t-66 161.5q0 96 65.5 161t164.5 65q102 0 160.5 -68t58.5 -168h-398q4 -73 54 -121.5t128 -48.5q98 0 169 68zM312 566q44 0 77.5 29t42.5 78l36 -9
q-12 -73 -52.5 -114t-103.5 -41t-103.5 41t-52.5 114l36 9q9 -49 42.5 -78t77.5 -29z" />
    <glyph glyph-name="Edotaccent" unicode="&#x116;" 
d="M318 657q-24 0 -40.5 16.5t-16.5 40.5q0 25 16.5 41.5t40.5 16.5q25 0 41.5 -16.5t16.5 -41.5q0 -24 -16.5 -40.5t-41.5 -16.5zM200 46h275l22 22v112h47v-180h-503v46h87l22 22v434l-22 22h-87v46h495v-176h-47v108l-22 22h-267v-208h139l22 22v65h42v-218h-42v65
l-22 22h-139v-226z" />
    <glyph glyph-name="edotaccent" unicode="&#x117;" 
d="M472 243l-1 5q-11 64 -53 104t-108 40q-68 0 -117 -41.5t-60 -107.5h339zM509 65q-79 -79 -196 -79q-101 0 -167 64.5t-66 161.5q0 96 65.5 161t164.5 65q102 0 160.5 -68t58.5 -168h-398q4 -73 54 -121.5t128 -48.5q98 0 169 68zM312 534q-24 0 -40.5 16.5t-16.5 40.5
q0 25 16.5 41.5t40.5 16.5q25 0 41.5 -16.5t16.5 -41.5q0 -24 -16.5 -40.5t-41.5 -16.5z" />
    <glyph glyph-name="Eogonek" unicode="&#x118;" 
d="M483 -173q-55 -57 -115 -57q-39 0 -60 21.5t-21 55.5q0 32 23.5 66t78.5 87h-348v46h87l22 22v434l-22 22h-87v46h495v-176h-47v108l-22 22h-267v-208h139l22 22v65h42v-218h-42v65l-22 22h-139v-226h275l22 22v112h47v-180h-98q-65 -64 -89 -93.5t-24 -54.5
q0 -19 10.5 -29.5t27.5 -10.5q42 0 88 49z" />
    <glyph glyph-name="eogonek" unicode="&#x119;" 
d="M472 243l-1 5q-11 64 -53 104t-108 40q-68 0 -117 -42t-59 -107h338zM470 -173q-55 -57 -115 -57q-39 0 -60 21.5t-21 55.5q0 69 101 148q-31 -9 -62 -9q-101 0 -167 64.5t-66 161.5q0 96 65.5 161t164.5 65q102 0 160.5 -68t58.5 -168h-397q3 -72 53.5 -121t127.5 -49
q98 0 169 68l27 -35q-69 -56 -99.5 -83t-60 -64.5t-29.5 -65.5q0 -19 10.5 -29.5t27.5 -10.5q42 0 88 49z" />
    <glyph glyph-name="Ecaron" unicode="&#x11a;" 
d="M319 648q-26 0 -43 27l-99 142l21 16l121 -114l122 114l20 -16l-99 -142q-17 -27 -43 -27zM200 46h275l22 22v112h47v-180h-503v46h87l22 22v434l-22 22h-87v46h495v-176h-47v108l-22 22h-267v-208h139l22 22v65h42v-218h-42v65l-22 22h-139v-226z" />
    <glyph glyph-name="ecaron" unicode="&#x11b;" 
d="M312 511q-26 0 -43 27l-99 142l21 16l121 -114l122 114l20 -16l-99 -142q-17 -27 -43 -27zM472 243l-1 5q-11 64 -53 104t-108 40q-68 0 -117 -41.5t-60 -107.5h339zM509 65q-79 -79 -196 -79q-101 0 -167 64.5t-66 161.5q0 96 65.5 161t164.5 65q102 0 160.5 -68
t58.5 -168h-398q4 -73 54 -121.5t128 -48.5q98 0 169 68z" />
    <glyph glyph-name="Gcircumflex" unicode="&#x11c;" 
d="M308 534q-96 0 -150.5 -70.5t-54.5 -178.5t53.5 -178.5t148.5 -70.5q93 0 166 102v69l-19 20h-78v46h207v-46h-42l-20 -21v-206h-48v64l-11 4q-28 -40 -72 -61t-88 -21q-113 0 -182 85t-69 214t71 214t187 85q101 0 153 -81l11 5v62h47v-182h-39q-50 146 -171 146z
M311 830q24 0 43 -27l99 -143l-20 -15l-122 113l-121 -113l-21 15l99 143q19 27 43 27z" />
    <glyph glyph-name="gcircumflex" unicode="&#x11d;" 
d="M304 702q24 0 43 -27l99 -142l-20 -16l-122 113l-121 -113l-21 16l99 142q19 27 43 27zM406 291q0 43 -34 72t-88 29t-88 -29t-34 -72t34 -72.5t88 -29.5t88 29.5t34 72.5zM551 -53q0 -63 -70 -106t-181 -43q-112 0 -181 37.5t-69 102.5q0 58 68 102q-34 25 -34 69
q0 28 18 51t47 35q-38 41 -38 96q0 63 48 105t125 42q59 0 101 -25q39 82 116 82q38 0 65.5 -22t27.5 -56q0 -22 -13.5 -36.5t-33.5 -14.5q-19 0 -32 13t-13 31q0 23 21 34q-11 9 -28 9q-49 0 -78 -65q41 -39 41 -97q0 -63 -48.5 -105t-125.5 -42q-58 0 -103 26
q-49 -22 -49 -56q0 -21 14.5 -35t42.5 -14h210q71 0 111.5 -30t40.5 -88zM401 16h-247q-54 -32 -54 -75q0 -45 55.5 -71t144.5 -26q90 0 145.5 29t55.5 73q0 70 -100 70z" />
    <glyph glyph-name="Gbreve" unicode="&#x11e;" 
d="M311 699q44 0 77.5 29t42.5 78l36 -9q-12 -73 -52.5 -114t-103.5 -41t-103.5 41t-52.5 114l36 9q9 -49 42.5 -78t77.5 -29zM308 534q-96 0 -150.5 -70.5t-54.5 -178.5t53.5 -178.5t148.5 -70.5q93 0 166 102v69l-19 20h-78v46h207v-46h-42l-20 -21v-206h-48v64l-11 4
q-28 -40 -72 -61t-88 -21q-113 0 -182 85t-69 214t71 214t187 85q101 0 153 -81l11 5v62h47v-182h-39q-50 146 -171 146z" />
    <glyph glyph-name="gbreve" unicode="&#x11f;" 
d="M406 291q0 43 -34 72t-88 29t-88 -29t-34 -72t34 -72.5t88 -29.5t88 29.5t34 72.5zM551 -53q0 -63 -70 -106t-181 -43q-112 0 -181 37.5t-69 102.5q0 58 68 102q-34 25 -34 69q0 28 18 51t47 35q-38 41 -38 96q0 63 48 105t125 42q59 0 101 -25q39 82 116 82
q38 0 65.5 -22t27.5 -56q0 -22 -13.5 -36.5t-33.5 -14.5q-19 0 -32 13t-13 31q0 23 21 34q-11 9 -28 9q-49 0 -78 -65q41 -39 41 -97q0 -63 -48.5 -105t-125.5 -42q-58 0 -103 26q-49 -22 -49 -56q0 -21 14.5 -35t42.5 -14h210q71 0 111.5 -30t40.5 -88zM401 16h-247
q-54 -32 -54 -75q0 -45 55.5 -71t144.5 -26q90 0 145.5 29t55.5 73q0 70 -100 70zM298 569q44 0 77.5 29t42.5 78l36 -9q-12 -73 -52.5 -114t-103.5 -41t-103.5 41t-52.5 114l36 9q9 -49 42.5 -78t77.5 -29z" />
    <glyph glyph-name="Gdotaccent" unicode="&#x120;" 
d="M311 657q-24 0 -40.5 16.5t-16.5 40.5q0 25 16.5 41.5t40.5 16.5q25 0 41.5 -16.5t16.5 -41.5q0 -24 -16.5 -40.5t-41.5 -16.5zM308 534q-96 0 -150.5 -70.5t-54.5 -178.5t53.5 -178.5t148.5 -70.5q93 0 166 102v69l-19 20h-78v46h207v-46h-42l-20 -21v-206h-48v64l-11 4
q-28 -40 -72 -61t-88 -21q-113 0 -182 85t-69 214t71 214t187 85q101 0 153 -81l11 5v62h47v-182h-39q-50 146 -171 146z" />
    <glyph glyph-name="gdotaccent" unicode="&#x121;" 
d="M406 291q0 43 -34 72t-88 29t-88 -29t-34 -72t34 -72.5t88 -29.5t88 29.5t34 72.5zM551 -53q0 -63 -70 -106t-181 -43q-112 0 -181 37.5t-69 102.5q0 58 68 102q-34 25 -34 69q0 28 18 51t47 35q-38 41 -38 96q0 63 48 105t125 42q59 0 101 -25q39 82 116 82
q38 0 65.5 -22t27.5 -56q0 -22 -13.5 -36.5t-33.5 -14.5q-19 0 -32 13t-13 31q0 23 21 34q-11 9 -28 9q-49 0 -78 -65q41 -39 41 -97q0 -63 -48.5 -105t-125.5 -42q-58 0 -103 26q-49 -22 -49 -56q0 -21 14.5 -35t42.5 -14h210q71 0 111.5 -30t40.5 -88zM401 16h-247
q-54 -32 -54 -75q0 -45 55.5 -71t144.5 -26q90 0 145.5 29t55.5 73q0 70 -100 70zM306 534q-24 0 -40.5 16.5t-16.5 40.5q0 25 16.5 41.5t40.5 16.5q25 0 41.5 -16.5t16.5 -41.5q0 -24 -16.5 -40.5t-41.5 -16.5z" />
    <glyph glyph-name="Gcommaaccent" unicode="&#x122;" 
d="M256 -127q0 23 16 39t38 16q23 0 39 -16.5t16 -39.5q0 -21 -16 -42l-93 -116l-23 16l62 94q-17 4 -28 17.5t-11 31.5zM308 534q-96 0 -150.5 -70.5t-54.5 -178.5t53.5 -178.5t148.5 -70.5q93 0 166 102v69l-19 20h-78v46h207v-46h-42l-20 -21v-206h-48v64l-11 4
q-28 -40 -72 -61t-88 -21q-113 0 -182 85t-69 214t71 214t187 85q101 0 153 -81l11 5v62h47v-182h-39q-50 146 -171 146z" />
    <glyph glyph-name="gcommaaccent" unicode="&#x123;" 
d="M355 581q0 -23 -16 -39t-39 -16q-22 0 -38 16.5t-16 39.5t16 42l92 116l23 -16l-62 -94q17 -4 28.5 -17.5t11.5 -31.5zM406 291q0 43 -34 72t-88 29t-88 -29t-34 -72t34 -72.5t88 -29.5t88 29.5t34 72.5zM551 -53q0 -63 -70 -106t-181 -43q-112 0 -181 37.5t-69 102.5
q0 58 68 102q-34 25 -34 69q0 28 18 51t47 35q-38 41 -38 96q0 63 48 105t125 42q59 0 101 -25q39 82 116 82q38 0 65.5 -22t27.5 -56q0 -22 -13.5 -36.5t-33.5 -14.5q-19 0 -32 13t-13 31q0 23 21 34q-11 9 -28 9q-49 0 -78 -65q41 -39 41 -97q0 -63 -48.5 -105t-125.5 -42
q-58 0 -103 26q-49 -22 -49 -56q0 -21 14.5 -35t42.5 -14h210q71 0 111.5 -30t40.5 -88zM401 16h-247q-54 -32 -54 -75q0 -45 55.5 -71t144.5 -26q90 0 145.5 29t55.5 73q0 70 -100 70z" />
    <glyph glyph-name="Hcircumflex" unicode="&#x124;" 
d="M443 502l-22 22h-60v46h214v-46h-60l-22 -22v-434l22 -22h60v-46h-214v46h60l22 22v206h-272v-206l22 -22h60v-46h-214v46h60l22 22v434l-22 22h-60v46h214v-46h-60l-22 -22v-182h272v182zM307 830q24 0 43 -27l99 -143l-20 -15l-122 113l-121 -113l-21 15l99 143
q19 27 43 27z" />
    <glyph glyph-name="hcircumflex" unicode="&#x125;" 
d="M184 283v-215l22 -22h68v-46h-229v46h69l22 22v477l-22 22h-69v46h139v-270q22 40 65 67.5t94 27.5q70 0 112.5 -40.5t42.5 -119.5v-210l22 -22h68v-46h-229v46h69l22 22v197q0 126 -109 126q-100 0 -157 -108zM316 850q24 0 43 -27l99 -143l-20 -15l-122 113l-121 -113
l-21 15l99 143q19 27 43 27z" />
    <glyph glyph-name="Hbar" unicode="&#x126;" 
d="M171 271h272v94h-272v-94zM253 46v-46h-214v46h60l22 22v297h-83v43h83v94l-22 22h-60v46h214v-46h-60l-22 -22v-94h272v94l-22 22h-60v46h214v-46h-60l-22 -22v-94h84v-43h-84v-297l22 -22h60v-46h-214v46h60l22 22v160h-272v-160l22 -22h60z" />
    <glyph glyph-name="hbar" unicode="&#x127;" 
d="M274 46v-46h-229v46h69l22 22v399h-91v40h91v53l-14 14h-77v39h139v-106h178v-40h-178v-149q22 40 65 67.5t94 27.5q70 0 112.5 -40.5t42.5 -119.5v-185l22 -22h68v-46h-229v46h69l22 22v172q0 126 -109 126q-100 0 -157 -108v-190l22 -22h68z" />
    <glyph glyph-name="Itilde" unicode="&#x128;" 
d="M281 502l-22 22h-155v46h406v-46h-155l-22 -22v-434l22 -22h155v-46h-406v46h155l22 22v434zM435 772h46q0 -53 -27 -86.5t-70 -33.5q-28 0 -55 19t-50.5 37.5t-42.5 18.5q-24 0 -41 -20t-17 -52h-45q0 53 27 86t71 33q34 0 79.5 -37.5t68.5 -37.5q24 0 40 20t16 53z" />
    <glyph glyph-name="itilde" unicode="&#x129;" 
d="M349 68l22 -22h163v-46h-427v46h172l22 22v288l-22 22h-172v46h242v-356zM435 642h46q0 -53 -27 -86.5t-70 -33.5q-28 0 -55 19t-50.5 37.5t-42.5 18.5q-24 0 -41 -20t-17 -52h-45q0 53 27 86t71 33q34 0 79.5 -37.5t68.5 -37.5q24 0 40 20t16 53z" />
    <glyph glyph-name="Imacron" unicode="&#x12a;" 
d="M281 502l-22 22h-155v46h406v-46h-155l-22 -22v-434l22 -22h155v-46h-406v46h155l22 22v434zM157 723h300v-48h-300v48z" />
    <glyph glyph-name="imacron" unicode="&#x12b;" 
d="M349 68l22 -22h163v-46h-427v46h172l22 22v288l-22 22h-172v46h242v-356zM157 586h300v-48h-300v48z" />
    <glyph glyph-name="Ibreve" unicode="&#x12c;" 
d="M281 502l-22 22h-155v46h406v-46h-155l-22 -22v-434l22 -22h155v-46h-406v46h155l22 22v434zM307 699q44 0 77.5 29t42.5 78l36 -9q-12 -73 -52.5 -114t-103.5 -41t-103.5 41t-52.5 114l36 9q9 -49 42.5 -78t77.5 -29z" />
    <glyph glyph-name="ibreve" unicode="&#x12d;" 
d="M349 68l22 -22h163v-46h-427v46h172l22 22v288l-22 22h-172v46h242v-356zM307 566q44 0 77.5 29t42.5 78l36 -9q-12 -73 -52.5 -114t-103.5 -41t-103.5 41t-52.5 114l36 9q9 -49 42.5 -78t77.5 -29z" />
    <glyph glyph-name="Iogonek" unicode="&#x12e;" 
d="M455 -173q-55 -57 -115 -57q-39 0 -60 21.5t-21 55.5q0 32 23.5 66t78.5 87h-257v46h155l22 22v434l-22 22h-155v46h406v-46h-155l-22 -22v-434l22 -22h155v-46h-92q-65 -64 -89 -93.5t-24 -54.5q0 -19 10.5 -29.5t27.5 -10.5q42 0 88 49z" />
    <glyph glyph-name="iogonek" unicode="&#x12f;" 
d="M252 591q0 25 16.5 41.5t39.5 16.5q25 0 42 -16.5t17 -41.5q0 -24 -17 -40.5t-42 -16.5q-23 0 -39.5 16.5t-16.5 40.5zM453 -173q-55 -57 -115 -57q-39 0 -60 21.5t-21 55.5q0 32 23.5 66t78.5 87h-252v46h172l22 22v288l-22 22h-172v46h242v-356l22 -22h163v-46h-118
q-65 -64 -89 -93.5t-24 -54.5q0 -19 10.5 -29.5t27.5 -10.5q42 0 88 49z" />
    <glyph glyph-name="Idotaccent" unicode="&#x130;" 
d="M281 502l-22 22h-155v46h406v-46h-155l-22 -22v-434l22 -22h155v-46h-406v46h155l22 22v434zM306 657q-24 0 -40.5 16.5t-16.5 40.5q0 25 16.5 41.5t40.5 16.5q25 0 41.5 -16.5t16.5 -41.5q0 -24 -16.5 -40.5t-41.5 -16.5z" />
    <glyph glyph-name="dotlessi" unicode="&#x131;" 
d="M349 68l22 -22h163v-46h-427v46h172l22 22v288l-22 22h-172v46h242v-356z" />
    <glyph glyph-name="Jcircumflex" unicode="&#x134;" 
d="M409 221v281l-22 22h-168v46h340v-46h-76l-22 -22v-286q0 -111 -58 -170.5t-147 -59.5q-83 0 -138.5 50.5t-55.5 118.5q0 29 17.5 48.5t41.5 19.5t39 -14.5t15 -35.5t-16.5 -35.5t-39.5 -12.5q10 -40 46 -66t91 -26q70 0 111.5 45.5t41.5 142.5zM404 830q24 0 43 -27
l99 -143l-20 -15l-122 113l-121 -113l-21 15l99 143q19 27 43 27z" />
    <glyph glyph-name="jcircumflex" unicode="&#x135;" 
d="M409 696q24 0 43 -27l99 -142l-20 -16l-122 113l-121 -113l-21 16l99 142q19 27 43 27zM73 -47q0 28 16 46.5t39 18.5t37.5 -13.5t14.5 -34.5q0 -18 -13.5 -31t-34.5 -13q11 -34 45.5 -57t81.5 -23q68 0 109.5 45.5t41.5 138.5v326l-22 22h-230v46h300v-399
q0 -110 -55.5 -166.5t-143.5 -56.5q-76 0 -131 45.5t-55 105.5z" />
    <glyph glyph-name="Kcommaaccent" unicode="&#x136;" 
d="M256 -127q0 23 16 39t38 16q23 0 39 -16.5t16 -39.5q0 -21 -16 -42l-93 -116l-23 16l62 94q-17 4 -28 17.5t-11 31.5zM253 46v-46h-214v46h60l22 22v434l-22 22h-60v46h214v-46h-60l-22 -22v-266l265 270l-18 18h-54v46h204v-46h-56l-196 -199l205 -279h69v-46h-219v46
h59l17 18l-165 226l-111 -112v-110l22 -22h60z" />
    <glyph glyph-name="kcommaaccent" unicode="&#x137;" 
d="M259 -127q0 23 16 39t38 16q23 0 39 -16.5t16 -39.5q0 -21 -16 -42l-93 -116l-23 16l62 94q-17 4 -28 17.5t-11 31.5zM279 46v-46h-237v46h73l22 22v477l-22 22h-76v46h146v-427l236 178l-7 14h-74v46h222v-46h-52l-194 -142l165 -190h107v-46h-171v46l-140 161l-92 -67
v-72l22 -22h72z" />
    <glyph glyph-name="kgreenlandic" unicode="&#x138;" 
d="M279 46v-46h-237v46h73l22 22v288l-22 22h-76v46h146v-238l236 178l-7 14h-74v46h222v-46h-52l-194 -142l165 -190h107v-46h-171v46l-140 161l-92 -67v-72l22 -22h72z" />
    <glyph glyph-name="Lacute" unicode="&#x139;" 
d="M167 660l70 145q14 34 45 34q17 0 28.5 -11.5t11.5 -29.5q0 -22 -24 -41l-115 -109zM48 570h266v-46h-89l-22 -22v-456h275l22 22v138h47v-206h-499v46h83l22 22v434l-22 22h-83v46z" />
    <glyph glyph-name="lacute" unicode="&#x13a;" 
d="M289 687l70 145q14 34 45 34q17 0 28.5 -11.5t11.5 -29.5q0 -21 -24 -41l-115 -109zM349 68l22 -22h163v-46h-427v46h172l22 22v477l-22 22h-172v46h242v-545z" />
    <glyph glyph-name="Lcommaaccent" unicode="&#x13b;" 
d="M240 -127q0 23 16 39t38 16q23 0 39 -16.5t16 -39.5q0 -21 -16 -42l-93 -116l-23 16l62 94q-17 4 -28 17.5t-11 31.5zM48 570h266v-46h-89l-22 -22v-456h275l22 22v138h47v-206h-499v46h83l22 22v434l-22 22h-83v46z" />
    <glyph glyph-name="lcommaaccent" unicode="&#x13c;" 
d="M266 -127q0 23 16 39t38 16q23 0 39 -16.5t16 -39.5q0 -21 -16 -42l-93 -116l-23 16l62 94q-17 4 -28 17.5t-11 31.5zM349 68l22 -22h163v-46h-427v46h172l22 22v477l-22 22h-172v46h242v-545z" />
    <glyph glyph-name="Lcaron" unicode="&#x13d;" 
d="M391 438l62 154q13 39 46 39q16 0 27.5 -11t11.5 -28q0 -19 -18 -40l-111 -124zM48 570h266v-46h-89l-22 -22v-456h275l22 22v138h47v-206h-499v46h83l22 22v434l-22 22h-83v46z" />
    <glyph glyph-name="lcaron" unicode="&#x13e;" 
d="M409 522l62 154q13 39 46 39q16 0 27.5 -11t11.5 -28q0 -19 -18 -40l-111 -124zM349 68l22 -22h163v-46h-427v46h172l22 22v477l-22 22h-172v46h242v-545z" />
    <glyph glyph-name="Ldot" unicode="&#x13f;" 
d="M48 570h266v-46h-89l-22 -22v-456h275l22 22v138h47v-206h-499v46h83l22 22v434l-22 22h-83v46zM452 329q-24 0 -40.5 16.5t-16.5 40.5q0 25 16.5 41.5t40.5 16.5q25 0 41.5 -16.5t16.5 -41.5q0 -24 -16.5 -40.5t-41.5 -16.5z" />
    <glyph glyph-name="ldot" unicode="&#x140;" 
d="M349 68l22 -22h163v-46h-427v46h172l22 22v477l-22 22h-172v46h242v-545zM606 272q-24 0 -40.5 16.5t-16.5 40.5q0 25 16.5 41.5t40.5 16.5q25 0 41.5 -16.5t16.5 -41.5q0 -24 -16.5 -40.5t-41.5 -16.5z" />
    <glyph glyph-name="Lslash" unicode="&#x141;" 
d="M547 0h-499v46h83l22 22v182l-90 -42l-17 43l107 48v203l-22 22h-83v46h266v-46h-89l-22 -22v-183l173 79l17 -43l-190 -86v-223h275l22 22v138h47v-206z" />
    <glyph glyph-name="lslash" unicode="&#x142;" 
d="M534 0h-427v46h172l22 22v233l-152 -76l-22 41l174 87v192l-22 22h-172v46h242v-236l143 71l22 -41l-165 -82v-257l22 -22h163v-46z" />
    <glyph glyph-name="Nacute" unicode="&#x143;" 
d="M279 660l70 145q14 34 45 34q17 0 28.5 -11.5t11.5 -29.5q0 -22 -24 -41l-115 -109zM500 0h-54l-277 508v-440l22 -22h60v-46h-212v46h60l22 22v434l-22 22h-60v46h154l259 -483v415l-22 22h-60v46h212v-46h-60l-22 -22v-502z" />
    <glyph glyph-name="nacute" unicode="&#x144;" 
d="M282 523l70 145q14 34 45 34q17 0 28.5 -11.5t11.5 -29.5q0 -21 -24 -41l-115 -109zM184 283v-215l22 -22h68v-46h-229v46h69l22 22v288l-22 22h-69v46h139v-81q22 40 65 67.5t94 27.5q70 0 112.5 -40.5t42.5 -119.5v-210l22 -22h68v-46h-229v46h69l22 22v197
q0 126 -109 126q-100 0 -157 -108z" />
    <glyph glyph-name="Ncommaaccent" unicode="&#x145;" 
d="M256 -127q0 23 16 39t38 16q23 0 39 -16.5t16 -39.5q0 -21 -16 -42l-93 -116l-23 16l62 94q-17 4 -28 17.5t-11 31.5zM500 0h-54l-277 508v-440l22 -22h60v-46h-212v46h60l22 22v434l-22 22h-60v46h154l259 -483v415l-22 22h-60v46h212v-46h-60l-22 -22v-502z" />
    <glyph glyph-name="ncommaaccent" unicode="&#x146;" 
d="M261 -127q0 23 16 39t38 16q23 0 39 -16.5t16 -39.5q0 -21 -16 -42l-93 -116l-23 16l62 94q-17 4 -28 17.5t-11 31.5zM184 283v-215l22 -22h68v-46h-229v46h69l22 22v288l-22 22h-69v46h139v-81q22 40 65 67.5t94 27.5q70 0 112.5 -40.5t42.5 -119.5v-210l22 -22h68v-46
h-229v46h69l22 22v197q0 126 -109 126q-100 0 -157 -108z" />
    <glyph glyph-name="Ncaron" unicode="&#x147;" 
d="M311 648q-26 0 -43 27l-99 142l21 16l121 -114l122 114l20 -16l-99 -142q-17 -27 -43 -27zM500 0h-54l-277 508v-440l22 -22h60v-46h-212v46h60l22 22v434l-22 22h-60v46h154l259 -483v415l-22 22h-60v46h212v-46h-60l-22 -22v-502z" />
    <glyph glyph-name="ncaron" unicode="&#x148;" 
d="M316 511q-26 0 -43 27l-99 142l21 16l121 -114l122 114l20 -16l-99 -142q-17 -27 -43 -27zM184 283v-215l22 -22h68v-46h-229v46h69l22 22v288l-22 22h-69v46h139v-81q22 40 65 67.5t94 27.5q70 0 112.5 -40.5t42.5 -119.5v-210l22 -22h68v-46h-229v46h69l22 22v197
q0 126 -109 126q-100 0 -157 -108z" />
    <glyph glyph-name="Eng" unicode="&#x14a;" 
d="M451 -8l-282 516v-440l22 -22h60v-46h-212v46h60l22 22v434l-22 22h-60v46h154l259 -483v415l-22 22h-60v46h212v-46h-60l-22 -22v-510q0 -191 -147 -191q-53 0 -87 29.5t-34 77.5q0 24 13.5 39.5t33.5 15.5q19 0 31.5 -11.5t12.5 -28.5q0 -33 -38 -36q13 -43 68 -43
q97 0 98 148z" />
    <glyph glyph-name="eng" unicode="&#x14b;" 
d="M361 -198q-53 0 -87 29t-34 77q0 24 13.5 39.5t33.5 15.5q19 0 31.5 -11.5t12.5 -28.5q0 -16 -10.5 -25.5t-28.5 -9.5q12 -45 69 -45q49 0 73 36.5t24 118.5v267q0 126 -107 126q-100 0 -157 -108v-215l22 -22h68v-46h-229v46h69l22 22v288l-22 22h-69v46h139v-81
q22 40 65 67.5t94 27.5q70 0 112.5 -40.5t42.5 -119.5v-282q0 -194 -147 -194z" />
    <glyph glyph-name="Omacron" unicode="&#x14c;" 
d="M157 723h300v-48h-300v48zM562 285q0 -129 -70 -214t-185 -85t-185 85t-70 214t70 214t185 85t185 -85t70 -214zM508 285q0 107 -53.5 178t-147.5 71t-147.5 -71t-53.5 -178t53.5 -178t147.5 -71t147.5 71t53.5 178z" />
    <glyph glyph-name="omacron" unicode="&#x14d;" 
d="M157 586h300v-48h-300v48zM77 212q0 96 65.5 161t164.5 65t164.5 -65t65.5 -161t-65.5 -161t-164.5 -65t-164.5 65t-65.5 161zM484 212q0 76 -50 127.5t-127 51.5t-127 -51.5t-50 -127.5t50 -127.5t127 -51.5t127 51.5t50 127.5z" />
    <glyph glyph-name="Obreve" unicode="&#x14e;" 
d="M307 699q44 0 77.5 29t42.5 78l36 -9q-12 -73 -52.5 -114t-103.5 -41t-103.5 41t-52.5 114l36 9q9 -49 42.5 -78t77.5 -29zM562 285q0 -129 -70 -214t-185 -85t-185 85t-70 214t70 214t185 85t185 -85t70 -214zM508 285q0 107 -53.5 178t-147.5 71t-147.5 -71t-53.5 -178
t53.5 -178t147.5 -71t147.5 71t53.5 178z" />
    <glyph glyph-name="obreve" unicode="&#x14f;" 
d="M77 212q0 96 65.5 161t164.5 65t164.5 -65t65.5 -161t-65.5 -161t-164.5 -65t-164.5 65t-65.5 161zM484 212q0 76 -50 127.5t-127 51.5t-127 -51.5t-50 -127.5t50 -127.5t127 -51.5t127 51.5t50 127.5zM307 566q44 0 77.5 29t42.5 78l36 -9q-12 -73 -52.5 -114
t-103.5 -41t-103.5 41t-52.5 114l36 9q9 -49 42.5 -78t77.5 -29z" />
    <glyph glyph-name="Ohungarumlaut" unicode="&#x150;" 
d="M562 285q0 -129 -70 -214t-185 -85t-185 85t-70 214t70 214t185 85t185 -85t70 -214zM508 285q0 107 -53.5 178t-147.5 71t-147.5 -71t-53.5 -178t53.5 -178t147.5 -71t147.5 71t53.5 178zM377 660l70 145q14 34 45 34q17 0 28.5 -11.5t11.5 -29.5q0 -22 -24 -41
l-115 -109zM200 660l69 145q16 34 46 34q17 0 28 -11.5t11 -29.5q0 -21 -23 -41l-115 -109z" />
    <glyph glyph-name="ohungarumlaut" unicode="&#x151;" 
d="M366 523l70 145q14 34 45 34q17 0 28.5 -11.5t11.5 -29.5q0 -21 -24 -41l-115 -109zM189 523l69 145q16 34 46 34q17 0 28 -11.5t11 -29.5q0 -21 -23 -41l-115 -109zM77 212q0 96 65.5 161t164.5 65t164.5 -65t65.5 -161t-65.5 -161t-164.5 -65t-164.5 65t-65.5 161z
M484 212q0 76 -50 127.5t-127 51.5t-127 -51.5t-50 -127.5t50 -127.5t127 -51.5t127 51.5t50 127.5z" />
    <glyph glyph-name="OE" unicode="&#x152;" 
d="M585 0h-278q-139 0 -212 78.5t-73 206.5t73 206.5t212 78.5h270v-176h-47v108l-22 22h-151v-208h138v-44h-138v-226h159l22 22v112h47v-180zM308 46v478q-115 0 -174.5 -66t-59.5 -173t59.5 -173t174.5 -66z" />
    <glyph glyph-name="oe" unicode="&#x153;" 
d="M547 244q-3 65 -28 106t-69 41q-46 0 -77 -40.5t-38 -106.5h212zM284 211q0 77 -31 128.5t-80 51.5t-79.5 -51.5t-30.5 -128.5t30.5 -127t79.5 -50t80 50t31 127zM596 65q-60 -79 -140 -79q-49 0 -87.5 32t-59.5 86q-18 -54 -54 -86t-82 -32q-68 0 -113 64t-45 161
q0 96 45.5 161.5t112.5 65.5q46 0 82 -32.5t54 -88.5q19 56 56.5 88.5t84.5 32.5q69 0 109 -68t40 -169h-265q2 -71 35.5 -119.5t86.5 -48.5q62 0 111 64z" />
    <glyph glyph-name="Racute" unicode="&#x154;" 
d="M170 524v-216h131q171 0 171 108t-171 108h-131zM260 0h-221v46h59l22 22v434l-22 22h-59v46h264q223 0 223 -154q0 -142 -192 -153l162 -216h97v-47h-162v46l-157 216h-104v-194l22 -22h68v-46zM269 660l70 145q14 34 45 34q17 0 28.5 -11.5t11.5 -29.5q0 -22 -24 -41
l-115 -109z" />
    <glyph glyph-name="racute" unicode="&#x155;" 
d="M281 523l70 145q14 34 45 34q17 0 28.5 -11.5t11.5 -29.5q0 -21 -24 -41l-115 -109zM441 308q0 19 12 31t30 12q10 0 18 -6q1 7 -2 12q-2 17 -17.5 26.5t-40.5 9.5q-85 0 -205 -150v-175l22 -22h186v-46h-391v46h113l22 22v288l-22 22h-113v46h183v-122q107 136 204 136
q56 0 85 -28.5t29 -70.5q0 -34 -18.5 -55t-45.5 -21q-22 0 -35.5 12t-13.5 33z" />
    <glyph glyph-name="Rcommaaccent" unicode="&#x156;" 
d="M245 -127q0 23 16 39t38 16q23 0 39 -16.5t16 -39.5q0 -21 -16 -42l-93 -116l-23 16l62 94q-17 4 -28 17.5t-11 31.5zM170 524v-216h131q171 0 171 108t-171 108h-131zM260 0h-221v46h59l22 22v434l-22 22h-59v46h264q223 0 223 -154q0 -142 -192 -153l162 -216h97v-47
h-162v46l-157 216h-104v-194l22 -22h68v-46z" />
    <glyph glyph-name="rcommaaccent" unicode="&#x157;" 
d="M159 -127q0 23 16 39t38 16q23 0 39 -16.5t16 -39.5q0 -21 -16 -42l-93 -116l-23 16l62 94q-17 4 -28 17.5t-11 31.5zM441 308q0 19 12 31t30 12q10 0 18 -6q1 7 -2 12q-2 17 -17.5 26.5t-40.5 9.5q-85 0 -205 -150v-175l22 -22h186v-46h-391v46h113l22 22v288l-22 22
h-113v46h183v-122q107 136 204 136q56 0 85 -28.5t29 -70.5q0 -34 -18.5 -55t-45.5 -21q-22 0 -35.5 12t-13.5 33z" />
    <glyph glyph-name="Rcaron" unicode="&#x158;" 
d="M294 648q-26 0 -43 27l-99 142l21 16l121 -114l122 114l20 -16l-99 -142q-17 -27 -43 -27zM170 524v-216h131q171 0 171 108t-171 108h-131zM260 0h-221v46h59l22 22v434l-22 22h-59v46h264q223 0 223 -154q0 -142 -192 -153l162 -216h97v-47h-162v46l-157 216h-104v-194
l22 -22h68v-46z" />
    <glyph glyph-name="rcaron" unicode="&#x159;" 
d="M315 511q-26 0 -43 27l-99 142l21 16l121 -114l122 114l20 -16l-99 -142q-17 -27 -43 -27zM441 308q0 19 12 31t30 12q10 0 18 -6q1 7 -2 12q-2 17 -17.5 26.5t-40.5 9.5q-85 0 -205 -150v-175l22 -22h186v-46h-391v46h113l22 22v288l-22 22h-113v46h183v-122
q107 136 204 136q56 0 85 -28.5t29 -70.5q0 -34 -18.5 -55t-45.5 -21q-22 0 -35.5 12t-13.5 33z" />
    <glyph glyph-name="Sacute" unicode="&#x15a;" 
d="M334 33q66 0 108 32.5t42 87.5q0 75 -95 99l-145 36q-77 20 -114.5 51.5t-37.5 93.5q0 68 53 109.5t136 41.5q107 0 167 -85l12 7v64h49v-184h-41q-55 151 -187 151q-60 0 -99 -28t-39 -75q0 -40 27.5 -61t82.5 -34l147 -37q135 -35 135 -147q0 -75 -55.5 -122
t-145.5 -47q-57 0 -109.5 27.5t-78.5 69.5l-12 -7v-76h-48v199h41q28 -82 85 -124t122 -42zM269 660l70 145q14 34 45 34q17 0 28.5 -11.5t11.5 -29.5q0 -22 -24 -41l-115 -109z" />
    <glyph glyph-name="sacute" unicode="&#x15b;" 
d="M268 523l70 145q14 34 45 34q17 0 28.5 -11.5t11.5 -29.5q0 -21 -24 -41l-115 -109zM378 180l-141 28q-69 14 -101 40t-32 73q0 52 45 84.5t114 32.5q110 0 166 -71l11 4v53h45v-141h-38q-23 50 -73 81t-106 31q-50 0 -81.5 -20t-31.5 -53q0 -29 22.5 -43t70.5 -24
l146 -30q56 -12 84.5 -37.5t28.5 -73.5q0 -58 -44 -93t-122 -35q-60 0 -109 22.5t-77 57.5l-13 -8v-58h-45v150h42q72 -120 200 -120q55 0 86.5 21.5t31.5 61.5q0 30 -20.5 44.5t-58.5 22.5z" />
    <glyph glyph-name="Scircumflex" unicode="&#x15c;" 
d="M334 33q66 0 108 32.5t42 87.5q0 75 -95 99l-145 36q-77 20 -114.5 51.5t-37.5 93.5q0 68 53 109.5t136 41.5q107 0 167 -85l12 7v64h49v-184h-41q-55 151 -187 151q-60 0 -99 -28t-39 -75q0 -40 27.5 -61t82.5 -34l147 -37q135 -35 135 -147q0 -75 -55.5 -122
t-145.5 -47q-57 0 -109.5 27.5t-78.5 69.5l-12 -7v-76h-48v199h41q28 -82 85 -124t122 -42zM300 830q24 0 43 -27l99 -143l-20 -15l-122 113l-121 -113l-21 15l99 143q19 27 43 27z" />
    <glyph glyph-name="scircumflex" unicode="&#x15d;" 
d="M302 696q24 0 43 -27l99 -142l-20 -16l-122 113l-121 -113l-21 16l99 142q19 27 43 27zM378 180l-141 28q-69 14 -101 40t-32 73q0 52 45 84.5t114 32.5q110 0 166 -71l11 4v53h45v-141h-38q-23 50 -73 81t-106 31q-50 0 -81.5 -20t-31.5 -53q0 -29 22.5 -43t70.5 -24
l146 -30q56 -12 84.5 -37.5t28.5 -73.5q0 -58 -44 -93t-122 -35q-60 0 -109 22.5t-77 57.5l-13 -8v-58h-45v150h42q72 -120 200 -120q55 0 86.5 21.5t31.5 61.5q0 30 -20.5 44.5t-58.5 22.5z" />
    <glyph glyph-name="Scedilla" unicode="&#x15e;" 
d="M297 -227q-46 0 -84 20t-54 60l37 23q27 -65 101 -65q65 0 65 50q0 24 -23 38t-68 12l-34 23l28 63q-82 26 -119 86l-12 -7v-76h-48v199h41q28 -82 85 -124t122 -42q66 0 108 32.5t42 87.5q0 75 -95 99l-145 36q-77 20 -114.5 51.5t-37.5 93.5q0 68 53 109.5t136 41.5
q107 0 167 -85l12 7v64h49v-184h-41q-55 151 -187 151q-60 0 -99 -28t-39 -75q0 -40 27.5 -61t82.5 -34l147 -37q135 -35 135 -147q0 -75 -55.5 -122t-145.5 -47q-16 0 -34 3l-17 -41q57 0 89.5 -22t32.5 -65q0 -42 -32 -65t-76 -23z" />
    <glyph glyph-name="scedilla" unicode="&#x15f;" 
d="M301 -227q-46 0 -84 20t-54 60l37 23q27 -65 101 -65q65 0 65 50q0 24 -23 38t-68 12l-34 23l27 62q-72 19 -113 70l-13 -8v-58h-45v150h42q72 -120 200 -120q55 0 86.5 21.5t31.5 61.5q0 30 -20.5 44.5t-58.5 22.5l-141 28q-69 14 -101 40t-32 73q0 52 45 84.5t114 32.5
q110 0 166 -71l11 4v53h45v-141h-38q-23 50 -73 81t-106 31q-50 0 -81.5 -20t-31.5 -53q0 -29 22.5 -43t70.5 -24l146 -30q56 -12 84.5 -37.5t28.5 -73.5q0 -58 -44 -93t-122 -35q-13 0 -37 2l-17 -40q57 0 89.5 -22t32.5 -65q0 -42 -32 -65t-76 -23z" />
    <glyph glyph-name="Scaron" unicode="&#x160;" 
d="M334 33q66 0 108 32.5t42 87.5q0 75 -95 99l-145 36q-77 20 -114.5 51.5t-37.5 93.5q0 68 53 109.5t136 41.5q107 0 167 -85l12 7v64h49v-184h-41q-55 151 -187 151q-60 0 -99 -28t-39 -75q0 -40 27.5 -61t82.5 -34l147 -37q135 -35 135 -147q0 -75 -55.5 -122
t-145.5 -47q-57 0 -109.5 27.5t-78.5 69.5l-12 -7v-76h-48v199h41q28 -82 85 -124t122 -42zM300 648q-26 0 -43 27l-99 142l21 16l121 -114l122 114l20 -16l-99 -142q-17 -27 -43 -27z" />
    <glyph glyph-name="scaron" unicode="&#x161;" 
d="M302 511q-26 0 -43 27l-99 142l21 16l121 -114l122 114l20 -16l-99 -142q-17 -27 -43 -27zM378 180l-141 28q-69 14 -101 40t-32 73q0 52 45 84.5t114 32.5q110 0 166 -71l11 4v53h45v-141h-38q-23 50 -73 81t-106 31q-50 0 -81.5 -20t-31.5 -53q0 -29 22.5 -43t70.5 -24
l146 -30q56 -12 84.5 -37.5t28.5 -73.5q0 -58 -44 -93t-122 -35q-60 0 -109 22.5t-77 57.5l-13 -8v-58h-45v150h42q72 -120 200 -120q55 0 86.5 21.5t31.5 61.5q0 30 -20.5 44.5t-58.5 22.5z" />
    <glyph glyph-name="Tcommaaccent" unicode="&#x162;" 
d="M313 -227q-46 0 -84 20t-54 60l37 23q27 -65 101 -65q65 0 65 50q0 24 -23 38t-68 12l-34 23l29 66h-140v46h117l22 22v456h-160l-22 -22v-138h-47v206h510v-206h-47v138l-22 22h-160v-456l22 -22h117v-46h-151l-22 -52q57 0 89.5 -22t32.5 -65q0 -42 -32 -65t-76 -23z
" />
    <glyph glyph-name="tcommaaccent" unicode="&#x163;" 
d="M335 -227q-46 0 -84 20t-54 60l37 23q27 -65 101 -65q65 0 65 50q0 24 -23 38t-68 12l-34 23l26 59q-132 32 -132 202v161l-22 22h-103v46h125v154h50v-154h263v-46h-242l-22 -22v-154q0 -168 144 -168q93 0 156 90l32 -30q-72 -108 -188 -108q-16 0 -24 1l-17 -39
q57 0 89.5 -22t32.5 -65q0 -42 -32 -65t-76 -23z" />
    <glyph glyph-name="Tcaron" unicode="&#x164;" 
d="M307 648q-26 0 -43 27l-99 142l21 16l121 -114l122 114l20 -16l-99 -142q-17 -27 -43 -27zM52 570h510v-206h-47v138l-22 22h-160v-456l22 -22h117v-46h-330v46h117l22 22v456h-160l-22 -22v-138h-47v206z" />
    <glyph glyph-name="tcaron" unicode="&#x165;" 
d="M340 522l62 154q13 39 46 39q16 0 27.5 -11t11.5 -28q0 -19 -18 -40l-111 -124zM169 356l-22 22h-103v46h125v154h50v-154h263v-46h-242l-22 -22v-154q0 -168 144 -168q93 0 156 90l32 -30q-72 -108 -188 -108q-88 0 -140.5 50.5t-52.5 158.5v161z" />
    <glyph glyph-name="Tbar" unicode="&#x166;" 
d="M472 46v-46h-330v46h117l22 22v191h-113v46h113v219h-160l-22 -22v-138h-47v206h510v-206h-47v138l-22 22h-160v-219h113v-46h-113v-191l22 -22h117z" />
    <glyph glyph-name="tbar" unicode="&#x167;" 
d="M550 94q-72 -108 -188 -108q-88 0 -140.5 50.5t-52.5 158.5v33h-125v45h125v83l-22 22h-103v46h125v154h50v-154h263v-46h-242l-22 -22v-83h253v-45h-253v-26q0 -168 144 -168q93 0 156 90z" />
    <glyph glyph-name="Utilde" unicode="&#x168;" 
d="M440 772h46q0 -53 -27 -86.5t-70 -33.5q-28 0 -55 19t-50.5 37.5t-42.5 18.5q-24 0 -41 -20t-17 -52h-45q0 53 27 86t71 33q34 0 79.5 -37.5t68.5 -37.5q24 0 40 20t16 53zM307 -14q-85 0 -140.5 55.5t-55.5 140.5v320l-22 22h-60v46h214v-46h-60l-22 -22v-317
q0 -67 41.5 -109t104.5 -42t104.5 42t41.5 109v317l-22 22h-60v46h214v-46h-60l-22 -22v-320q0 -85 -55.5 -140.5t-140.5 -55.5z" />
    <glyph glyph-name="utilde" unicode="&#x169;" 
d="M339 424h139v-356l22 -22h68v-46h-138v81q-22 -40 -65 -67.5t-94 -27.5q-71 0 -113.5 40.5t-42.5 119.5v210l-22 22h-68v46h138v-265q0 -126 109 -126q101 0 158 108v215l-22 22h-69v46zM419 642h46q0 -53 -27 -86.5t-70 -33.5q-28 0 -55 19t-50.5 37.5t-42.5 18.5
q-24 0 -41 -20t-17 -52h-45q0 53 27 86t71 33q34 0 79.5 -37.5t68.5 -37.5q24 0 40 20t16 53z" />
    <glyph glyph-name="Umacron" unicode="&#x16a;" 
d="M157 723h300v-48h-300v48zM307 -14q-85 0 -140.5 55.5t-55.5 140.5v320l-22 22h-60v46h214v-46h-60l-22 -22v-317q0 -67 41.5 -109t104.5 -42t104.5 42t41.5 109v317l-22 22h-60v46h214v-46h-60l-22 -22v-320q0 -85 -55.5 -140.5t-140.5 -55.5z" />
    <glyph glyph-name="umacron" unicode="&#x16b;" 
d="M339 424h139v-356l22 -22h68v-46h-138v81q-22 -40 -65 -67.5t-94 -27.5q-71 0 -113.5 40.5t-42.5 119.5v210l-22 22h-68v46h138v-265q0 -126 109 -126q101 0 158 108v215l-22 22h-69v46zM141 586h300v-48h-300v48z" />
    <glyph glyph-name="Ubreve" unicode="&#x16c;" 
d="M307 699q44 0 77.5 29t42.5 78l36 -9q-12 -73 -52.5 -114t-103.5 -41t-103.5 41t-52.5 114l36 9q9 -49 42.5 -78t77.5 -29zM307 -14q-85 0 -140.5 55.5t-55.5 140.5v320l-22 22h-60v46h214v-46h-60l-22 -22v-317q0 -67 41.5 -109t104.5 -42t104.5 42t41.5 109v317l-22 22
h-60v46h214v-46h-60l-22 -22v-320q0 -85 -55.5 -140.5t-140.5 -55.5z" />
    <glyph glyph-name="ubreve" unicode="&#x16d;" 
d="M339 424h139v-356l22 -22h68v-46h-138v81q-22 -40 -65 -67.5t-94 -27.5q-71 0 -113.5 40.5t-42.5 119.5v210l-22 22h-68v46h138v-265q0 -126 109 -126q101 0 158 108v215l-22 22h-69v46zM291 566q44 0 77.5 29t42.5 78l36 -9q-12 -73 -52.5 -114t-103.5 -41t-103.5 41
t-52.5 114l36 9q9 -49 42.5 -78t77.5 -29z" />
    <glyph glyph-name="Uring" unicode="&#x16e;" 
d="M307 -14q-85 0 -140.5 55.5t-55.5 140.5v320l-22 22h-60v46h214v-46h-60l-22 -22v-317q0 -67 41.5 -109t104.5 -42t104.5 42t41.5 109v317l-22 22h-60v46h214v-46h-60l-22 -22v-320q0 -85 -55.5 -140.5t-140.5 -55.5zM370 746q0 29 -17.5 47t-45.5 18t-45.5 -18
t-17.5 -47t17.5 -47t45.5 -18t45.5 18t17.5 47zM415 746q0 -46 -31 -77t-77 -31t-77 31t-31 77t31 77t77 31t77 -31t31 -77z" />
    <glyph glyph-name="uring" unicode="&#x16f;" 
d="M356 609q0 30 -18 48.5t-47 18.5t-47 -18.5t-18 -48.5q0 -29 18 -48t47 -19t47 19t18 48zM399 609q0 -46 -31 -77t-77 -31t-77 31t-31 77t31 77t77 31t77 -31t31 -77zM339 424h139v-356l22 -22h68v-46h-138v81q-22 -40 -65 -67.5t-94 -27.5q-71 0 -113.5 40.5
t-42.5 119.5v210l-22 22h-68v46h138v-265q0 -126 109 -126q101 0 158 108v215l-22 22h-69v46z" />
    <glyph glyph-name="Uhungarumlaut" unicode="&#x170;" 
d="M307 -14q-85 0 -140.5 55.5t-55.5 140.5v320l-22 22h-60v46h214v-46h-60l-22 -22v-317q0 -67 41.5 -109t104.5 -42t104.5 42t41.5 109v317l-22 22h-60v46h214v-46h-60l-22 -22v-320q0 -85 -55.5 -140.5t-140.5 -55.5zM377 660l70 145q14 34 45 34q17 0 28.5 -11.5
t11.5 -29.5q0 -22 -24 -41l-115 -109zM200 660l69 145q16 34 46 34q17 0 28 -11.5t11 -29.5q0 -21 -23 -41l-115 -109z" />
    <glyph glyph-name="uhungarumlaut" unicode="&#x171;" 
d="M339 424h139v-356l22 -22h68v-46h-138v81q-22 -40 -65 -67.5t-94 -27.5q-71 0 -113.5 40.5t-42.5 119.5v210l-22 22h-68v46h138v-265q0 -126 109 -126q101 0 158 108v215l-22 22h-69v46zM350 523l70 145q14 34 45 34q17 0 28.5 -11.5t11.5 -29.5q0 -21 -24 -41l-115 -109
zM173 523l69 145q16 34 46 34q17 0 28 -11.5t11 -29.5q0 -21 -23 -41l-115 -109z" />
    <glyph glyph-name="Uogonek" unicode="&#x172;" 
d="M319 -230q-39 0 -60 21.5t-21 55.5q0 30 21 61.5t68 78.5q-7 -1 -20 -1q-85 0 -140.5 55.5t-55.5 140.5v320l-22 22h-60v46h214v-46h-60l-22 -22v-317q0 -67 41.5 -109t104.5 -42t104.5 42t41.5 109v317l-22 22h-60v46h214v-46h-60l-22 -22v-320q0 -56 -25 -100.5
t-69 -69.5q-74 -72 -99.5 -103t-25.5 -57q0 -19 10.5 -29.5t27.5 -10.5q42 0 88 49l24 -34q-55 -57 -115 -57z" />
    <glyph glyph-name="uogonek" unicode="&#x173;" 
d="M524 -173q-55 -57 -115 -57q-39 0 -60 21.5t-21 55.5q0 32 23.5 66t78.5 87v81q-22 -40 -65 -67.5t-94 -27.5q-71 0 -113.5 40.5t-42.5 119.5v210l-22 22h-68v46h138v-265q0 -126 109 -126q101 0 158 108v215l-22 22h-69v46h139v-356l22 -22h68v-46h-81
q-65 -64 -89 -93.5t-24 -54.5q0 -19 10.5 -29.5t27.5 -10.5q42 0 88 49z" />
    <glyph glyph-name="Wcircumflex" unicode="&#x174;" 
d="M342 430l81 -381h24l54 457l-14 18h-95v46h213v-46h-51l-66 -524h-99l-81 382l-81 -382h-101l-65 524h-52v46h216v-46h-95l-15 -18l55 -457h24l80 381h68zM307 830q24 0 43 -27l99 -143l-20 -15l-122 113l-121 -113l-21 15l99 143q19 27 43 27z" />
    <glyph glyph-name="wcircumflex" unicode="&#x175;" 
d="M307 696q24 0 43 -27l99 -142l-20 -16l-122 113l-121 -113l-21 16l99 142q19 27 43 27zM341 316l68 -274h21l59 321l-12 15h-82v46h194v-46h-49l-75 -378h-88l-70 272l-70 -272h-88l-75 378h-49v46h196v-46h-82l-12 -15l59 -321h21l68 274h66z" />
    <glyph glyph-name="Ycircumflex" unicode="&#x176;" 
d="M333 214v-146l22 -22h117v-46h-330v46h117l22 22v146l-209 310h-62v46h234v-46h-82l-18 -18l166 -249l164 249l-18 18h-82v46h230v-46h-62zM307 830q24 0 43 -27l99 -143l-20 -15l-122 113l-121 -113l-21 15l99 143q19 27 43 27z" />
    <glyph glyph-name="ycircumflex" unicode="&#x177;" 
d="M42 -108q0 26 16 43.5t39 17.5q21 0 36 -13t15 -34q0 -17 -12 -29t-31 -13q9 -23 46 -23q35 0 60.5 33.5t73.5 127.5l-195 376h-56v46h214v-46h-78l-14 -17l156 -310l156 310l-14 17h-78v46h210v-46h-56l-205 -397q-51 -99 -87.5 -141t-86.5 -42q-45 0 -77 26t-32 68z
M318 696q24 0 43 -27l99 -142l-20 -16l-122 113l-121 -113l-21 16l99 142q19 27 43 27z" />
    <glyph glyph-name="Ydieresis" unicode="&#x178;" 
d="M333 214v-146l22 -22h117v-46h-330v46h117l22 22v146l-209 310h-62v46h234v-46h-82l-18 -18l166 -249l164 249l-18 18h-82v46h230v-46h-62zM411 659q-24 0 -40.5 16.5t-16.5 39.5q0 24 16.5 40.5t40.5 16.5t40.5 -16.5t16.5 -40.5q0 -23 -16.5 -39.5t-40.5 -16.5z
M203 660q-23 0 -40 16.5t-17 39.5t17 39.5t40 16.5q24 0 40.5 -16.5t16.5 -39.5t-16.5 -39.5t-40.5 -16.5z" />
    <glyph glyph-name="Zacute" unicode="&#x179;" 
d="M124 46h351l22 22v116h49v-184h-479v55l413 469h-327l-22 -22v-112h-48v180h451v-60zM275 660l70 145q14 34 45 34q17 0 28.5 -11.5t11.5 -29.5q0 -22 -24 -41l-115 -109z" />
    <glyph glyph-name="zacute" unicode="&#x17a;" 
d="M277 523l70 145q14 34 45 34q17 0 28.5 -11.5t11.5 -29.5q0 -21 -24 -41l-115 -109zM141 45h315l22 22v102h46v-169h-442v53l366 327h-285l-22 -22v-98h-46v164h414v-53z" />
    <glyph glyph-name="Zdotaccent" unicode="&#x17b;" 
d="M306 657q-24 0 -40.5 16.5t-16.5 40.5q0 25 16.5 41.5t40.5 16.5q25 0 41.5 -16.5t16.5 -41.5q0 -24 -16.5 -40.5t-41.5 -16.5zM124 46h351l22 22v116h49v-184h-479v55l413 469h-327l-22 -22v-112h-48v180h451v-60z" />
    <glyph glyph-name="zdotaccent" unicode="&#x17c;" 
d="M141 45h315l22 22v102h46v-169h-442v53l366 327h-285l-22 -22v-98h-46v164h414v-53zM311 534q-24 0 -40.5 16.5t-16.5 40.5q0 25 16.5 41.5t40.5 16.5q25 0 41.5 -16.5t16.5 -41.5q0 -24 -16.5 -40.5t-41.5 -16.5z" />
    <glyph glyph-name="Zcaron" unicode="&#x17d;" 
d="M307 648q-26 0 -43 27l-99 142l21 16l121 -114l122 114l20 -16l-99 -142q-17 -27 -43 -27zM124 46h351l22 22v116h49v-184h-479v55l413 469h-327l-22 -22v-112h-48v180h451v-60z" />
    <glyph glyph-name="zcaron" unicode="&#x17e;" 
d="M311 511q-26 0 -43 27l-99 142l21 16l121 -114l122 114l20 -16l-99 -142q-17 -27 -43 -27zM141 45h315l22 22v102h46v-169h-442v53l366 327h-285l-22 -22v-98h-46v164h414v-53z" />
    <glyph glyph-name="florin" unicode="&#x192;" 
d="M312 4q-21 -183 -158 -183q-64 0 -97.5 38.5t-33.5 96.5q0 27 14.5 43.5t35.5 16.5t34.5 -12.5t13.5 -31.5q0 -17 -13 -29t-34 -11q5 -29 25 -48t55 -19q89 0 104 138l23 212h-127v45h132l16 141q21 183 158 183q63 0 97 -38.5t34 -96.5q0 -27 -14.5 -43.5t-35.5 -16.5
q-22 0 -35 12t-13 32q0 17 13 29t33 11q-4 29 -24 48t-55 19q-90 0 -104 -138l-16 -142h133v-45h-138z" />
    <glyph glyph-name="Aringacute" unicode="&#x1fa;" 
d="M370 655q0 29 -17.5 47t-45.5 18t-45.5 -18t-17.5 -47t17.5 -47t45.5 -18t45.5 18t17.5 47zM411 244l-106 275l-106 -275h212zM229 46v-46h-219v46h62l198 507q-32 11 -51.5 38.5t-19.5 63.5q0 46 31 77t77 31t77 -31t31 -77q0 -36 -19.5 -63.5t-51.5 -38.5l198 -507h62
v-46h-223v46h82l18 18l-52 134h-247l-52 -134l17 -18h82zM255 813l70 145q14 34 45 34q17 0 28.5 -11.5t11.5 -29.5q0 -21 -24 -41l-115 -109z" />
    <glyph glyph-name="aringacute" unicode="&#x1fb;" 
d="M96 338q0 47 57.5 73.5t133.5 26.5q79 0 121.5 -40t42.5 -115v-180q0 -70 46 -70q27 0 60 37l26 -33q-42 -51 -92 -51q-37 0 -61.5 25t-27.5 70q-35 -42 -85.5 -68.5t-106.5 -26.5q-60 0 -97.5 30t-37.5 83q0 54 42 84.5t129 46.5l155 36v18q0 111 -119 111
q-72 0 -116 -25q26 -9 26 -38q0 -18 -13.5 -30.5t-34.5 -12.5t-34.5 13.5t-13.5 35.5zM401 129v96l-146 -35q-127 -23 -127 -89q0 -33 25 -51.5t61 -18.5q94 0 187 98zM348 588q0 30 -18 48.5t-47 18.5t-47 -18.5t-18 -48.5q0 -29 18 -48t47 -19t47 19t18 48zM391 588
q0 -46 -31 -77t-77 -31t-77 31t-31 77t31 77t77 31t77 -31t31 -77zM252 755l70 145q14 34 45 34q17 0 28.5 -11.5t11.5 -29.5q0 -21 -24 -41l-115 -109z" />
    <glyph glyph-name="AEacute" unicode="&#x1fc;" 
d="M350 660l70 145q14 34 45 34q17 0 28.5 -11.5t11.5 -29.5q0 -22 -24 -41l-115 -109zM311 244v280h-26l-133 -280h159zM162 46v-46h-151v48l217 458l-16 18h-68v46h437v-176h-47v108l-22 22h-152v-208h141v-44h-141v-226h159l22 22v112h48v-180h-346v46h46l22 22v130h-181
l-64 -134l18 -18h78z" />
    <glyph glyph-name="aeacute" unicode="&#x1fd;" 
d="M303 523l70 145q14 34 45 34q17 0 28.5 -11.5t11.5 -29.5q0 -21 -24 -41l-115 -109zM583 65q-60 -79 -144 -79q-75 0 -123 65q-72 -65 -154 -65q-59 0 -97 32.5t-38 91.5q0 126 223 128h17q4 54 27 101q-25 56 -92 56q-46 0 -87 -24q11 -3 19 -13.5t8 -23.5
q0 -18 -13 -30t-33 -12q-21 0 -33.5 13t-12.5 35q0 41 46.5 69.5t105.5 28.5q80 0 118 -58q48 58 113 58q72 0 113 -68t41 -169l-274 -5q4 -70 38.5 -116.5t87.5 -46.5q63 0 115 64zM535 242v6q-6 63 -31.5 103t-70.5 40q-48 0 -80.5 -42.5t-38.5 -109.5zM266 195h-22
q-164 -2 -164 -84q0 -38 25 -59t61 -21q66 0 129 52q-26 52 -29 112z" />
    <glyph glyph-name="Oslashacute" unicode="&#x1fe;" 
d="M307 534q-94 0 -147.5 -71t-53.5 -178q0 -111 56 -181l273 381q-52 49 -128 49zM307 36q94 0 147.5 71t53.5 178q0 98 -44 165l-271 -377q50 -37 114 -37zM562 285q0 -129 -70 -214t-185 -85q-81 0 -143 46l-62 -86l-36 25l65 90q-79 85 -79 224q0 129 70 214t185 85
q91 0 158 -57l55 77l36 -25l-61 -84q67 -84 67 -210zM276 660l70 145q14 34 45 34q17 0 28.5 -11.5t11.5 -29.5q0 -22 -24 -41l-115 -109z" />
    <glyph glyph-name="oslashacute" unicode="&#x1ff;" 
d="M307 392q-77 0 -127.5 -52t-50.5 -128q0 -78 53 -131l222 284q-43 27 -97 27zM307 32q77 0 127.5 52t50.5 128q0 74 -48 125l-221 -282q40 -23 91 -23zM537 212q0 -96 -65.5 -161t-164.5 -65q-67 0 -120 31l-61 -77l-34 26l60 76q-75 65 -75 170q0 96 65.5 161t164.5 65
q70 0 127 -35l60 77l34 -27l-60 -77q69 -64 69 -164zM272 523l70 145q14 34 45 34q17 0 28.5 -11.5t11.5 -29.5q0 -21 -24 -41l-115 -109z" />
    <glyph glyph-name="Scommaaccent" unicode="&#x218;" 
d="M246 -127q0 23 16 39t38 16q23 0 39 -16.5t16 -39.5q0 -21 -16 -42l-93 -116l-23 16l62 94q-17 4 -28 17.5t-11 31.5zM334 33q66 0 108 32.5t42 87.5q0 75 -95 99l-145 36q-77 20 -114.5 51.5t-37.5 93.5q0 68 53 109.5t136 41.5q107 0 167 -85l12 7v64h49v-184h-41
q-55 151 -187 151q-60 0 -99 -28t-39 -75q0 -40 27.5 -61t82.5 -34l147 -37q135 -35 135 -147q0 -75 -55.5 -122t-145.5 -47q-57 0 -109.5 27.5t-78.5 69.5l-12 -7v-76h-48v199h41q28 -82 85 -124t122 -42z" />
    <glyph glyph-name="scommaaccent" unicode="&#x219;" 
d="M247 -127q0 23 16 39t38 16q23 0 39 -16.5t16 -39.5q0 -21 -16 -42l-93 -116l-23 16l62 94q-17 4 -28 17.5t-11 31.5zM378 180l-141 28q-69 14 -101 40t-32 73q0 52 45 84.5t114 32.5q110 0 166 -71l11 4v53h45v-141h-38q-23 50 -73 81t-106 31q-50 0 -81.5 -20
t-31.5 -53q0 -29 22.5 -43t70.5 -24l146 -30q56 -12 84.5 -37.5t28.5 -73.5q0 -58 -44 -93t-122 -35q-60 0 -109 22.5t-77 57.5l-13 -8v-58h-45v150h42q72 -120 200 -120q55 0 86.5 21.5t31.5 61.5q0 30 -20.5 44.5t-58.5 22.5z" />
    <glyph glyph-name="uni021A" unicode="&#x21a;" 
d="M252 -127q0 23 16 39t38 16q23 0 39 -16.5t16 -39.5q0 -21 -16 -42l-93 -116l-23 16l62 94q-17 4 -28 17.5t-11 31.5zM52 570h510v-206h-47v138l-22 22h-160v-456l22 -22h117v-46h-330v46h117l22 22v456h-160l-22 -22v-138h-47v206z" />
    <glyph glyph-name="uni021B" unicode="&#x21b;" 
d="M300 -127q0 23 16 39t38 16q23 0 39 -16.5t16 -39.5q0 -21 -16 -42l-93 -116l-23 16l62 94q-17 4 -28 17.5t-11 31.5zM169 356l-22 22h-103v46h125v154h50v-154h263v-46h-242l-22 -22v-154q0 -168 144 -168q93 0 156 90l32 -30q-72 -108 -188 -108q-88 0 -140.5 50.5
t-52.5 158.5v161z" />
    <glyph glyph-name="uni0237" unicode="&#x237;" 
d="M73 -47q0 28 16 46.5t39 18.5t37.5 -13.5t14.5 -34.5q0 -18 -13.5 -31t-34.5 -13q11 -34 45.5 -57t81.5 -23q68 0 109.5 45.5t41.5 138.5v326l-22 22h-230v46h300v-399q0 -110 -55.5 -166.5t-143.5 -56.5q-76 0 -131 45.5t-55 105.5z" />
    <glyph glyph-name="circumflex" unicode="&#x2c6;" 
d="M307 696q24 0 43 -27l99 -142l-20 -16l-122 113l-121 -113l-21 16l99 142q19 27 43 27z" />
    <glyph glyph-name="caron" unicode="&#x2c7;" 
d="M307 511q-26 0 -43 27l-99 142l21 16l121 -114l122 114l20 -16l-99 -142q-17 -27 -43 -27z" />
    <glyph glyph-name="breve" unicode="&#x2d8;" 
d="M307 566q44 0 77.5 29t42.5 78l36 -9q-12 -73 -52.5 -114t-103.5 -41t-103.5 41t-52.5 114l36 9q9 -49 42.5 -78t77.5 -29z" />
    <glyph glyph-name="dotaccent" unicode="&#x2d9;" 
d="M306 534q-24 0 -40.5 16.5t-16.5 40.5q0 25 16.5 41.5t40.5 16.5q25 0 41.5 -16.5t16.5 -41.5q0 -24 -16.5 -40.5t-41.5 -16.5z" />
    <glyph glyph-name="ring" unicode="&#x2da;" 
d="M372 609q0 30 -18 48.5t-47 18.5t-47 -18.5t-18 -48.5q0 -29 18 -48t47 -19t47 19t18 48zM415 609q0 -46 -31 -77t-77 -31t-77 31t-31 77t31 77t77 31t77 -31t31 -77z" />
    <glyph glyph-name="ogonek" unicode="&#x2db;" 
d="M315 39l29 -26q-75 -73 -100.5 -104t-25.5 -57q0 -19 10.5 -29.5t27.5 -10.5q42 0 88 49l24 -34q-55 -57 -115 -57q-39 0 -60 21.5t-21 55.5q0 37 32 77.5t111 114.5z" />
    <glyph glyph-name="tilde" unicode="&#x2dc;" 
d="M435 642h46q0 -53 -27 -86.5t-70 -33.5q-28 0 -55 19t-50.5 37.5t-42.5 18.5q-24 0 -41 -20t-17 -52h-45q0 53 27 86t71 33q34 0 79.5 -37.5t68.5 -37.5q24 0 40 20t16 53z" />
    <glyph glyph-name="hungarumlaut" unicode="&#x2dd;" 
d="M305 523l70 145q14 34 45 34q17 0 28.5 -11.5t11.5 -29.5q0 -21 -24 -41l-115 -109zM128 523l69 145q16 34 46 34q17 0 28 -11.5t11 -29.5q0 -21 -23 -41l-115 -109z" />
    <glyph glyph-name="uni0326" unicode="&#x326;" 
d="M262 -127q0 23 16 39t38 16q23 0 39 -16.5t16 -39.5q0 -21 -16 -42l-93 -116l-23 16l62 94q-17 4 -28 17.5t-11 31.5z" />
    <glyph glyph-name="Wgrave" unicode="&#x1e80;" 
d="M338 660l-16 -12l-115 109q-23 20 -23 41q0 18 11 29.5t28 11.5q30 0 46 -34zM342 430l81 -381h24l54 457l-14 18h-95v46h213v-46h-51l-66 -524h-99l-81 382l-81 -382h-101l-65 524h-52v46h216v-46h-95l-15 -18l55 -457h24l80 381h68z" />
    <glyph glyph-name="wgrave" unicode="&#x1e81;" 
d="M341 316l68 -274h21l59 321l-12 15h-82v46h194v-46h-49l-75 -378h-88l-70 272l-70 -272h-88l-75 378h-49v46h196v-46h-82l-12 -15l59 -321h21l68 274h66zM342 523l-16 -12l-115 109q-23 20 -23 41q0 18 11 29.5t28 11.5q30 0 46 -34z" />
    <glyph glyph-name="Wacute" unicode="&#x1e82;" 
d="M276 660l70 145q14 34 45 34q17 0 28.5 -11.5t11.5 -29.5q0 -22 -24 -41l-115 -109zM342 430l81 -381h24l54 457l-14 18h-95v46h213v-46h-51l-66 -524h-99l-81 382l-81 -382h-101l-65 524h-52v46h216v-46h-95l-15 -18l55 -457h24l80 381h68z" />
    <glyph glyph-name="wacute" unicode="&#x1e83;" 
d="M273 523l70 145q14 34 45 34q17 0 28.5 -11.5t11.5 -29.5q0 -21 -24 -41l-115 -109zM341 316l68 -274h21l59 321l-12 15h-82v46h194v-46h-49l-75 -378h-88l-70 272l-70 -272h-88l-75 378h-49v46h196v-46h-82l-12 -15l59 -321h21l68 274h66z" />
    <glyph glyph-name="Wdieresis" unicode="&#x1e84;" 
d="M411 659q-24 0 -40.5 16.5t-16.5 39.5q0 24 16.5 40.5t40.5 16.5t40.5 -16.5t16.5 -40.5q0 -23 -16.5 -39.5t-40.5 -16.5zM203 660q-23 0 -40 16.5t-17 39.5t17 39.5t40 16.5q24 0 40.5 -16.5t16.5 -39.5t-16.5 -39.5t-40.5 -16.5zM342 430l81 -381h24l54 457l-14 18h-95
v46h213v-46h-51l-66 -524h-99l-81 382l-81 -382h-101l-65 524h-52v46h216v-46h-95l-15 -18l55 -457h24l80 381h68z" />
    <glyph glyph-name="wdieresis" unicode="&#x1e85;" 
d="M411 536q-24 0 -40.5 16.5t-16.5 39.5q0 24 16.5 40.5t40.5 16.5t40.5 -16.5t16.5 -40.5q0 -23 -16.5 -39.5t-40.5 -16.5zM203 537q-23 0 -40 16.5t-17 39.5t17 39.5t40 16.5q24 0 40.5 -16.5t16.5 -39.5t-16.5 -39.5t-40.5 -16.5zM341 316l68 -274h21l59 321l-12 15h-82
v46h194v-46h-49l-75 -378h-88l-70 272l-70 -272h-88l-75 378h-49v46h196v-46h-82l-12 -15l59 -321h21l68 274h66z" />
    <glyph glyph-name="Ygrave" unicode="&#x1ef2;" 
d="M333 214v-146l22 -22h117v-46h-330v46h117l22 22v146l-209 310h-62v46h234v-46h-82l-18 -18l166 -249l164 249l-18 18h-82v46h230v-46h-62zM338 660l-16 -12l-115 109q-23 20 -23 41q0 18 11 29.5t28 11.5q30 0 46 -34z" />
    <glyph glyph-name="ygrave" unicode="&#x1ef3;" 
d="M42 -108q0 26 16 43.5t39 17.5q21 0 36 -13t15 -34q0 -17 -12 -29t-31 -13q9 -23 46 -23q35 0 60.5 33.5t73.5 127.5l-195 376h-56v46h214v-46h-78l-14 -17l156 -310l156 310l-14 17h-78v46h210v-46h-56l-205 -397q-51 -99 -87.5 -141t-86.5 -42q-45 0 -77 26t-32 68z
M353 523l-16 -12l-115 109q-23 20 -23 41q0 18 11 29.5t28 11.5q30 0 46 -34z" />
    <glyph glyph-name="endash" unicode="&#x2013;" 
d="M145 248v53h324v-53h-324z" />
    <glyph glyph-name="emdash" unicode="&#x2014;" 
d="M55 248v53h504v-53h-504z" />
    <glyph glyph-name="quoteleft" unicode="&#x2018;" 
d="M376 431q0 -29 -19.5 -49t-48.5 -20t-49 20.5t-20 49.5q0 25 20 52l124 175l31 -20l-89 -147q23 -5 37 -21t14 -40z" />
    <glyph glyph-name="quoteright" unicode="&#x2019;" 
d="M238 571q0 29 19.5 49t48.5 20t49 -20.5t20 -49.5q0 -25 -20 -52l-124 -175l-31 20l89 147q-23 5 -37 21t-14 40z" />
    <glyph glyph-name="quotesinglbase" unicode="&#x201a;" 
d="M238 62q0 29 19.5 49t48.5 20t49 -20.5t20 -49.5q0 -25 -20 -52l-124 -175l-31 20l89 147q-23 5 -37 21t-14 40z" />
    <glyph glyph-name="quotedblleft" unicode="&#x201c;" 
d="M258 431q0 -29 -19.5 -49t-48.5 -20t-49 20.5t-20 49.5q0 25 20 52l124 175l31 -20l-89 -147q23 -5 37 -21t14 -40zM479 431q0 -29 -19.5 -49t-48.5 -20t-49 20.5t-20 49.5q0 25 20 52l124 175l31 -20l-89 -147q23 -5 37 -21t14 -40z" />
    <glyph glyph-name="quotedblright" unicode="&#x201d;" 
d="M147 571q0 29 19.5 49t48.5 20t49 -20.5t20 -49.5q0 -25 -20 -52l-124 -175l-31 20l89 147q-23 5 -37 21t-14 40zM368 571q0 29 19.5 49t48.5 20t49 -20.5t20 -49.5q0 -25 -20 -52l-124 -175l-31 20l89 147q-23 5 -37 21t-14 40z" />
    <glyph glyph-name="quotedblbase" unicode="&#x201e;" 
d="M147 62q0 29 19.5 49t48.5 20t49 -20.5t20 -49.5q0 -25 -20 -52l-124 -175l-31 20l89 147q-23 5 -37 21t-14 40zM368 62q0 29 19.5 49t48.5 20t49 -20.5t20 -49.5q0 -25 -20 -52l-124 -175l-31 20l89 147q-23 5 -37 21t-14 40z" />
    <glyph glyph-name="dagger" unicode="&#x2020;" 
d="M330 451v-209h-46v209h-137v45h137v129h46v-129h137v-45h-137z" />
    <glyph glyph-name="daggerdbl" unicode="&#x2021;" 
d="M330 337v-95h-46v95h-137v44h137v105h-137v45h137v94h46v-94h137v-45h-137v-105h137v-44h-137z" />
    <glyph glyph-name="bullet" unicode="&#x2022;" 
d="M482 285q0 -71 -51 -121t-124 -50t-123.5 50t-50.5 121q0 72 50.5 122t123.5 50t124 -50t51 -122z" />
    <glyph glyph-name="ellipsis" unicode="&#x2026;" 
d="M443 53q0 27 18.5 46t44.5 19q27 0 46 -19t19 -46q0 -26 -19 -45t-46 -19q-26 0 -44.5 19t-18.5 45zM244 53q0 27 18.5 46t44.5 19q27 0 46 -19t19 -46q0 -26 -19 -45t-46 -19q-26 0 -44.5 19t-18.5 45zM45 53q0 27 18.5 46t44.5 19q27 0 46 -19t19 -46q0 -26 -19 -45
t-46 -19q-26 0 -44.5 19t-18.5 45z" />
    <glyph glyph-name="perthousand" unicode="&#x2030;" 
d="M514 26q27 0 46 18.5t19 45.5t-19 46t-46 19t-46 -19t-19 -46t19 -45.5t46 -18.5zM514 190q41 0 70.5 -29.5t29.5 -70.5t-29.5 -70t-70.5 -29q-42 0 -71 29t-29 70t29 70.5t71 29.5zM274 26q27 0 46 18.5t19 45.5t-19 46t-46 19t-46 -19t-19 -46t19 -45.5t46 -18.5z
M274 190q41 0 70.5 -29.5t29.5 -70.5t-29.5 -70t-70.5 -29q-42 0 -71 29t-29 70t29 70.5t71 29.5zM100 548q-27 0 -45.5 -19t-18.5 -46t18.5 -45t45.5 -18t46 18t19 45t-19.5 46t-45.5 19zM348 582l31 -18l-348 -576l-31 18zM100 584q41 0 70.5 -29.5t29.5 -71.5
q0 -41 -29.5 -70t-70.5 -29q-42 0 -71 29t-29 70q0 42 29 71.5t71 29.5z" />
    <glyph glyph-name="guilsinglleft" unicode="&#x2039;" 
d="M284 222l114 -141l-40 -32l-140 173l140 173l40 -32z" />
    <glyph glyph-name="guilsinglright" unicode="&#x203a;" 
d="M330 222l-114 141l40 32l140 -173l-140 -173l-40 32z" />
    <glyph glyph-name="fraction" unicode="&#x2044;" 
d="M537 582l30 -26l-489 -566l-30 26z" />
    <glyph glyph-name="uni2070" unicode="&#x2070;" 
d="M144 418q0 88 45 146.5t118 58.5t118 -58.5t45 -146.5t-45 -146.5t-118 -58.5t-118 58.5t-45 146.5zM423 418q0 69 -31 115.5t-85 46.5t-85 -46.5t-31 -115.5q0 -70 31 -116t85 -46t85 46t31 116z" />
    <glyph glyph-name="uni2074" unicode="&#x2074;" 
d="M485 316h-81l-19 -18v-75h-44v75l-18 18h-193v53q48 54 100.5 136t80.5 150l45 -14q-52 -123 -180 -286h165v98h44v-98h100v-39z" />
    <glyph glyph-name="uni2075" unicode="&#x2075;" 
d="M179 153l-8 41q228 35 228 152q0 30 -20.5 51.5t-58.5 21.5q-53 0 -85 -40h-57l10 234h240v-43h-200l-8 -152q37 42 103 42q59 0 90 -34t31 -80q0 -56 -40 -98.5t-96.5 -63.5t-128.5 -31z" />
    <glyph glyph-name="uni2076" unicode="&#x2076;" 
d="M311 485q60 0 100 -38.5t40 -97.5q0 -57 -42 -96.5t-101 -39.5q-81 0 -121 63q-24 38 -24 93q0 96 68.5 174.5t186.5 110.5l13 -40q-162 -44 -211 -177q34 48 91 48zM406 349q0 40 -28.5 67.5t-69.5 27.5t-69 -27.5t-28 -67.5t28 -67t69 -27t69.5 27t28.5 67z" />
    <glyph glyph-name="uni2077" unicode="&#x2077;" 
d="M207 572l-17 -19v-71h-42v131h318v-49l-204 -413l-40 18l198 402z" />
    <glyph glyph-name="uni2078" unicode="&#x2078;" 
d="M307 456q40 0 64.5 20t24.5 55q0 37 -24.5 56.5t-64.5 19.5t-64.5 -19.5t-24.5 -56.5q0 -35 24.5 -55t64.5 -20zM307 256q44 0 72 20.5t28 57.5q0 38 -27.5 58t-72.5 20t-72.5 -20t-27.5 -58q0 -37 28 -57.5t72 -20.5zM307 214q-63 0 -105 32.5t-42 87.5q0 36 23.5 62.5
t59.5 35.5v5q-30 9 -50 33.5t-20 60.5q0 53 38 85.5t96 32.5t96 -32.5t38 -85.5q0 -36 -20 -60.5t-49 -33.5v-5q35 -9 58.5 -35.5t23.5 -62.5q0 -55 -42 -87.5t-105 -32.5z" />
    <glyph glyph-name="uni2079" unicode="&#x2079;" 
d="M306 623q81 0 121 -63q24 -37 24 -93q0 -105 -72.5 -192.5t-191.5 -120.5l-14 40q89 24 145 80t77 125q-37 -48 -89 -48q-60 0 -101.5 38.5t-41.5 97.5q0 57 42 96.5t101 39.5zM208 487q0 -40 28.5 -67.5t69.5 -27.5t69 27.5t28 67.5t-28 67.5t-69 27.5t-69.5 -27.5
t-28.5 -67.5z" />
    <glyph glyph-name="uni2080" unicode="&#x2080;" 
d="M144 45q0 88 45 146.5t118 58.5t118 -58.5t45 -146.5t-45 -146.5t-118 -58.5t-118 58.5t-45 146.5zM423 45q0 69 -31 115.5t-85 46.5t-85 -46.5t-31 -115.5q0 -70 31 -116t85 -46t85 46t31 116z" />
    <glyph glyph-name="uni2081" unicode="&#x2081;" 
d="M148 153l127 87h58v-333l18 -17h119v-40h-325v40h125l18 17v289l-116 -79z" />
    <glyph glyph-name="uni2082" unicode="&#x2082;" 
d="M184 127l-35 26q27 43 69.5 70t91.5 27q59 0 92 -31.5t33 -81.5q0 -28 -18 -56.5t-34.5 -43t-51.5 -41.5l-131 -106h192l20 17v60h41v-117h-304v52l152 125q34 28 47 39.5t26 32t13 40.5q0 30 -21 48.5t-56 18.5q-72 0 -126 -79z" />
    <glyph glyph-name="uni2083" unicode="&#x2083;" 
d="M219 58l166 141h-214v41h260v-53l-128 -104l28 2q54 0 84.5 -31t30.5 -78q0 -56 -40.5 -99t-98 -65t-130.5 -32l-9 41q233 39 233 155q0 33 -22 54.5t-60 21.5q-41 0 -78 -24z" />
    <glyph glyph-name="uni2084" unicode="&#x2084;" 
d="M485 -57h-81l-19 -18v-75h-44v75l-18 18h-193v52q48 55 100.5 137t80.5 150l45 -14q-52 -123 -180 -286h165v98h44v-98h100v-39z" />
    <glyph glyph-name="uni2085" unicode="&#x2085;" 
d="M179 -220l-8 41q228 35 228 152q0 30 -20.5 51.5t-58.5 21.5q-53 0 -85 -40h-57l10 234h240v-43h-200l-8 -152q37 42 103 42q59 0 90 -34t31 -80q0 -56 -40 -98.5t-96.5 -63.5t-128.5 -31z" />
    <glyph glyph-name="uni2086" unicode="&#x2086;" 
d="M311 112q60 0 100 -38.5t40 -97.5q0 -57 -42 -96.5t-101 -39.5q-81 0 -121 63q-24 38 -24 93q0 96 68.5 174.5t186.5 110.5l13 -40q-162 -44 -211 -177q34 48 91 48zM406 -24q0 40 -28.5 67.5t-69.5 27.5t-69 -27.5t-28 -67.5t28 -67.5t69 -27.5t69.5 27.5t28.5 67.5z
" />
    <glyph glyph-name="uni2087" unicode="&#x2087;" 
d="M207 199l-17 -19v-71h-42v131h318v-49l-204 -413l-40 18l198 402z" />
    <glyph glyph-name="uni2088" unicode="&#x2088;" 
d="M307 83q40 0 64.5 20t24.5 55q0 37 -24.5 56.5t-64.5 19.5t-64.5 -19.5t-24.5 -56.5q0 -35 24.5 -55t64.5 -20zM307 -117q44 0 72 20.5t28 57.5q0 38 -27.5 58t-72.5 20t-72.5 -20t-27.5 -58q0 -37 28 -57.5t72 -20.5zM307 -159q-63 0 -105 32.5t-42 87.5q0 36 23.5 62.5
t59.5 35.5v5q-30 9 -50 33.5t-20 60.5q0 53 38 85.5t96 32.5t96 -32.5t38 -85.5q0 -36 -20 -60.5t-49 -33.5v-5q35 -9 58.5 -35.5t23.5 -62.5q0 -55 -42 -87.5t-105 -32.5z" />
    <glyph glyph-name="uni2089" unicode="&#x2089;" 
d="M306 250q81 0 121 -63q24 -37 24 -93q0 -105 -72.5 -192.5t-191.5 -120.5l-14 40q89 24 145 80t77 125q-37 -48 -89 -48q-60 0 -101.5 38.5t-41.5 97.5q0 57 42 96.5t101 39.5zM208 114q0 -40 28.5 -67.5t69.5 -27.5t69 27.5t28 67.5t-28 67.5t-69 27.5t-69.5 -27.5
t-28.5 -67.5z" />
    <glyph glyph-name="Euro" unicode="&#x20ac;" 
d="M571 96q-90 -110 -206 -110q-96 0 -159.5 60t-82.5 158h-99l8 40h85q-2 26 -2 41q0 14 2 40h-73l8 39h71q20 98 86.5 159t161.5 61q84 0 136.5 -47t52.5 -110q0 -24 -15 -40t-37 -16q-20 0 -34.5 14t-14.5 33q0 17 11 29t27 11q-7 29 -40.5 52.5t-85.5 23.5
q-75 0 -125 -46.5t-67 -123.5h220l-7 -39h-220q-2 -26 -2 -40q0 -15 2 -41h208l-7 -40h-195q17 -77 65 -122.5t122 -45.5q99 0 174 96z" />
    <glyph glyph-name="uni2117" unicode="&#x2117;" 
d="M263 401v-102h63q82 0 82 50q0 52 -82 52h-63zM327 266h-64v-90l14 -14h52v-32h-143v32h28l14 14v212l-14 14h-28v31h141q120 0 120 -84q0 -83 -120 -83zM307 40q101 0 174 72t73 172t-73 173t-174 73t-173.5 -73t-72.5 -173t72.5 -172t173.5 -72zM307 562
q116 0 198 -81.5t82 -196.5t-82 -196.5t-198 -81.5t-198 81.5t-82 196.5t82 196.5t198 81.5z" />
    <glyph glyph-name="trademark" unicode="&#x2122;" 
d="M452 399h-36l-40 138h-10v-186l11 -12h21v-29h-90v29h15l13 12v178l-13 12h-15v29h86l41 -141l41 141h85v-29h-17l-11 -12v-178l11 -12h17v-29h-89v29h19l13 12v186h-11zM47 570h224v-96h-31v55l-13 12h-51v-190l12 -12h46v-29h-149v29h44l13 12v190h-51l-13 -12v-55h-31
v96z" />
    <glyph glyph-name="uni2153" unicode="&#x2153;" 
d="M393 43l120 100h-153v37h192v-48l-78 -66q45 -1 67.5 -23t22.5 -58q0 -60 -57 -95.5t-141 -46.5l-8 36q166 29 166 106q0 23 -15 37t-39 14q-29 0 -58 -19zM268 212l14 -15l-186 -204l-37 38zM43 555l91 62h52v-250h89v-36h-223v36h93v210l-81 -55zM344 258l-14 15
l186 204l37 -38z" />
    <glyph glyph-name="uni2154" unicode="&#x2154;" 
d="M74 531l-30 24q51 73 123 73q44 0 68.5 -23t24.5 -60q0 -30 -21 -54t-58 -50l-93 -70h191v-36h-235v46l109 86q24 18 35 27.5t19.5 23t8.5 27.5q0 20 -13.5 32t-35.5 12q-53 0 -93 -58zM344 258l-14 15l186 204l37 -38zM268 212l14 -15l-186 -204l-37 38zM393 43l120 100
h-153v37h192v-48l-78 -66q45 -1 67.5 -23t22.5 -58q0 -60 -57 -95.5t-141 -46.5l-8 36q166 29 166 106q0 23 -15 37t-39 14q-29 0 -58 -19z" />
    <glyph glyph-name="uni215B" unicode="&#x215b;" 
d="M344 258l-14 15l186 204l37 -38zM43 555l91 62h52v-250h89v-36h-223v36h93v210l-81 -55zM268 212l14 -15l-186 -204l-37 38zM464 155q-26 0 -43 -13.5t-17 -38.5q0 -23 17 -36.5t43 -13.5t43 13.5t17 36.5q0 25 -16.5 38.5t-43.5 13.5zM464 -90q29 0 48.5 14t19.5 38
q0 26 -18.5 40t-49.5 14q-30 0 -49 -14t-19 -40q0 -24 20 -38t48 -14zM464 -127q-46 0 -77.5 24.5t-31.5 64.5q0 26 16.5 45.5t40.5 25.5v5q-20 6 -33.5 23.5t-13.5 41.5q0 40 28 64.5t71 24.5t71.5 -24.5t28.5 -64.5q0 -24 -14 -41.5t-34 -23.5v-5q25 -6 41 -25.5t16 -45.5
q0 -40 -31.5 -64.5t-77.5 -24.5z" />
    <glyph glyph-name="uni215C" unicode="&#x215c;" 
d="M464 155q-26 0 -43 -13.5t-17 -38.5q0 -23 17 -36.5t43 -13.5t43 13.5t17 36.5q0 25 -16.5 38.5t-43.5 13.5zM464 -90q29 0 48.5 14t19.5 38q0 26 -18.5 40t-49.5 14q-30 0 -49 -14t-19 -40q0 -24 20 -38t48 -14zM464 -127q-46 0 -77.5 24.5t-31.5 64.5q0 26 16.5 45.5
t40.5 25.5v5q-20 6 -33.5 23.5t-13.5 41.5q0 40 28 64.5t71 24.5t71.5 -24.5t28.5 -64.5q0 -24 -14 -41.5t-34 -23.5v-5q25 -6 41 -25.5t16 -45.5q0 -40 -31.5 -64.5t-77.5 -24.5zM92 475l119 100h-153v37h193v-48l-78 -66q44 -1 66.5 -23t22.5 -58q0 -60 -57 -95.5
t-141 -46.5l-7 36q165 29 165 106q0 23 -14.5 37t-39.5 14q-29 0 -58 -19zM268 212l14 -15l-186 -204l-37 38zM344 258l-14 15l186 204l37 -38z" />
    <glyph glyph-name="uni215D" unicode="&#x215d;" 
d="M464 155q-26 0 -43 -13.5t-17 -38.5q0 -23 17 -36.5t43 -13.5t43 13.5t17 36.5q0 25 -16.5 38.5t-43.5 13.5zM464 -127q-46 0 -77.5 24.5t-31.5 64.5q0 26 16.5 45.5t40.5 25.5v5q-20 6 -33.5 23.5t-13.5 41.5q0 40 28 64.5t71 24.5t71.5 -24.5t28.5 -64.5
q0 -24 -14 -41.5t-34 -23.5v-5q25 -6 41 -25.5t16 -45.5q0 -40 -31.5 -64.5t-77.5 -24.5zM464 -90q29 0 48.5 14t19.5 38q0 26 -18.5 40t-49.5 14q-30 0 -49 -14t-19 -40q0 -24 20 -38t48 -14zM60 274l-8 37q162 26 162 106q0 20 -14 33.5t-38 13.5q-36 0 -54 -29h-50l7 177
h178v-39h-144l-5 -100q25 28 70 28t67.5 -25t22.5 -59q0 -60 -55.5 -95.5t-138.5 -47.5zM268 212l14 -15l-186 -204l-37 38zM344 258l-14 15l186 204l37 -38z" />
    <glyph glyph-name="uni215E" unicode="&#x215e;" 
d="M464 -127q-46 0 -77.5 24.5t-31.5 64.5q0 26 16.5 45.5t40.5 25.5v5q-20 6 -33.5 23.5t-13.5 41.5q0 40 28 64.5t71 24.5t71.5 -24.5t28.5 -64.5q0 -24 -14 -41.5t-34 -23.5v-5q25 -6 41 -25.5t16 -45.5q0 -40 -31.5 -64.5t-77.5 -24.5zM464 -90q29 0 48.5 14t19.5 38
q0 26 -18.5 40t-49.5 14q-30 0 -49 -14t-19 -40q0 -24 20 -38t48 -14zM464 155q-26 0 -43 -13.5t-17 -38.5q0 -23 17 -36.5t43 -13.5t43 13.5t17 36.5q0 25 -16.5 38.5t-43.5 13.5zM88 574v-66h-37v105h237v-45l-152 -294l-35 16l145 284h-158zM344 258l-14 15l186 204
l37 -38zM268 212l14 -15l-186 -204l-37 38z" />
    <glyph glyph-name="minus" unicode="&#x2212;" 
d="M88 247v46h438v-46h-438z" />
    <glyph glyph-name="approxequal" unicode="&#x2248;" 
d="M542 204q-68 -63 -133 -63q-38 0 -102 29t-100 29q-59 0 -135 -69v54q69 64 133 64q38 0 102 -29.5t100 -29.5q59 0 135 69v-54zM542 353q-68 -63 -133 -63q-38 0 -102 29t-100 29q-59 0 -135 -69v54q69 64 133 64q38 0 102 -29.5t100 -29.5q59 0 135 69v-54z" />
    <glyph glyph-name="notequal" unicode="&#x2260;" 
d="M257 177l-94 -122l-31 22l77 100h-122v43h156l78 102h-234v44h268l90 116l30 -22l-72 -94h124v-44h-158l-79 -102h237v-43h-270z" />
    <glyph glyph-name="lessequal" unicode="&#x2264;" 
d="M110 312v50l388 171v-51l-335 -145l335 -145v-51zM110 34v45h388v-45h-388z" />
    <glyph glyph-name="greaterequal" unicode="&#x2265;" 
d="M504 312l-388 -171v51l335 145l-335 145v51l388 -171v-50zM504 34h-388v45h388v-45z" />
    <glyph glyph-name="i.dot" 
d="M349 68l22 -22h163v-46h-427v46h172l22 22v288l-22 22h-172v46h242v-356zM252 591q0 25 16.5 41.5t39.5 16.5q25 0 42 -16.5t17 -41.5q0 -24 -17 -40.5t-42 -16.5q-23 0 -39.5 16.5t-16.5 40.5z" />
    <glyph glyph-name="braceleft.cap" 
d="M85 249v49h55q95 0 95 70q0 7 -14 78.5t-14 95.5q0 59 38.5 95t101.5 36q59 0 105 -23l-13 -45q-44 21 -89 21q-44 0 -68 -22.5t-24 -63.5q0 -20 14 -90t14 -82q0 -38 -23.5 -61.5t-55.5 -32.5q32 -9 55.5 -33t23.5 -61q0 -12 -14 -82.5t-14 -90.5q0 -41 24 -63.5
t68 -22.5q46 0 89 22l13 -46q-49 -23 -105 -23q-63 0 -101.5 36t-38.5 95q0 24 14 96t14 79q0 69 -95 69h-55z" />
    <glyph glyph-name="braceright.cap" 
d="M529 249h-55q-95 0 -95 -69q0 -7 14 -79t14 -96q0 -59 -38.5 -95t-101.5 -36q-56 0 -105 23l13 46q43 -22 89 -22q44 0 68 22.5t24 63.5q0 20 -14 90.5t-14 82.5q0 37 23.5 61t55.5 33q-32 9 -55.5 32.5t-23.5 61.5q0 12 14 82t14 90q0 41 -24 63.5t-68 22.5
q-46 0 -89 -21l-13 45q46 23 105 23q63 0 101.5 -36t38.5 -95q0 -24 -14 -95.5t-14 -78.5q0 -70 95 -70h55v-49z" />
    <glyph glyph-name="bracketleft.cap" 
d="M239 624v-697h218v-46h-265v789h265v-46h-218z" />
    <glyph glyph-name="bracketright.cap" 
d="M375 624h-218v46h265v-789h-265v46h218v697z" />
    <glyph glyph-name="parenleft.cap" 
d="M220 276q0 -117 62 -209.5t165 -154.5l-27 -40q-251 152 -251 404t251 404l28 -39q-103 -62 -165.5 -155t-62.5 -210z" />
    <glyph glyph-name="parenright.cap" 
d="M394 276q0 117 -62.5 210t-165.5 155l28 39q251 -152 251 -404t-251 -404l-27 40q103 62 165 154.5t62 209.5z" />
    <glyph glyph-name="guillemotleft.cap" 
d="M487 141l-40 -32l-140 173l140 173l40 -32l-114 -141zM278 141l-40 -32l-140 173l140 173l40 -32l-114 -141z" />
    <glyph glyph-name="guillemotright.cap" 
d="M127 141l114 141l-114 141l40 32l140 -173l-140 -173zM336 141l114 141l-114 141l40 32l140 -173l-140 -173z" />
    <glyph glyph-name="guilsinglleft.cap" 
d="M284 282l114 -141l-40 -32l-140 173l140 173l40 -32z" />
    <glyph glyph-name="guilsinglright.cap" 
d="M330 282l-114 141l40 32l140 -173l-140 -173l-40 32z" />
    <glyph glyph-name="questiondown.cap" 
d="M300 387h56v-101q-100 -24 -147.5 -54t-47.5 -88q0 -54 44.5 -83.5t110.5 -29.5q60 0 101.5 24.5t45.5 55.5q-46 11 -46 46q0 19 14.5 32.5t36.5 13.5q23 0 40 -17.5t17 -45.5q0 -66 -60 -110t-149 -44t-148.5 42.5t-59.5 115.5q0 72 50.5 111.5t141.5 62.5v69zM391 517
q0 -26 -18 -44.5t-45 -18.5q-26 0 -44.5 18.5t-18.5 44.5q0 27 18.5 45.5t44.5 18.5q27 0 45 -18.5t18 -45.5z" />
    <glyph glyph-name="exclamdown.cap" 
d="M307 584q26 0 44.5 -18.5t18.5 -45.5q0 -26 -18.5 -44.5t-44.5 -18.5t-44.5 18.5t-18.5 44.5q0 27 18.5 45.5t44.5 18.5zM321 380l33 -337q2 -23 -11.5 -38.5t-35.5 -15.5t-35.5 16t-11.5 38l32 337h29z" />
    <glyph glyph-name="slash.cap" 
d="M71 -91l428 745l44 -23l-428 -745z" />
    <glyph glyph-name="bar.cap" 
d="M333 654v-769h-52v769h52z" />
    <glyph glyph-name="backslash.cap" 
d="M543 -91l-44 -23l-428 745l44 23z" />
    <glyph glyph-name="a.ord" 
d="M371 364v62l-112 -31q-74 -14 -74 -53q0 -21 15.5 -32.5t39.5 -11.5q63 0 131 66zM152 505q0 35 42.5 55.5t98.5 20.5q59 0 91 -29t32 -81v-127q0 -42 29 -42q16 0 41 25l22 -30q-34 -37 -71 -37q-26 0 -44 17t-21 47q-60 -64 -137 -64q-44 0 -70.5 21t-26.5 59
q0 36 27.5 56t83.5 33l122 31v12q0 71 -85 71q-49 0 -79 -15q19 -5 19 -28q0 -14 -10 -23t-26 -9t-27 10t-11 27z" />
    <glyph glyph-name="b.ord" 
d="M214 458v-77q38 -80 116 -80q49 0 79 34t30 85q0 50 -30 84t-79 34q-78 0 -116 -80zM214 269h-95v41h41l12 11v331l-12 11h-46v41h100v-192q39 68 119 68q66 0 109 -46t43 -114q0 -69 -43 -115t-109 -46q-80 0 -119 68v-58z" />
    <glyph glyph-name="c.ord" 
d="M380 473q0 11 7.5 19.5t19.5 9.5q-19 37 -87 37q-53 0 -91 -33.5t-38 -85.5q0 -50 33.5 -84t91.5 -34q69 0 122 47l25 -33q-63 -57 -147 -57q-75 0 -123.5 46t-48.5 115q0 67 51 113.5t124 46.5q62 0 101.5 -29t39.5 -71q0 -19 -12 -32t-29 -13t-28 11.5t-11 26.5z" />
    <glyph glyph-name="d.ord" 
d="M400 381v77q-38 80 -116 80q-49 0 -79 -34t-30 -85t30 -85t79 -34q77 0 116 81zM312 704h130v-383l12 -11h41v-41h-95v57q-39 -68 -119 -68q-65 0 -108.5 46.5t-43.5 114.5q0 69 43 114.5t109 45.5q40 0 71 -18.5t48 -48.5v140l-11 11h-77v41z" />
    <glyph glyph-name="e.ord" 
d="M418 445l-1 5q-9 39 -37 64t-71 25q-44 0 -77 -26t-42 -68h228zM457 316q-63 -57 -144 -57q-74 0 -121.5 46t-47.5 115q0 68 47 114t118 46q76 0 118.5 -50t42.5 -122h-281q4 -45 37.5 -75.5t86.5 -30.5q70 0 120 46z" />
    <glyph glyph-name="f.ord" 
d="M265 557h131v-40h-112l-19 -18v-171l19 -18h112v-41h-262v41h71l19 18v171l-19 18h-71v40h90q0 73 43 115t113 42q54 0 88.5 -26t34.5 -64q0 -21 -12.5 -34t-31.5 -13q-18 0 -30 10.5t-12 25.5q0 13 9.5 22.5t24.5 10.5q-17 33 -69 33t-84.5 -31t-32.5 -91z" />
    <glyph glyph-name="g.ord" 
d="M367 474q0 29 -22.5 47.5t-57.5 18.5q-34 0 -56.5 -18.5t-22.5 -47.5t22.5 -48t56.5 -19q35 0 57.5 19t22.5 48zM484 235q0 -47 -50.5 -78t-131.5 -31q-83 0 -132 26.5t-49 73.5q0 40 45 69q-22 18 -22 47q0 41 46 63q-28 28 -28 69q0 45 35 75.5t90 30.5q36 0 68 -15
q30 59 89 59q29 0 50 -17t21 -43q0 -18 -11 -29.5t-27 -11.5t-26.5 10t-10.5 25q0 16 17 25q-7 6 -19 6q-33 0 -56 -43q31 -29 31 -72q0 -46 -35 -76.5t-91 -30.5q-41 0 -70 17q-32 -14 -32 -37q0 -13 9 -21t26 -8h156q50 0 79 -21t29 -62zM379 275h-182q-31 -20 -31 -47
q0 -29 36.5 -45.5t99.5 -16.5q62 0 100 19t38 48q0 42 -61 42z" />
    <glyph glyph-name="h.ord" 
d="M224 465v-137l18 -18h43v-41h-166v41h44l19 18v317l-19 18h-44v41h105v-187q16 26 46 44.5t66 18.5q49 0 80 -29.5t31 -84.5v-138l19 -18h44v-41h-165v41h42l19 18v125q0 85 -72 85q-71 0 -110 -73z" />
    <glyph glyph-name="i.ord" 
d="M342 328l19 -18h108v-41h-306v41h119l18 18v183l-18 18h-119v41h179v-242zM263 686q0 20 13.5 33.5t32.5 13.5q20 0 33.5 -13.5t13.5 -33.5t-13.5 -33t-33.5 -13q-19 0 -32.5 13.5t-13.5 32.5z" />
    <glyph glyph-name="j.ord" 
d="M140 239q0 23 13 38.5t33 15.5t32 -11t12 -28q0 -15 -11 -25.5t-27 -10.5q8 -22 30.5 -37t53.5 -15q47 0 74 31t27 93v221l-18 18h-156v41h216v-283q0 -77 -40 -118t-103 -41q-56 0 -96 33.5t-40 77.5zM339 686q0 20 13.5 33.5t31.5 13.5q20 0 34 -13.5t14 -33.5
q0 -19 -14 -32.5t-34 -13.5q-18 0 -31.5 13.5t-13.5 32.5z" />
    <glyph glyph-name="k.ord" 
d="M285 310v-41h-167v41h44l19 18v317l-19 18h-48v41h108v-295l157 111l-4 9h-47v41h162v-41h-36l-134 -93l111 -126h76v-41h-134v41l-88 102l-63 -43v-41l19 -18h44z" />
    <glyph glyph-name="l.ord" 
d="M342 328l19 -18h108v-41h-306v41h119l18 18v317l-18 18h-119v41h179v-376z" />
    <glyph glyph-name="m.ord" 
d="M511 269h-90v225q0 18 -9 31t-27 13q-36 0 -57 -58v-211h-40v225q0 18 -9 31t-27 13q-36 0 -57 -58v-211h-87v41h35l11 11v197l-11 11h-35v41h87v-46q8 25 25 40.5t41 15.5q54 0 65 -55q20 55 70 55q30 0 47.5 -19.5t17.5 -55.5v-184l12 -11h38v-41z" />
    <glyph glyph-name="n.ord" 
d="M224 465v-137l18 -18h43v-41h-166v41h44l19 18v183l-19 18h-44v41h105v-53q16 26 46 44.5t66 18.5q49 0 80 -29.5t31 -84.5v-138l19 -18h44v-41h-165v41h42l19 18v125q0 85 -72 85q-71 0 -110 -73z" />
    <glyph glyph-name="o.ord" 
d="M141 420q0 68 47.5 114t118.5 46t118.5 -46t47.5 -114t-47.5 -114.5t-118.5 -46.5t-118.5 46.5t-47.5 114.5zM426 420q0 50 -33.5 84t-85.5 34t-85.5 -34t-33.5 -84q0 -51 33.5 -84.5t85.5 -33.5t85.5 33.5t33.5 84.5z" />
    <glyph glyph-name="p.ord" 
d="M214 458v-77q38 -80 116 -80q49 0 79 34t30 85q0 50 -30 84t-79 34q-78 0 -116 -80zM214 327v-139l11 -11h77v-41h-183v41h41l12 11v330l-12 11h-41v41h95v-58q39 68 119 68q66 0 109 -46t43 -114q0 -69 -43 -115t-109 -46q-80 0 -119 68z" />
    <glyph glyph-name="q.ord" 
d="M400 458q-38 80 -116 80q-49 0 -79 -34t-30 -84q0 -51 30 -85t79 -34q78 0 116 80v77zM400 327q-39 -68 -119 -68q-66 0 -109 46t-43 115q0 68 43 114t109 46q80 0 119 -68v58h95v-41h-41l-12 -11v-330l12 -11h41v-41h-183v41h77l11 11v139z" />
    <glyph glyph-name="r.ord" 
d="M399 482q0 15 9.5 24t23.5 9q8 0 12 -3q0 5 -3 8q-5 21 -39 21q-58 0 -144 -104v-109l18 -18h127v-41h-276v41h70l19 18v183l-19 18h-70v41h131v-83q74 93 143 93q43 0 65 -22.5t22 -54.5q0 -24 -14 -41t-36 -17q-17 0 -28 10t-11 27z" />
    <glyph glyph-name="s.ord" 
d="M357 391l-102 21q-48 10 -71.5 29.5t-23.5 54.5q0 37 31.5 60.5t79.5 23.5q76 0 116 -46l10 3v33h39v-103h-33q-18 34 -53 54.5t-73 20.5q-32 0 -52 -12t-20 -33q0 -19 14.5 -27.5t46.5 -15.5l107 -23q40 -8 60.5 -26.5t20.5 -53.5q0 -43 -32 -67.5t-87 -24.5
q-85 0 -130 53l-11 -6v-37h-39v110h37q52 -82 141 -82q35 0 56 13.5t21 38.5q0 33 -53 42z" />
    <glyph glyph-name="t.ord" 
d="M209 511l-18 18h-71v41h89v109h44v-109h178v-41h-161l-18 -18v-100q0 -110 94 -110q62 0 110 63l28 -26q-54 -79 -138 -79q-64 0 -100.5 35.5t-36.5 110.5v106z" />
    <glyph glyph-name="u.ord" 
d="M331 570h104v-242l18 -18h44v-41h-104v53q-16 -26 -46 -44.5t-65 -18.5q-51 0 -82 29.5t-31 84.5v138l-18 18h-44v41h104v-183q0 -86 72 -86q73 0 110 73v137l-18 18h-44v41z" />
    <glyph glyph-name="v.ord" 
d="M352 529v41h151v-41h-39l-136 -260h-41l-137 260h-39v41h155v-41h-46l-12 -13l101 -200l101 200l-12 13h-46z" />
    <glyph glyph-name="w.ord" 
d="M337 490l44 -185h14l38 213l-10 11h-54v41h141v-41h-33l-52 -260h-72l-46 185l-46 -185h-73l-51 260h-33v41h143v-41h-55l-10 -11l39 -213h14l44 185h58z" />
    <glyph glyph-name="x.ord" 
d="M454 529l-120 -106l129 -113h40v-41h-168v41h51l8 11l-88 81l-88 -81l9 -11h51v-41h-167v41h40l128 113l-120 106h-41v41h166v-41h-47l-9 -10l79 -74l79 74l-8 10h-47v41h164v-41h-41z" />
    <glyph glyph-name="y.ord" 
d="M112 201q0 22 12.5 36.5t32.5 14.5q16 0 27.5 -10.5t11.5 -26.5q0 -31 -35 -33q5 -20 35 -20q24 0 42 23.5t51 87.5l-135 256h-40v41h155v-41h-47l-11 -13l101 -200l102 200l-12 13h-47v41h151v-41h-39l-143 -272q-37 -71 -63 -101t-65 -30q-35 0 -59.5 20.5t-24.5 54.5z
" />
    <glyph glyph-name="z.ord" 
d="M199 308h207l18 18v68h41v-125h-320v46l255 216h-187l-18 -18v-64h-41v121h301v-46z" />
    <glyph glyph-name="zero.dnom" 
d="M144 195q0 88 45 146.5t118 58.5t118 -58.5t45 -146.5t-45 -146.5t-118 -58.5t-118 58.5t-45 146.5zM423 195q0 69 -31 115t-85 46t-85 -46t-31 -115t31 -115t85 -46t85 46t31 115z" />
    <glyph glyph-name="one.dnom" 
d="M148 303l127 87h58v-332l18 -18h119v-40h-325v40h125l18 18v288l-116 -79z" />
    <glyph glyph-name="two.dnom" 
d="M184 276l-35 27q27 43 69.5 70t91.5 27q59 0 92 -31.5t33 -81.5q0 -28 -18 -56.5t-34.5 -43t-51.5 -41.5l-132 -106h193l20 17v60h41v-117h-304v52l152 125q34 28 47 39.5t26 32t13 40.5q0 30 -21 48.5t-56 18.5q-72 0 -126 -80z" />
    <glyph glyph-name="three.dnom" 
d="M219 208l166 140h-215v42h261v-53l-128 -104l28 2q54 0 84.5 -31t30.5 -78q0 -56 -40.5 -99t-98 -65t-130.5 -32l-9 41q234 40 234 155q0 33 -22.5 54.5t-60.5 21.5q-39 0 -78 -24z" />
    <glyph glyph-name="four.dnom" 
d="M485 93h-82l-18 -18v-75h-44v75l-18 18h-194v53q49 54 101.5 135.5t80.5 150.5l45 -14q-54 -127 -180 -285h165v97h44v-97h100v-40z" />
    <glyph glyph-name="five.dnom" 
d="M178 -70l-8 41q229 35 229 152q0 30 -20.5 51.5t-58.5 21.5q-53 0 -85 -41h-57l10 235h240v-43h-200l-8 -152q35 42 103 42q59 0 90 -34t31 -80q0 -43 -22 -77.5t-61 -57t-84.5 -37t-98.5 -21.5z" />
    <glyph glyph-name="six.dnom" 
d="M311 262q60 0 100 -38.5t40 -97.5q0 -57 -42 -96.5t-101 -39.5q-81 0 -121 63q-24 38 -24 93q0 96 68.5 174.5t186.5 110.5l13 -40q-163 -45 -211 -177q34 48 91 48zM406 126q0 40 -28.5 67.5t-69.5 27.5t-69 -27.5t-28 -67.5t28 -67t69 -27t69.5 27t28.5 67z" />
    <glyph glyph-name="seven.dnom" 
d="M207 348l-18 -18v-71h-41v131h318v-49l-204 -413l-40 18l198 402h-213z" />
    <glyph glyph-name="eight.dnom" 
d="M307 233q40 0 64.5 20t24.5 55q0 36 -24.5 56t-64.5 20t-64.5 -20t-24.5 -56q0 -35 24.5 -55t64.5 -20zM307 33q43 0 71.5 20.5t28.5 57.5q0 38 -27.5 58t-72.5 20t-72.5 -20t-27.5 -58q0 -37 28.5 -57.5t71.5 -20.5zM307 -9q-63 0 -105 32.5t-42 87.5q0 36 23 62.5
t59 35.5v5q-29 9 -49 33.5t-20 60.5q0 53 38 85.5t96 32.5t96 -32.5t38 -85.5q0 -36 -20 -60.5t-49 -33.5v-5q36 -9 59 -35.5t23 -62.5q0 -55 -42 -87.5t-105 -32.5z" />
    <glyph glyph-name="nine.dnom" 
d="M306 400q81 0 121 -63q24 -37 24 -93q0 -106 -73 -193t-192 -120l-13 40q89 24 145.5 80.5t76.5 124.5q-37 -48 -89 -48q-60 0 -101.5 38.5t-41.5 97.5q0 57 42 96.5t101 39.5zM208 264q0 -40 28.5 -67.5t69.5 -27.5t69 27.5t28 67.5t-28 67t-69 27t-69.5 -27t-28.5 -67z
" />
  </font>
</defs>
</svg>
